<svg width="100" height="99" viewBox="0 0 100 99" fill="none" xmlns="http://www.w3.org/2000/svg">
<path d="M38.8918 6.76352C42.0021 1.37608 48.4578 -0.876051 54.12 1.11641C56.9663 2.06585 59.49 4.02 61.1082 6.82295L97.1556 69.2588C103.011 79.4006 99.5362 92.3691 89.3943 98.2245C87.366 99.3955 84.7723 98.7005 83.6012 96.6723L49.9829 38.4435L16.3988 96.6128C15.2278 98.6411 12.6341 99.3361 10.6057 98.1651C0.46386 92.3096 -3.01104 79.3412 2.84438 69.1994L38.8918 6.76352Z" fill="url(#paint0_linear_1435_13871)"/>
<path d="M50.0423 98.7881C57.0688 98.7881 62.7649 93.092 62.7649 86.0655C62.7649 79.0391 57.0688 73.3429 50.0423 73.3429C43.0158 73.3429 37.3197 79.0391 37.3197 86.0655C37.3197 93.092 43.0158 98.7881 50.0423 98.7881Z" fill="url(#paint1_linear_1435_13871)"/>
<defs>
<linearGradient id="paint0_linear_1435_13871" x1="100" y1="98.7933" x2="-18.688" y2="63.8189" gradientUnits="userSpaceOnUse">
<stop stop-color="#06C149"/>
<stop offset="1" stop-color="#1ADF61"/>
</linearGradient>
<linearGradient id="paint1_linear_1435_13871" x1="100" y1="98.7933" x2="-18.688" y2="63.8189" gradientUnits="userSpaceOnUse">
<stop stop-color="#06C149"/>
<stop offset="1" stop-color="#1ADF61"/>
</linearGradient>
</defs>
</svg>
