<svg width="25" height="25" viewBox="0 0 25 25" fill="none" xmlns="http://www.w3.org/2000/svg">
<g clip-path="url(#clip0_1435_8365)">
<path d="M17.2729 0.611986C17.2219 0.554986 15.3844 0.634486 13.7854 2.36999C12.1864 4.10399 12.4324 6.09299 12.4684 6.14399C12.5044 6.19499 14.7484 6.27449 16.1809 4.25699C17.6134 2.23949 17.3239 0.670486 17.2729 0.611986ZM22.2439 18.2115C22.1719 18.0675 18.7564 16.3605 19.0744 13.0785C19.3924 9.79499 21.5869 8.89499 21.6214 8.79749C21.6559 8.69999 20.7259 7.61249 19.7404 7.06199C19.0168 6.67386 18.216 6.4515 17.3959 6.41099C17.2339 6.40649 16.6714 6.26849 15.5149 6.58499C14.7529 6.79349 13.0354 7.46849 12.5629 7.49549C12.0889 7.52249 10.6789 6.71249 9.16239 6.49799C8.19189 6.31049 7.16289 6.69449 6.42639 6.98999C5.69139 7.28399 4.29339 8.12099 3.31539 10.3455C2.33739 12.5685 2.84889 16.0905 3.21489 17.1855C3.58089 18.279 4.15239 20.0715 5.12439 21.3795C5.98839 22.8555 7.13439 23.88 7.61289 24.228C8.09139 24.576 9.44139 24.807 10.3774 24.3285C11.1304 23.8665 12.4894 23.601 13.0264 23.6205C13.5619 23.64 14.6179 23.8515 15.6994 24.429C16.5559 24.7245 17.3659 24.6015 18.1774 24.2715C18.9889 23.94 20.1634 22.683 21.5344 20.1345C22.0549 18.9495 22.2919 18.309 22.2439 18.2115Z" fill="black"/>
<path d="M17.2729 0.611986C17.2219 0.554986 15.3844 0.634486 13.7854 2.36999C12.1864 4.10399 12.4324 6.09299 12.4684 6.14399C12.5044 6.19499 14.7484 6.27449 16.1809 4.25699C17.6134 2.23949 17.3239 0.670486 17.2729 0.611986ZM22.2439 18.2115C22.1719 18.0675 18.7564 16.3605 19.0744 13.0785C19.3924 9.79499 21.5869 8.89499 21.6214 8.79749C21.6559 8.69999 20.7259 7.61249 19.7404 7.06199C19.0168 6.67386 18.216 6.4515 17.3959 6.41099C17.2339 6.40649 16.6714 6.26849 15.5149 6.58499C14.7529 6.79349 13.0354 7.46849 12.5629 7.49549C12.0889 7.52249 10.6789 6.71249 9.16239 6.49799C8.19189 6.31049 7.16289 6.69449 6.42639 6.98999C5.69139 7.28399 4.29339 8.12099 3.31539 10.3455C2.33739 12.5685 2.84889 16.0905 3.21489 17.1855C3.58089 18.279 4.15239 20.0715 5.12439 21.3795C5.98839 22.8555 7.13439 23.88 7.61289 24.228C8.09139 24.576 9.44139 24.807 10.3774 24.3285C11.1304 23.8665 12.4894 23.601 13.0264 23.6205C13.5619 23.64 14.6179 23.8515 15.6994 24.429C16.5559 24.7245 17.3659 24.6015 18.1774 24.2715C18.9889 23.94 20.1634 22.683 21.5344 20.1345C22.0549 18.9495 22.2919 18.309 22.2439 18.2115Z" fill="black"/>
</g>
<defs>
<clipPath id="clip0_1435_8365">
<rect width="24" height="24" fill="white" transform="translate(0.5 0.599976)"/>
</clipPath>
</defs>
</svg>
