<svg width="25" height="25" viewBox="0 0 25 25" fill="none" xmlns="http://www.w3.org/2000/svg">
<g clip-path="url(#clip0_1435_978)">
<path d="M17.2729 0.212023C17.2219 0.155023 15.3844 0.234523 13.7854 1.97002C12.1864 3.70402 12.4324 5.69302 12.4684 5.74402C12.5044 5.79502 14.7484 5.87452 16.1809 3.85702C17.6134 1.83952 17.3239 0.270523 17.2729 0.212023ZM22.2439 17.8115C22.1719 17.6675 18.7564 15.9605 19.0744 12.6785C19.3924 9.39502 21.5869 8.49502 21.6214 8.39752C21.6559 8.30002 20.7259 7.21252 19.7404 6.66202C19.0168 6.2739 18.216 6.05153 17.3959 6.01102C17.2339 6.00652 16.6714 5.86852 15.5149 6.18502C14.7529 6.39352 13.0354 7.06852 12.5629 7.09552C12.0889 7.12252 10.6789 6.31252 9.16239 6.09802C8.19189 5.91052 7.16289 6.29452 6.42639 6.59002C5.69139 6.88402 4.29339 7.72102 3.31539 9.94552C2.33739 12.1685 2.84889 15.6905 3.21489 16.7855C3.58089 17.879 4.15239 19.6715 5.12439 20.9795C5.98839 22.4555 7.13439 23.48 7.61289 23.828C8.09139 24.176 9.44139 24.407 10.3774 23.9285C11.1304 23.4665 12.4894 23.201 13.0264 23.2205C13.5619 23.24 14.6179 23.4515 15.6994 24.029C16.5559 24.3245 17.3659 24.2015 18.1774 23.8715C18.9889 23.54 20.1634 22.283 21.5344 19.7345C22.0549 18.5495 22.2919 17.909 22.2439 17.8115Z" fill="white"/>
<path d="M17.2729 0.212023C17.2219 0.155023 15.3844 0.234523 13.7854 1.97002C12.1864 3.70402 12.4324 5.69302 12.4684 5.74402C12.5044 5.79502 14.7484 5.87452 16.1809 3.85702C17.6134 1.83952 17.3239 0.270523 17.2729 0.212023ZM22.2439 17.8115C22.1719 17.6675 18.7564 15.9605 19.0744 12.6785C19.3924 9.39502 21.5869 8.49502 21.6214 8.39752C21.6559 8.30002 20.7259 7.21252 19.7404 6.66202C19.0168 6.2739 18.216 6.05153 17.3959 6.01102C17.2339 6.00652 16.6714 5.86852 15.5149 6.18502C14.7529 6.39352 13.0354 7.06852 12.5629 7.09552C12.0889 7.12252 10.6789 6.31252 9.16239 6.09802C8.19189 5.91052 7.16289 6.29452 6.42639 6.59002C5.69139 6.88402 4.29339 7.72102 3.31539 9.94552C2.33739 12.1685 2.84889 15.6905 3.21489 16.7855C3.58089 17.879 4.15239 19.6715 5.12439 20.9795C5.98839 22.4555 7.13439 23.48 7.61289 23.828C8.09139 24.176 9.44139 24.407 10.3774 23.9285C11.1304 23.4665 12.4894 23.201 13.0264 23.2205C13.5619 23.24 14.6179 23.4515 15.6994 24.029C16.5559 24.3245 17.3659 24.2015 18.1774 23.8715C18.9889 23.54 20.1634 22.283 21.5344 19.7345C22.0549 18.5495 22.2919 17.909 22.2439 17.8115Z" fill="white"/>
</g>
<defs>
<clipPath id="clip0_1435_978">
<rect width="24" height="24" fill="white" transform="translate(0.5 0.200012)"/>
</clipPath>
</defs>
</svg>
