<svg width="24" height="24" viewBox="0 0 24 24" fill="none" xmlns="http://www.w3.org/2000/svg">
<path d="M17.9185 14.3201C17.6595 14.5711 17.5405 14.9341 17.5995 15.2901L18.4885 20.2101C18.5635 20.6271 18.3875 21.0491 18.0385 21.2901C17.6965 21.5401 17.2415 21.5701 16.8685 21.3701L12.4395 19.0601C12.2855 18.9781 12.1145 18.9341 11.9395 18.9291H11.6685C11.5745 18.9431 11.4825 18.9731 11.3985 19.0191L6.96849 21.3401C6.74949 21.4501 6.50149 21.4891 6.25849 21.4501C5.66649 21.3381 5.27149 20.7741 5.36849 20.1791L6.25849 15.2591C6.31749 14.9001 6.19849 14.5351 5.93949 14.2801L2.32849 10.7801C2.02649 10.4871 1.92149 10.0471 2.05949 9.65012C2.19349 9.25412 2.53549 8.96512 2.94849 8.90012L7.91849 8.17912C8.29649 8.14012 8.62849 7.91012 8.79849 7.57012L10.9885 3.08012C11.0405 2.98012 11.1075 2.88812 11.1885 2.81012L11.2785 2.74012C11.3255 2.68812 11.3795 2.64512 11.4395 2.61012L11.5485 2.57012L11.7185 2.50012H12.1395C12.5155 2.53912 12.8465 2.76412 13.0195 3.10012L15.2385 7.57012C15.3985 7.89712 15.7095 8.12412 16.0685 8.17912L21.0385 8.90012C21.4585 8.96012 21.8095 9.25012 21.9485 9.65012C22.0795 10.0511 21.9665 10.4911 21.6585 10.7801L17.9185 14.3201Z" fill="fillColor"/>
</svg>
