<svg width="24" height="24" viewBox="0 0 24 24" fill="none" xmlns="http://www.w3.org/2000/svg">
<path fill-rule="evenodd" clip-rule="evenodd" d="M7.66989 1.99915H16.3399C19.7299 1.99915 21.9999 4.37915 21.9999 7.91915V16.0901C21.9999 19.6201 19.7299 21.9991 16.3399 21.9991H7.66989C4.27989 21.9991 1.99989 19.6201 1.99989 16.0901V7.91915C1.99989 4.37915 4.27989 1.99915 7.66989 1.99915ZM11.9899 9.06015C11.5199 9.06015 11.1299 8.66915 11.1299 8.19015C11.1299 7.70015 11.5199 7.31015 12.0099 7.31015C12.4899 7.31015 12.8799 7.70015 12.8799 8.19015C12.8799 8.66915 12.4899 9.06015 11.9899 9.06015ZM12.8699 15.7801C12.8699 16.2601 12.4799 16.6501 11.9899 16.6501C11.5099 16.6501 11.1199 16.2601 11.1199 15.7801V11.3601C11.1199 10.8791 11.5099 10.4801 11.9899 10.4801C12.4799 10.4801 12.8699 10.8791 12.8699 11.3601V15.7801Z" fill="fillColor"/>
</svg>
