<svg width="24" height="24" viewBox="0 0 24 24" fill="none" xmlns="http://www.w3.org/2000/svg">
<path fill-rule="evenodd" clip-rule="evenodd" d="M1.99991 16.0801V7.91012C1.99991 4.38012 4.27091 2.00012 7.65991 2.00012H16.3299C19.7199 2.00012 21.9999 4.38012 21.9999 7.91012V16.0801C21.9999 19.6201 19.7199 22.0001 16.3299 22.0001H7.65991C4.27091 22.0001 1.99991 19.6201 1.99991 16.0801ZM12.7499 14.2701V7.92012C12.7499 7.50012 12.4099 7.17012 11.9999 7.17012C11.5799 7.17012 11.2499 7.50012 11.2499 7.92012V14.2701L8.77991 11.7901C8.63991 11.6501 8.43991 11.5701 8.24991 11.5701C8.06091 11.5701 7.86991 11.6501 7.71991 11.7901C7.42991 12.0801 7.42991 12.5601 7.71991 12.8501L11.4699 16.6201C11.7499 16.9001 12.2499 16.9001 12.5299 16.6201L16.2799 12.8501C16.5699 12.5601 16.5699 12.0801 16.2799 11.7901C15.9799 11.5001 15.5099 11.5001 15.2099 11.7901L12.7499 14.2701Z" fill="fillColor"/>
</svg>
