<svg width="24" height="24" viewBox="0 0 24 24" fill="none" xmlns="http://www.w3.org/2000/svg">
<path fill-rule="evenodd" clip-rule="evenodd" d="M17.0107 14.6011C17.4247 14.6011 17.7607 14.2651 17.7607 13.8511V11.9991C17.7607 11.5851 17.4247 11.2491 17.0107 11.2491H11.3187C10.9947 10.1821 10.0127 9.39815 8.84069 9.39815C7.40669 9.39815 6.23969 10.5651 6.23969 11.9991C6.23969 13.4341 7.40669 14.6011 8.84069 14.6011C10.0127 14.6011 10.9947 13.8171 11.3187 12.7491H13.4307V13.8511C13.4307 14.2651 13.7667 14.6011 14.1807 14.6011C14.5947 14.6011 14.9307 14.2651 14.9307 13.8511V12.7491H16.2607V13.8511C16.2607 14.2651 16.5967 14.6011 17.0107 14.6011ZM7.66569 1.99915H16.3347C19.7227 1.99915 21.9997 4.37715 21.9997 7.91615V16.0831C21.9997 19.6221 19.7227 21.9991 16.3337 21.9991H7.66569C4.27669 21.9991 1.99969 19.6221 1.99969 16.0831V7.91615C1.99969 4.37715 4.27669 1.99915 7.66569 1.99915ZM7.73879 12C7.73879 11.392 8.23379 10.898 8.84079 10.898C9.44779 10.898 9.94279 11.392 9.94279 12C9.94279 12.607 9.44779 13.101 8.84079 13.101C8.23379 13.101 7.73879 12.607 7.73879 12Z" fill="fillColor"/>
</svg>
