<svg width="24" height="24" viewBox="0 0 24 24" fill="none" xmlns="http://www.w3.org/2000/svg">
<path fill-rule="evenodd" clip-rule="evenodd" d="M21.3748 3.86954V3.85937C21.7019 3.5138 21.7019 2.97511 21.3748 2.62954C21.2162 2.46691 20.9982 2.36426 20.7702 2.36426C20.5422 2.36426 20.3242 2.46691 20.1755 2.62954L2.21532 21.0568C2.18559 21.0873 2.16576 21.1167 2.14594 21.1482L2.1162 21.1889C1.92788 21.5141 1.96753 21.9512 2.24506 22.246C2.42347 22.4086 2.63162 22.5 2.84968 22.5C3.06774 22.5 3.27588 22.4086 3.44438 22.246L8.80604 16.7479C16.2065 23.9876 18.6904 21.3327 19.2651 20.7184C19.3032 20.6777 19.3329 20.646 19.3551 20.6267C22.0221 17.9051 21.2876 17.1915 19.4481 15.4043L19.4481 15.4043C19.1912 15.1548 18.9128 14.8843 18.6191 14.5845C17.5132 13.4606 16.724 13.7447 15.8469 14.0604C14.8813 14.408 13.8091 14.794 12.0903 13.3825L11.5626 13.9213L11.9586 13.5151L21.3748 3.86954ZM6.18522 14.2053C0.192298 7.41512 2.57578 5.06046 3.15892 4.48437C3.20159 4.44221 3.23463 4.40958 3.25403 4.38543C5.941 1.66026 6.6402 2.40738 8.39093 4.27807C8.63966 4.54384 8.90961 4.83228 9.2095 5.13668C10.315 6.26409 10.0387 7.07037 9.73134 7.9674C9.47402 8.71842 9.19489 9.53305 9.68657 10.653L6.18522 14.2053Z" fill="fillColor"/>
</svg>
