<svg width="24" height="24" viewBox="0 0 24 24" fill="none" xmlns="http://www.w3.org/2000/svg">
<path fill-rule="evenodd" clip-rule="evenodd" d="M7.6374 3.39537C5.0604 3.39537 3.3954 5.16237 3.3954 7.88837V16.1024C3.3954 16.8674 3.5374 17.5504 3.7804 18.1414C3.79089 18.1288 4.01976 17.8499 4.31832 17.4861C4.9018 16.7751 5.75145 15.7397 5.7574 15.7344C6.4494 14.9444 7.7484 13.7664 9.4534 14.4794C9.82701 14.6343 10.1591 14.8465 10.4648 15.0418C10.4946 15.0609 10.5241 15.0797 10.5534 15.0984C11.1264 15.4814 11.4634 15.6614 11.8134 15.6314C11.9584 15.6114 12.0944 15.5684 12.2234 15.4884C12.71 15.1884 13.9716 13.4008 14.3494 12.8654C14.4048 12.7869 14.4412 12.7354 14.4534 12.7194C15.5434 11.2994 17.2234 10.9194 18.6234 11.7594C18.8114 11.8714 20.1584 12.8124 20.6044 13.1904V7.88837C20.6044 5.16237 18.9394 3.39537 16.3534 3.39537H7.6374ZM16.3534 2.00037C19.7304 2.00037 21.9994 4.36237 21.9994 7.88837V16.1024C21.9994 16.191 21.9901 16.2742 21.9808 16.3573C21.9742 16.4157 21.9677 16.4741 21.9644 16.5344C21.9623 16.5708 21.9612 16.6072 21.9602 16.6436C21.9588 16.6922 21.9574 16.7408 21.9534 16.7894C21.9514 16.8084 21.9476 16.8266 21.9439 16.8449C21.9401 16.8631 21.9364 16.8814 21.9344 16.9004C21.9014 17.2144 21.8504 17.5144 21.7794 17.8054C21.7626 17.8781 21.7432 17.9482 21.7237 18.0189L21.7194 18.0344C21.6394 18.3164 21.5454 18.5854 21.4324 18.8424C21.4126 18.8856 21.3917 18.9277 21.3708 18.9698C21.3569 18.9979 21.343 19.026 21.3294 19.0544C21.2074 19.2994 21.0754 19.5344 20.9224 19.7524C20.8941 19.7927 20.864 19.8305 20.8338 19.8684C20.8139 19.8934 20.7939 19.9185 20.7744 19.9444C20.6154 20.1504 20.4494 20.3474 20.2614 20.5264C20.2239 20.5621 20.1833 20.5947 20.1427 20.6274C20.1174 20.6478 20.092 20.6682 20.0674 20.6894C19.8744 20.8554 19.6774 21.0144 19.4604 21.1504C19.413 21.1801 19.3627 21.2051 19.3126 21.2299C19.2802 21.246 19.2478 21.2621 19.2164 21.2794C18.9954 21.4014 18.7724 21.5204 18.5294 21.6124C18.4709 21.6346 18.4087 21.6506 18.3463 21.6667C18.302 21.6782 18.2576 21.6897 18.2144 21.7034C18.1928 21.7101 18.1711 21.7168 18.1495 21.7235C17.9325 21.791 17.7161 21.8584 17.4824 21.8984C17.347 21.9221 17.2033 21.9312 17.0595 21.9403C16.9972 21.9443 16.935 21.9482 16.8734 21.9534C16.8072 21.9583 16.7422 21.9663 16.6772 21.9743C16.5715 21.9873 16.4655 22.0004 16.3534 22.0004H7.6374C7.2614 22.0004 6.9024 21.9624 6.5554 21.9054C6.5424 21.9034 6.5304 21.9014 6.5184 21.8994C5.1654 21.6664 4.0424 21.0134 3.2554 20.0284C3.24993 20.0284 3.24779 20.0247 3.24493 20.0198C3.24308 20.0166 3.24093 20.0129 3.2374 20.0094C2.4464 19.0134 1.9994 17.6744 1.9994 16.1024V7.88837C1.9994 4.36237 4.2704 2.00037 7.6374 2.00037H16.3534ZM11 8.51493C11 9.86988 9.86628 11 8.50484 11C7.30814 11 6.28779 10.1256 6.05911 8.9936C6.02132 8.82375 6 8.64907 6 8.4686C6 7.104 7.10853 5.99997 8.47868 5.99997C9.17636 5.99997 9.80814 6.29335 10.2607 6.7614C10.7151 7.21305 11 7.83552 11 8.51493Z" fill="fillColor"/>
</svg>
