<svg width="24" height="24" viewBox="0 0 24 24" fill="none" xmlns="http://www.w3.org/2000/svg">
<path fill-rule="evenodd" clip-rule="evenodd" d="M2.00011 11.9999C2.00011 6.47988 6.47011 1.99988 12.0001 1.99988C17.5201 1.99988 22.0001 6.47988 22.0001 11.9999C22.0001 17.5199 17.5201 21.9999 12.0001 21.9999C6.47011 21.9999 2.00011 17.5199 2.00011 11.9999ZM7.52011 13.1999C6.86011 13.1999 6.32011 12.6599 6.32011 11.9999C6.32011 11.3399 6.86011 10.8009 7.52011 10.8009C8.18011 10.8009 8.71011 11.3399 8.71011 11.9999C8.71011 12.6599 8.18011 13.1999 7.52011 13.1999ZM10.8001 11.9999C10.8001 12.6599 11.3401 13.1999 12.0001 13.1999C12.6601 13.1999 13.1901 12.6599 13.1901 11.9999C13.1901 11.3399 12.6601 10.8009 12.0001 10.8009C11.3401 10.8009 10.8001 11.3399 10.8001 11.9999ZM15.2801 11.9999C15.2801 12.6599 15.8101 13.1999 16.4801 13.1999C17.1401 13.1999 17.6701 12.6599 17.6701 11.9999C17.6701 11.3399 17.1401 10.8009 16.4801 10.8009C15.8101 10.8009 15.2801 11.3399 15.2801 11.9999Z" fill="fillColor"/>
</svg>
