<svg width="24" height="24" viewBox="0 0 24 24" fill="none" xmlns="http://www.w3.org/2000/svg">
<path fill-rule="evenodd" clip-rule="evenodd" d="M2.00009 11.9998C2.00009 6.48482 6.48609 1.99982 12.0001 1.99982C17.5141 1.99982 22.0001 6.48482 22.0001 11.9998C22.0001 17.5138 17.5141 21.9998 12.0001 21.9998C10.6051 21.9998 9.25509 21.7188 7.98709 21.1618C7.62109 21.0018 7.45509 20.5748 7.61509 20.2088C7.77509 19.8408 8.20109 19.6758 8.56909 19.8368C9.65209 20.3118 10.8061 20.5528 12.0001 20.5528C16.7151 20.5528 20.5521 16.7148 20.5521 11.9998C20.5521 7.28382 16.7151 3.44782 12.0001 3.44782C7.28409 3.44782 3.44809 7.28382 3.44809 11.9998C3.44809 13.8468 4.02609 15.6038 5.12209 17.0838C5.35909 17.4048 5.29209 17.8578 4.97109 18.0958C4.64909 18.3348 4.19609 18.2688 3.95809 17.9448C2.67709 16.2158 2.00009 14.1598 2.00009 11.9998ZM10.8199 15.9692H10.8559C11.1489 15.9622 11.7549 15.7102 11.7609 15.7072C12.7789 15.2782 14.7939 13.9542 15.6079 13.0782L15.6569 13.0262C15.7569 12.9202 15.9059 12.7552 15.9409 12.7082C16.0909 12.5012 16.1709 12.2552 16.1709 12.0002C16.1709 11.7312 16.0799 11.4662 15.9129 11.2532C15.8859 11.2192 15.7699 11.0932 15.6759 10.9942L15.5969 10.9092C14.8049 10.0642 12.7429 8.67322 11.6599 8.25322C11.4949 8.18822 11.0869 8.03622 10.8639 8.03022C10.6519 8.02722 10.4469 8.07222 10.2509 8.17522C10.0079 8.30722 9.81594 8.51922 9.71394 8.76622C9.63894 8.94222 9.53894 9.46522 9.53794 9.47322C9.43294 10.0522 9.37294 10.9732 9.37494 11.9992C9.37294 12.9692 9.42694 13.8582 9.52194 14.4362C9.52294 14.4422 9.63594 15.0892 9.75394 15.3182C9.95994 15.7162 10.3779 15.9692 10.8199 15.9692ZM10.9619 9.73322C10.9699 9.68722 10.9839 9.61922 10.9989 9.55022C11.0529 9.57022 11.1009 9.58822 11.1319 9.60022C11.9989 9.93722 13.9099 11.2252 14.5369 11.8962L14.6209 11.9852C14.6234 11.9877 14.6257 11.9902 14.6279 11.9927L14.628 11.9927C14.6302 11.9952 14.6325 11.9977 14.6349 12.0002C14.6239 12.0102 14.6139 12.0212 14.6049 12.0312C14.6039 12.0332 14.5519 12.0922 14.5469 12.0912C13.9399 12.7472 12.1259 13.9822 11.1999 14.3722C11.1761 14.382 11.1454 14.3938 11.1118 14.4068L11.1117 14.4068C11.0764 14.4205 11.0379 14.4353 11.0009 14.4502C10.9799 14.3582 10.9609 14.2632 10.9509 14.2012C10.8689 13.7062 10.8209 12.8822 10.8219 11.9992C10.8209 11.0832 10.8749 10.2142 10.9619 9.73322Z" fill="fillColor"/>
</svg>
