<svg width="24" height="24" viewBox="0 0 24 24" fill="none" xmlns="http://www.w3.org/2000/svg">
<path fill-rule="evenodd" clip-rule="evenodd" d="M1.9999 11.9998C1.9999 6.48482 6.4859 1.99982 11.9999 1.99982C17.5139 1.99982 21.9999 6.48482 21.9999 11.9998C21.9999 17.5138 17.5139 21.9998 11.9999 21.9998C8.8729 21.9998 5.9829 20.5768 4.0729 18.0978C3.8279 17.7788 3.8869 17.3218 4.2059 17.0778C4.5229 16.8318 4.9789 16.8928 5.2249 17.2098C6.8579 19.3298 9.3269 20.5458 11.9999 20.5458C16.7119 20.5458 20.5459 16.7128 20.5459 11.9998C20.5459 7.28782 16.7119 3.45382 11.9999 3.45382C7.2879 3.45382 3.4539 7.28782 3.4539 11.9998C3.4539 12.4378 3.4869 12.8728 3.5519 13.2988C3.6119 13.6948 3.3399 14.0658 2.9429 14.1268C2.5439 14.1928 2.1749 13.9158 2.1149 13.5188C2.0389 13.0208 1.9999 12.5098 1.9999 11.9998ZM11.9999 7.45392C11.5859 7.45392 11.2499 7.78992 11.2499 8.20392V12.6239C11.2499 13.0379 11.5859 13.3739 11.9999 13.3739C12.4139 13.3739 12.7499 13.0379 12.7499 12.6239V8.20392C12.7499 7.78992 12.4139 7.45392 11.9999 7.45392ZM12.0101 15.0457H12.0001C11.5861 15.0457 11.2551 15.3817 11.2551 15.7957C11.2551 16.2097 11.5961 16.5457 12.0101 16.5457C12.4241 16.5457 12.7601 16.2097 12.7601 15.7957C12.7601 15.3817 12.4241 15.0457 12.0101 15.0457Z" fill="fillColor"/>
</svg>
