<svg width="24" height="24" viewBox="0 0 24 24" fill="none" xmlns="http://www.w3.org/2000/svg">
<path fill-rule="evenodd" clip-rule="evenodd" d="M21.7494 17.1857C21.7664 17.2147 21.7804 17.2457 21.7934 17.2767C21.9124 17.5697 21.9804 17.8787 21.9974 18.1947C22.0364 18.9497 21.7794 19.6737 21.2724 20.2357C20.7664 20.7977 20.0714 21.1287 19.3164 21.1667L8.5594 21.1677C8.1454 21.1677 7.8094 20.8317 7.8094 20.4177C7.8094 20.0037 8.1454 19.6677 8.5594 19.6677H19.2784C19.5944 19.6497 19.9204 19.4957 20.1594 19.2307C20.3974 18.9667 20.5174 18.6277 20.4994 18.2727C20.4924 18.1387 20.4654 18.0067 20.4184 17.8807L13.1694 5.19469C12.8104 4.54569 11.9994 4.31169 11.3574 4.66669C11.1384 4.78769 10.9594 4.96669 10.8384 5.18569L3.5834 17.8817C3.4664 18.1997 3.4744 18.5447 3.6064 18.8577C3.7444 19.1847 4.0014 19.4387 4.3304 19.5717C4.4694 19.6287 4.6134 19.6607 4.7624 19.6687C5.1754 19.6887 5.4944 20.0417 5.4734 20.4557C5.4534 20.8557 5.1214 21.1677 4.7244 21.1677C4.7114 21.1677 4.6994 21.1677 4.6864 21.1667C4.3684 21.1507 4.0584 21.0817 3.7644 20.9617C3.0664 20.6777 2.5194 20.1377 2.2254 19.4417C1.9304 18.7457 1.9254 17.9757 2.2104 17.2757C2.2224 17.2447 2.2364 17.2147 2.2534 17.1857L9.5304 4.45069C9.7824 3.99469 10.1654 3.61269 10.6304 3.35369C11.9974 2.59769 13.7224 3.09369 14.4774 4.45969L21.7494 17.1857ZM12.0014 13.598C12.4154 13.598 12.7514 13.262 12.7514 12.848V10.021C12.7514 9.60699 12.4154 9.27099 12.0014 9.27099C11.5874 9.27099 11.2514 9.60699 11.2514 10.021V12.848C11.2514 13.262 11.5874 13.598 12.0014 13.598ZM12.0014 17.0189C12.4154 17.0189 12.7514 16.6829 12.7514 16.2689V16.2589C12.7514 15.8449 12.4154 15.5139 12.0014 15.5139C11.5874 15.5139 11.2514 15.8549 11.2514 16.2689C11.2514 16.6829 11.5874 17.0189 12.0014 17.0189Z" fill="fillColor"/>
</svg>
