<svg width="24" height="24" viewBox="0 0 24 24" fill="none" xmlns="http://www.w3.org/2000/svg">
<path fill-rule="evenodd" clip-rule="evenodd" d="M7.6413 22H16.3583C19.7323 22 22.0003 19.632 22.0003 16.107L21.9993 14.692C21.9993 14.48 21.9033 14.28 21.7373 14.147C21.5181 13.9723 21.2931 13.777 21.0622 13.5768L21.0533 13.569L21.0465 13.5631C19.8116 12.4961 18.2767 11.1698 16.3483 11.619C14.9507 11.9434 14.2338 13.0013 13.6016 13.9341L13.5983 13.939L13.597 13.9409C13.1775 14.5612 12.7817 15.1463 12.2293 15.487C11.6863 15.825 11.0403 15.584 10.1163 15.18L9.9593 15.11C8.2733 14.376 6.8903 14.587 5.7293 15.757C5.4583 16.03 5.4603 16.473 5.7333 16.744C6.0063 17.017 6.4483 17.013 6.7193 16.74C7.4663 15.987 8.2443 15.885 9.4023 16.391L9.5563 16.458L9.55782 16.4587C10.4877 16.8646 11.759 17.4196 12.9633 16.674C13.7703 16.174 14.2703 15.436 14.7533 14.722L14.7537 14.7215C15.3135 13.8947 15.7975 13.18 16.6643 12.979C17.9046 12.6922 19.0391 13.6729 20.1385 14.6234L20.1403 14.625C20.1564 14.639 20.1726 14.6529 20.1886 14.6669C20.3291 14.7887 20.4679 14.9089 20.6043 15.022V16.107C20.6043 18.84 18.9373 20.604 16.3583 20.604H7.6413C5.0623 20.604 3.3953 18.84 3.3953 16.107V7.893C3.3953 5.16 5.0623 3.396 7.6413 3.396H16.3593C18.9383 3.396 20.6043 5.16 20.6043 7.893V10.263C20.6043 10.648 20.9173 10.961 21.3023 10.961C21.6873 10.961 22.0003 10.648 22.0003 10.263V7.893C22.0003 4.368 19.7333 2 16.3593 2H7.6413C4.2673 2 2.0003 4.368 2.0003 7.893V16.107C2.0003 19.632 4.2673 22 7.6413 22ZM8.8539 11.3391C7.4429 11.3391 6.2959 10.1911 6.2959 8.7801C6.2959 7.3701 7.4429 6.2221 8.8539 6.2221C10.2649 6.2221 11.4119 7.3701 11.4119 8.7801C11.4119 10.1911 10.2649 11.3391 8.8539 11.3391ZM8.8539 7.6181C8.2129 7.6181 7.6909 8.1391 7.6909 8.7801C7.6909 9.4221 8.2129 9.9431 8.8539 9.9431C9.4959 9.9431 10.0169 9.4221 10.0169 8.7801C10.0169 8.1391 9.4959 7.6181 8.8539 7.6181Z" fill="fillColor"/>
</svg>
