<svg width="24" height="24" viewBox="0 0 24 24" fill="none" xmlns="http://www.w3.org/2000/svg">
<path fill-rule="evenodd" clip-rule="evenodd" d="M7.6654 1.99982H16.3344C19.7234 1.99982 22.0004 4.37782 22.0004 7.91582V16.0838C22.0004 19.6218 19.7224 21.9998 16.3334 21.9998H10.9534C10.5394 21.9998 10.2034 21.6638 10.2034 21.2498C10.2034 20.8358 10.5394 20.4998 10.9534 20.4998H16.3334C18.8644 20.4998 20.5004 18.7668 20.5004 16.0838V7.91582C20.5004 5.23282 18.8644 3.49982 16.3344 3.49982H7.6654C5.1354 3.49982 3.5004 5.23282 3.5004 7.91582V16.0838C3.5004 18.7668 5.1354 20.4998 7.6654 20.4998C8.0794 20.4998 8.4154 20.8358 8.4154 21.2498C8.4154 21.6638 8.0794 21.9998 7.6654 21.9998C4.2764 21.9998 2.0004 19.6218 2.0004 16.0838V7.91582C2.0004 4.37782 4.2764 1.99982 7.6654 1.99982ZM6.4674 10.9324C6.6374 10.5544 7.0794 10.3854 7.4594 10.5564C7.8374 10.7254 8.0054 11.1694 7.8354 11.5474C7.7714 11.6904 7.7394 11.8424 7.7394 11.9994C7.7394 12.6074 8.2334 13.1014 8.8404 13.1014C9.4484 13.1014 9.9424 12.6074 9.9424 11.9994C9.9424 11.3924 9.4484 10.8984 8.8404 10.8984C8.4264 10.8984 8.0904 10.5624 8.0904 10.1484C8.0904 9.73442 8.4264 9.39842 8.8404 9.39842C10.0134 9.39842 10.9944 10.1824 11.3184 11.2494H17.0104C17.4244 11.2494 17.7604 11.5854 17.7604 11.9994V13.8514C17.7604 14.2654 17.4244 14.6014 17.0104 14.6014C16.5964 14.6014 16.2604 14.2654 16.2604 13.8514V12.7494H14.9314V13.8514C14.9314 14.2654 14.5954 14.6014 14.1814 14.6014C13.7674 14.6014 13.4314 14.2654 13.4314 13.8514V12.7494H11.3184C10.9944 13.8174 10.0134 14.6014 8.8404 14.6014C7.4064 14.6014 6.2394 13.4344 6.2394 11.9994C6.2394 11.6284 6.3154 11.2704 6.4674 10.9324Z" fill="fillColor"/>
</svg>
