<svg width="24" height="24" viewBox="0 0 24 24" fill="none" xmlns="http://www.w3.org/2000/svg">
<path fill-rule="evenodd" clip-rule="evenodd" d="M9.05688 17.2407C9.05688 17.6389 9.36827 17.9631 9.75167 17.9631C10.1351 17.9631 10.4465 17.6389 10.4465 17.2407V13.6554C10.4465 13.4718 10.3799 13.2956 10.2584 13.1607L4.53177 6.79326C4.44087 6.69206 4.38957 6.55806 4.38957 6.41937V4.99502C4.38957 4.69422 4.62627 4.44777 4.91606 4.44777H7.69611C8.0795 4.44777 8.39089 4.12355 8.39089 3.72436C8.39089 3.32516 8.0795 3 7.69611 3H4.91606C3.85948 3 3 3.8949 3 4.99502V6.41937C3 6.9282 3.1836 7.41173 3.51749 7.78375L9.05688 13.9412V17.2407ZM9.20034 20.5865C9.31823 20.847 9.56933 21 9.83122 21C9.92932 21 10.0292 20.9787 10.1237 20.9333L14.0125 19.0699C14.2564 18.953 14.4139 18.7009 14.4139 18.4218V13.8412L20.4249 7.76064C20.7903 7.39259 21 6.879 21 6.35243V4.97389C21 3.88552 20.1396 3.00018 19.083 3.00018H11.0741C10.6907 3.00018 10.3793 3.32187 10.3793 3.71587C10.3793 4.11172 10.6907 4.43249 11.0741 4.43249H19.083C19.3737 4.43249 19.6095 4.6763 19.6095 4.97389V6.35243C19.6095 6.49612 19.5528 6.63704 19.452 6.73809L13.2323 13.031C13.0991 13.1654 13.0235 13.3499 13.0235 13.5418V17.9648L9.53783 19.6344C9.18954 19.8013 9.03924 20.2268 9.20034 20.5865Z" fill="fillColor"/>
</svg>
