<svg width="24" height="24" viewBox="0 0 24 24" fill="none" xmlns="http://www.w3.org/2000/svg">
<path fill-rule="evenodd" clip-rule="evenodd" d="M3.00034 6.52797C3.00034 8.47287 4.60301 10.0559 6.57451 10.0559C8.546 10.0559 10.1487 8.47287 10.1487 6.52797C10.1487 4.58196 8.546 3 6.57451 3C6.30292 3 6.03358 3.02979 5.77205 3.09046C5.32053 3.19306 5.04 3.63874 5.14506 4.08332C5.25012 4.5279 5.69941 4.80811 6.15204 4.7011C6.28839 4.67021 6.43145 4.65477 6.57451 4.65477C7.62172 4.65477 8.47224 5.49429 8.47224 6.52797C8.47224 7.56054 7.62172 8.40117 6.57451 8.40117C5.52729 8.40117 4.67678 7.56054 4.67678 6.52797C4.67678 6.42206 4.68572 6.31726 4.70248 6.21687C4.7796 5.76567 4.47002 5.33984 4.01402 5.26372C3.55244 5.19202 3.12551 5.49319 3.04951 5.94439C3.0171 6.13413 3.00034 6.3294 3.00034 6.52797ZM14.2893 7.35502H21.1616C21.6243 7.35502 21.9998 6.98435 21.9998 6.52764C21.9998 6.07092 21.6243 5.70025 21.1616 5.70025H14.2893C13.8266 5.70025 13.451 6.07092 13.451 6.52764C13.451 6.98435 13.8266 7.35502 14.2893 7.35502ZM10.7116 18.3492H3.83822C3.37552 18.3492 3 17.9785 3 17.5218C3 17.0651 3.37552 16.6944 3.83822 16.6944H10.7116C11.1743 16.6944 11.5498 17.0651 11.5498 17.5218C11.5498 17.9785 11.1743 18.3492 10.7116 18.3492ZM14.8517 17.522C14.8517 19.4669 16.4543 21.05 18.4258 21.05C20.3962 21.05 22 19.4669 22 17.522C22 17.3235 21.9832 17.1282 21.9508 16.9385C21.8748 16.4873 21.4412 16.1828 20.9863 16.2578C20.5303 16.3339 20.2207 16.7597 20.2979 17.2109C20.3146 17.3113 20.3236 17.4161 20.3236 17.522C20.3236 18.5546 19.4719 19.3952 18.4258 19.3952C17.3786 19.3952 16.5281 18.5546 16.5281 17.522C16.5281 16.3471 17.6904 15.4326 18.8528 15.6952C19.3032 15.7978 19.7525 15.5165 19.8564 15.0719C19.9592 14.6273 19.6753 14.1827 19.2238 14.0823C18.9623 14.0239 18.6941 13.9941 18.4258 13.9941C16.4543 13.9941 14.8517 15.576 14.8517 17.522Z" fill="fillColor"/>
</svg>
