<svg width="24" height="24" viewBox="0 0 24 24" fill="none" xmlns="http://www.w3.org/2000/svg">
<path opacity="0.4" d="M22.0002 11.9998C22.0002 17.5238 17.5232 21.9998 12.0002 21.9998C6.4772 21.9998 2.0002 17.5238 2.0002 11.9998C2.0002 6.47776 6.4772 1.99976 12.0002 1.99976C17.5232 1.99976 22.0002 6.47776 22.0002 11.9998Z" fill="fillColor"/>
<path fill-rule="evenodd" clip-rule="evenodd" d="M7.5211 10.8035C6.8601 10.8035 6.3231 11.3405 6.3231 11.9995C6.3231 12.6595 6.8601 13.1975 7.5211 13.1975C8.1821 13.1975 8.7191 12.6595 8.7191 11.9995C8.7191 11.3405 8.1821 10.8035 7.5211 10.8035ZM12.0002 10.8035C11.3392 10.8035 10.8022 11.3405 10.8022 11.9995C10.8022 12.6595 11.3392 13.1975 12.0002 13.1975C12.6612 13.1975 13.1982 12.6595 13.1982 11.9995C13.1982 11.3405 12.6612 10.8035 12.0002 10.8035ZM15.2816 11.9995C15.2816 11.3405 15.8186 10.8035 16.4796 10.8035C17.1406 10.8035 17.6776 11.3405 17.6776 11.9995C17.6776 12.6595 17.1406 13.1975 16.4796 13.1975C15.8186 13.1975 15.2816 12.6595 15.2816 11.9995Z" fill="fillColor"/>
</svg>
