<svg width="24" height="24" viewBox="0 0 24 24" fill="none" xmlns="http://www.w3.org/2000/svg">
<path opacity="0.4" d="M17.554 7.29614C20.005 7.29614 22 9.35594 22 11.8876V16.9199C22 19.4453 20.01 21.5 17.564 21.5L6.448 21.5C3.996 21.5 2 19.4412 2 16.9096V11.8773C2 9.35181 3.991 7.29614 6.438 7.29614H7.378L17.554 7.29614Z" fill="fillColor"/>
<path d="M12.5462 16.0374L15.4552 13.0695C15.7552 12.7627 15.7552 12.2691 15.4532 11.9634C15.1512 11.6587 14.6642 11.6597 14.3642 11.9654L12.7712 13.5905L12.7712 3.2821C12.7712 2.85042 12.4262 2.5 12.0002 2.5C11.5752 2.5 11.2312 2.85042 11.2312 3.2821L11.2312 13.5905L9.63721 11.9654C9.33721 11.6597 8.85021 11.6587 8.54821 11.9634C8.39721 12.1168 8.32121 12.3168 8.32121 12.518C8.32121 12.717 8.39721 12.9171 8.54621 13.0695L11.4552 16.0374C11.6002 16.1847 11.7962 16.268 12.0002 16.268C12.2052 16.268 12.4012 16.1847 12.5462 16.0374Z" fill="fillColor"/>
</svg>
