<svg width="24" height="24" viewBox="0 0 24 24" fill="none" xmlns="http://www.w3.org/2000/svg">
<g clip-path="url(#clip0_430_9529)">
<path opacity="0.4" d="M1.99991 7.91588V16.0839C1.99991 19.6229 4.27591 21.9999 7.66491 21.9999H16.3349C19.7239 21.9999 21.9999 19.6229 21.9999 16.0839V7.91588C21.9999 4.37788 19.7229 1.99988 16.3339 1.99988H7.66491C4.27591 1.99988 1.99991 4.37788 1.99991 7.91588Z" fill="fillColor"/>
<path d="M7.72063 12.8553L11.4686 16.6203C11.7506 16.9033 12.2496 16.9033 12.5326 16.6203L16.2806 12.8553C16.5726 12.5613 16.5716 12.0863 16.2776 11.7943C15.9836 11.5023 15.5096 11.5023 15.2166 11.7963L12.7496 14.2733V7.91833C12.7496 7.50333 12.4136 7.16833 11.9996 7.16833C11.5856 7.16833 11.2496 7.50333 11.2496 7.91833V14.2733L8.78363 11.7963C8.63663 11.6493 8.44463 11.5763 8.25163 11.5763C8.06063 11.5763 7.86863 11.6493 7.72263 11.7943C7.42963 12.0863 7.42863 12.5613 7.72063 12.8553Z" fill="fillColor"/>
</g>
<defs>
<clipPath id="clip0_430_9529">
<rect width="24" height="24" fill="white"/>
</clipPath>
</defs>
</svg>
