<svg width="24" height="24" viewBox="0 0 24 24" fill="none" xmlns="http://www.w3.org/2000/svg">
<g clip-path="url(#clip0_430_9519)">
<path opacity="0.4" d="M16.0841 1.99988L7.91612 1.99988C4.37712 1.99988 2.00012 4.27588 2.00012 7.66488L2.00012 16.3349C2.00012 19.7239 4.37712 21.9999 7.91612 21.9999L16.0841 21.9999C19.6221 21.9999 22.0001 19.7229 22.0001 16.3339L22.0001 7.66488C22.0001 4.27588 19.6221 1.99988 16.0841 1.99988Z" fill="fillColor"/>
<path d="M11.1446 7.72057L7.3796 11.4686C7.0966 11.7506 7.0966 12.2496 7.3796 12.5326L11.1446 16.2806C11.4386 16.5726 11.9136 16.5716 12.2056 16.2776C12.4976 15.9836 12.4976 15.5096 12.2036 15.2166L9.7266 12.7496H16.0816C16.4966 12.7496 16.8316 12.4136 16.8316 11.9996C16.8316 11.5856 16.4966 11.2496 16.0816 11.2496L9.7266 11.2496L12.2036 8.78357C12.3506 8.63657 12.4236 8.44457 12.4236 8.25157C12.4236 8.06057 12.3506 7.86857 12.2056 7.72257C11.9136 7.42957 11.4386 7.42857 11.1446 7.72057Z" fill="fillColor"/>
</g>
<defs>
<clipPath id="clip0_430_9519">
<rect width="24" height="24" fill="white"/>
</clipPath>
</defs>
</svg>
