<svg width="24" height="24" viewBox="0 0 24 24" fill="none" xmlns="http://www.w3.org/2000/svg">
<g clip-path="url(#clip0_430_9505)">
<path opacity="0.4" d="M1.99979 12.0001C1.99979 6.48512 6.48579 2.00012 11.9998 2.00012C17.5138 2.00012 21.9998 6.48512 21.9998 12.0001C21.9998 17.5141 17.5138 22.0001 11.9998 22.0001C6.48579 22.0001 1.99979 17.5141 1.99979 12.0001Z" fill="fillColor"/>
<path d="M7.77908 13.4425C7.77908 13.2515 7.85208 13.0595 7.99808 12.9135L11.4681 9.42652C11.6091 9.28552 11.8001 9.20652 12.0001 9.20652C12.1991 9.20652 12.3901 9.28552 12.5311 9.42652L16.0031 12.9135C16.2951 13.2065 16.2951 13.6805 16.0011 13.9735C15.7071 14.2655 15.2321 14.2645 14.9401 13.9715L12.0001 11.0185L9.06008 13.9715C8.76808 14.2645 8.29408 14.2655 8.00008 13.9735C7.85208 13.8275 7.77908 13.6345 7.77908 13.4425Z" fill="fillColor"/>
</g>
<defs>
<clipPath id="clip0_430_9505">
<rect width="24" height="24" fill="white"/>
</clipPath>
</defs>
</svg>
