<svg width="24" height="24" viewBox="0 0 24 24" fill="none" xmlns="http://www.w3.org/2000/svg">
<path opacity="0.4" d="M19.6433 9.48838C19.6433 9.55638 19.1103 16.2971 18.8059 19.134C18.6153 20.875 17.493 21.9309 15.8095 21.9609C14.516 21.9899 13.2497 21.9999 12.0039 21.9999C10.6812 21.9999 9.38772 21.9899 8.13215 21.9609C6.50507 21.9219 5.38177 20.845 5.20088 19.134C4.88772 16.2871 4.36448 9.55638 4.35476 9.48838C4.34503 9.28339 4.41117 9.0884 4.54538 8.9304C4.67765 8.78441 4.86827 8.69641 5.06861 8.69641H18.9392C19.1385 8.69641 19.3194 8.78441 19.4624 8.9304C19.5956 9.0884 19.6627 9.28339 19.6433 9.48838Z" fill="fillColor"/>
<path d="M21 5.97686C21 5.56588 20.6761 5.24389 20.2871 5.24389H17.3714C16.7781 5.24389 16.2627 4.8219 16.1304 4.22692L15.967 3.49795C15.7385 2.61698 14.9498 2 14.0647 2H9.93624C9.0415 2 8.26054 2.61698 8.02323 3.54595L7.87054 4.22792C7.7373 4.8219 7.22185 5.24389 6.62957 5.24389H3.71385C3.32386 5.24389 3 5.56588 3 5.97686V6.35685C3 6.75783 3.32386 7.08982 3.71385 7.08982H20.2871C20.6761 7.08982 21 6.75783 21 6.35685V5.97686Z" fill="fillColor"/>
</svg>
