<svg width="24" height="24" viewBox="0 0 24 24" fill="none" xmlns="http://www.w3.org/2000/svg">
<path opacity="0.4" d="M2.00021 11.0785C2.05021 13.4165 2.19021 17.4155 2.21021 17.8565C2.28121 18.7995 2.64221 19.7525 3.20421 20.4245C3.98621 21.3675 4.94921 21.7885 6.29221 21.7885C8.14821 21.7985 10.1942 21.7985 12.1812 21.7985C14.1762 21.7985 16.1122 21.7985 17.7472 21.7885C19.0712 21.7885 20.0642 21.3565 20.8362 20.4245C21.3982 19.7525 21.7592 18.7895 21.8102 17.8565C21.8302 17.4855 21.9302 13.1445 21.9902 11.0785H2.00021Z" fill="fillColor"/>
<path d="M11.2454 15.3842V16.6782C11.2454 17.0922 11.5814 17.4282 11.9954 17.4282C12.4094 17.4282 12.7454 17.0922 12.7454 16.6782V15.3842C12.7454 14.9702 12.4094 14.6342 11.9954 14.6342C11.5814 14.6342 11.2454 14.9702 11.2454 15.3842Z" fill="fillColor"/>
<path fill-rule="evenodd" clip-rule="evenodd" d="M10.2113 14.5564C10.1113 14.9194 9.7623 15.1514 9.38431 15.1014C6.8333 14.7454 4.39531 13.8404 2.33731 12.4814C2.12631 12.3434 2.00031 12.1074 2.00031 11.8554V8.38937C2.00031 6.28937 3.71231 4.58137 5.81731 4.58137H7.78431C7.97231 3.12937 9.20231 2.00037 10.7043 2.00037H13.2863C14.7873 2.00037 16.0183 3.12937 16.2063 4.58137H18.1833C20.2823 4.58137 21.9903 6.28937 21.9903 8.38937V11.8554C21.9903 12.1074 21.8633 12.3424 21.6543 12.4814C19.5923 13.8464 17.1443 14.7554 14.5763 15.1104C14.5413 15.1154 14.5073 15.1174 14.4733 15.1174C14.1343 15.1174 13.8313 14.8884 13.7463 14.5524C13.5443 13.7564 12.8213 13.1994 11.9903 13.1994C11.1483 13.1994 10.4333 13.7444 10.2113 14.5564ZM13.2863 3.50037H10.7043C10.0313 3.50037 9.46931 3.96037 9.30131 4.58137H14.6883C14.5203 3.96037 13.9583 3.50037 13.2863 3.50037Z" fill="fillColor"/>
</svg>
