<svg width="24" height="24" viewBox="0 0 24 24" fill="none" xmlns="http://www.w3.org/2000/svg">
<path opacity="0.4" d="M16.3401 1.99976H7.6701C4.2801 1.99976 2.0001 4.37976 2.0001 7.91976V16.0898C2.0001 19.6198 4.2801 21.9998 7.6701 21.9998H16.3401C19.7301 21.9998 22.0001 19.6198 22.0001 16.0898V7.91976C22.0001 4.37976 19.7301 1.99976 16.3401 1.99976Z" fill="fillColor"/>
<path fill-rule="evenodd" clip-rule="evenodd" d="M7.5212 10.8035C6.8602 10.8035 6.3232 11.3405 6.3232 11.9995C6.3232 12.6595 6.8602 13.1975 7.5212 13.1975C8.1822 13.1975 8.7192 12.6595 8.7192 11.9995C8.7192 11.3405 8.1822 10.8035 7.5212 10.8035ZM12.0002 10.8035C11.3392 10.8035 10.8022 11.3405 10.8022 11.9995C10.8022 12.6595 11.3392 13.1975 12.0002 13.1975C12.6612 13.1975 13.1982 12.6595 13.1982 11.9995C13.1982 11.3405 12.6612 10.8035 12.0002 10.8035ZM15.2817 11.9995C15.2817 11.3405 15.8187 10.8035 16.4797 10.8035C17.1407 10.8035 17.6777 11.3405 17.6777 11.9995C17.6777 12.6595 17.1407 13.1975 16.4797 13.1975C15.8187 13.1975 15.2817 12.6595 15.2817 11.9995Z" fill="fillColor"/>
</svg>
