<svg width="24" height="24" viewBox="0 0 24 24" fill="none" xmlns="http://www.w3.org/2000/svg">
<path d="M6.91711 14.8539L9.91011 10.9649L13.3241 13.6449L16.2531 9.8649" stroke="strokeColor"/>
<path fill-rule="evenodd" clip-rule="evenodd" d="M19.6671 2.35C20.7291 2.35 21.5891 3.21 21.5891 4.272C21.5891 5.333 20.7291 6.194 19.6671 6.194C18.6051 6.194 17.7451 5.333 17.7451 4.272C17.7451 3.21 18.6051 2.35 19.6671 2.35Z" stroke="strokeColor"/>
<path d="M20.7555 9.269C20.8885 10.164 20.9495 11.172 20.9495 12.303C20.9495 19.241 18.6375 21.553 11.6995 21.553C4.76252 21.553 2.44952 19.241 2.44952 12.303C2.44952 5.366 4.76252 3.053 11.6995 3.053C12.8095 3.053 13.8005 3.112 14.6825 3.24" stroke="strokeColor"/>
</svg>
