<svg width="24" height="24" viewBox="0 0 24 24" fill="none" xmlns="http://www.w3.org/2000/svg">
<path fill-rule="evenodd" clip-rule="evenodd" d="M10.6888 12.0001C10.6888 13.0231 9.85979 13.8521 8.83679 13.8521C7.81379 13.8521 6.98479 13.0231 6.98479 12.0001C6.98479 10.9771 7.81379 10.1481 8.83679 10.1481H8.83979C9.86179 10.1491 10.6888 10.9781 10.6888 12.0001Z" stroke="strokeColor"/>
<path d="M10.6918 12.0001H17.0098V13.8521" stroke="strokeColor"/>
<path d="M14.182 13.8521V12.0001" stroke="strokeColor"/>
<path fill-rule="evenodd" clip-rule="evenodd" d="M2.74989 12.0001C2.74989 5.0631 5.06289 2.7501 11.9999 2.7501C18.9369 2.7501 21.2499 5.0631 21.2499 12.0001C21.2499 18.9371 18.9369 21.2501 11.9999 21.2501C5.06289 21.2501 2.74989 18.9371 2.74989 12.0001Z" stroke="strokeColor"/>
</svg>
