<svg width="24" height="24" viewBox="0 0 24 24" fill="none" xmlns="http://www.w3.org/2000/svg">
<path d="M11.9611 16.5168V13.8888" stroke="strokeColor"/>
<path d="M21.0895 11.4777L21.0605 11.4987C18.6385 12.9907 15.4405 13.8917 11.9565 13.8917C8.47252 13.8917 5.28352 12.9907 2.86252 11.4987L2.83252 11.4777" stroke="strokeColor"/>
<path fill-rule="evenodd" clip-rule="evenodd" d="M2.75021 13.3507C2.75021 7.1987 5.05321 5.1477 11.9612 5.1477C18.8702 5.1477 21.1722 7.1987 21.1722 13.3507C21.1722 19.5027 18.8702 21.5537 11.9612 21.5537C5.05321 21.5537 2.75021 19.5027 2.75021 13.3507Z" stroke="strokeColor"/>
<path d="M15.2238 5.3693V4.7393C15.2238 3.4753 14.3008 2.4503 13.1638 2.4503H10.7588C9.62182 2.4503 8.69882 3.4753 8.69882 4.7393V5.3693" stroke="strokeColor"/>
</svg>
