<svg width="24" height="24" viewBox="0 0 24 24" fill="none" xmlns="http://www.w3.org/2000/svg">
<path fill-rule="evenodd" clip-rule="evenodd" d="M9.9223 21.8083C6.1083 21.8083 2.8503 21.2313 2.8503 18.9213C2.8503 16.6113 6.0873 14.5103 9.9223 14.5103C13.7363 14.5103 16.9943 16.5913 16.9943 18.9003C16.9943 21.2093 13.7573 21.8083 9.9223 21.8083Z" stroke="strokeColor"/>
<path fill-rule="evenodd" clip-rule="evenodd" d="M9.9223 11.216C12.4253 11.216 14.4553 9.18599 14.4553 6.68299C14.4553 4.17899 12.4253 2.14999 9.9223 2.14999C7.4193 2.14999 5.3893 4.17899 5.3893 6.68299C5.3803 9.17699 7.3963 11.207 9.8903 11.216H9.9223Z" stroke="strokeColor"/>
<path d="M19.1313 8.12909V12.1391" stroke="strokeColor"/>
<path d="M21.1776 10.1339H17.0876" stroke="strokeColor"/>
</svg>
