<svg width="24" height="24" viewBox="0 0 24 24" fill="none" xmlns="http://www.w3.org/2000/svg">
<path fill-rule="evenodd" clip-rule="evenodd" d="M15.4381 12.4981C15.4381 10.7613 14.0297 9.35284 12.2928 9.35284C10.556 9.35284 9.14758 10.7613 9.14758 12.4981C9.14758 14.2349 10.556 15.6434 12.2928 15.6434C14.0297 15.6434 15.4381 14.2349 15.4381 12.4981Z" stroke="strokeColor"/>
<path fill-rule="evenodd" clip-rule="evenodd" d="M12.2925 20.2001C20.3378 20.2001 21.2957 17.7896 21.2957 12.5664C21.2957 8.90536 20.8115 6.94642 17.762 6.10431C17.482 6.01589 17.1715 5.84747 16.9199 5.57063C16.5136 5.12536 16.2167 3.758 15.2357 3.34431C14.2546 2.93168 10.3146 2.95063 9.34937 3.34431C8.38516 3.73905 8.07147 5.12536 7.66516 5.57063C7.41358 5.84747 7.1041 6.01589 6.82305 6.10431C3.77358 6.94642 3.28937 8.90536 3.28937 12.5664C3.28937 17.7896 4.24726 20.2001 12.2925 20.2001Z" stroke="strokeColor"/>
<path d="M17.2045 9H17.2135" stroke="strokeColor"/>
</svg>
