<svg width="24" height="24" viewBox="0 0 24 24" fill="none" xmlns="http://www.w3.org/2000/svg">
<path fill-rule="evenodd" clip-rule="evenodd" d="M9.5585 21.4562C5.8865 21.4562 2.7495 20.9012 2.7495 18.6772C2.7495 16.4532 5.8665 14.4492 9.5585 14.4492C13.2305 14.4492 16.3665 16.4342 16.3665 18.6572C16.3665 20.8802 13.2505 21.4562 9.5585 21.4562Z" stroke="strokeColor"/>
<path fill-rule="evenodd" clip-rule="evenodd" d="M9.5585 11.2775C11.9685 11.2775 13.9225 9.3235 13.9225 6.9135C13.9225 4.5035 11.9685 2.5495 9.5585 2.5495C7.1485 2.5495 5.1945 4.5035 5.1945 6.9135C5.1855 9.3155 7.1265 11.2695 9.5275 11.2775H9.5585Z" stroke="strokeColor"/>
<path d="M16.8012 10.0788C18.2042 9.70379 19.2382 8.42479 19.2382 6.90279C19.2392 5.31479 18.1122 3.98879 16.6142 3.68179" stroke="strokeColor"/>
<path d="M17.4608 13.6535C19.4488 13.6535 21.1468 15.0015 21.1468 16.2045C21.1468 16.9135 20.5618 17.6415 19.6718 17.8505" stroke="strokeColor"/>
</svg>
