<svg width="24" height="24" viewBox="0 0 24 24" fill="none" xmlns="http://www.w3.org/2000/svg">
<path fill-rule="evenodd" clip-rule="evenodd" d="M21.4399 13.994C18.7789 13.994 18.7789 9.87954 21.4399 9.87954C21.4399 5.11238 21.4399 3.4109 12.0449 3.4109C2.6499 3.4109 2.6499 5.11238 2.6499 9.87954C5.3109 9.87954 5.3109 13.994 2.6499 13.994C2.6499 18.7621 2.6499 20.4635 12.0449 20.4635C21.4399 20.4635 21.4399 18.7621 21.4399 13.994Z" stroke="strokeColor"/>
<path fill-rule="evenodd" clip-rule="evenodd" d="M12.0449 9.1711C11.3619 9.1711 11.2969 10.2606 10.8909 10.6461C10.4839 11.0308 9.2209 10.5912 9.0449 11.2743C8.8699 11.9583 10.0069 12.1904 10.1479 12.7768C10.2879 13.3632 9.5939 14.1874 10.1869 14.5986C10.7809 15.0078 11.4199 14.0804 12.0449 14.0804C12.6699 14.0804 13.3089 15.0078 13.9029 14.5986C14.4969 14.1874 13.8019 13.3632 13.9419 12.7768C14.0829 12.1904 15.2199 11.9583 15.0449 11.2743C14.8689 10.5912 13.6059 11.0308 13.1989 10.6461C12.7929 10.2606 12.7279 9.1711 12.0449 9.1711Z" stroke="strokeColor"/>
</svg>
