<svg width="24" height="24" viewBox="0 0 24 24" fill="none" xmlns="http://www.w3.org/2000/svg">
<path d="M11.1437 17.8828H4.67113" stroke="strokeColor"/>
<path fill-rule="evenodd" clip-rule="evenodd" d="M15.205 17.8837C15.205 19.9255 15.8859 20.6055 17.9267 20.6055C19.9676 20.6055 20.6485 19.9255 20.6485 17.8837C20.6485 15.8419 19.9676 15.1619 17.9267 15.1619C15.8859 15.1619 15.205 15.8419 15.205 17.8837Z" stroke="strokeColor"/>
<path d="M14.1765 7.39418H20.6482" stroke="strokeColor"/>
<path fill-rule="evenodd" clip-rule="evenodd" d="M10.1153 7.39284C10.1153 5.35195 9.43436 4.67105 7.39346 4.67105C5.35167 4.67105 4.67078 5.35195 4.67078 7.39284C4.67078 9.43463 5.35167 10.1146 7.39346 10.1146C9.43436 10.1146 10.1153 9.43463 10.1153 7.39284Z" stroke="strokeColor"/>
</svg>
