<svg width="24" height="24" viewBox="0 0 24 24" fill="none" xmlns="http://www.w3.org/2000/svg">
<path d="M5.52382 7.0001C9.41433 5.74396 13.9724 5.45583 16.0001 5.5001C18.0277 5.54437 18.8832 6.2664 19.5001 7.5001C20.5001 9.5001 20.2891 14.4882 18.5001 16.0872C16.7121 17.6862 9.3302 17.8382 6.8702 16.0872C4.2712 14.2362 5.62905 9.1921 5.54405 5.7431C5.59505 3.8131 3.50005 3.5001 3.50005 3.5001" stroke="strokeColor"/>
<path d="M13.0001 10.5001H15.7731" stroke="strokeColor"/>
<path fill-rule="evenodd" clip-rule="evenodd" d="M7.264 20.1275C7.564 20.1275 7.808 20.3715 7.808 20.6715C7.808 20.9725 7.564 21.2165 7.264 21.2165C6.963 21.2165 6.719 20.9725 6.719 20.6715C6.719 20.3715 6.963 20.1275 7.264 20.1275Z" fill="fillColor"/>
<path fill-rule="evenodd" clip-rule="evenodd" d="M17.5955 20.1275C17.8965 20.1275 18.1405 20.3715 18.1405 20.6715C18.1405 20.9725 17.8965 21.2165 17.5955 21.2165C17.2955 21.2165 17.0515 20.9725 17.0515 20.6715C17.0515 20.3715 17.2955 20.1275 17.5955 20.1275Z" fill="fillColor"/>
</svg>
