<svg width="24" height="24" viewBox="0 0 24 24" fill="none" xmlns="http://www.w3.org/2000/svg">
<path fill-rule="evenodd" clip-rule="evenodd" d="M11.9725 20.3682C8.7335 20.3682 5.9665 19.8782 5.9665 17.9162C5.9665 15.9542 8.7155 14.2462 11.9725 14.2462C15.2115 14.2462 17.9785 15.9382 17.9785 17.8992C17.9785 19.8602 15.2295 20.3682 11.9725 20.3682Z" stroke="strokeColor"/>
<path fill-rule="evenodd" clip-rule="evenodd" d="M11.9725 11.4487C14.0985 11.4487 15.8225 9.72569 15.8225 7.59969C15.8225 5.47369 14.0985 3.74969 11.9725 3.74969C9.8465 3.74969 8.1225 5.47369 8.1225 7.59969C8.1165 9.71769 9.8265 11.4417 11.9455 11.4487H11.9725Z" stroke="strokeColor"/>
<path d="M18.3622 10.3916C19.5992 10.0606 20.5112 8.9326 20.5112 7.5896C20.5112 6.1886 19.5182 5.0186 18.1962 4.7486" stroke="strokeColor"/>
<path d="M18.9432 13.5444C20.6972 13.5444 22.1952 14.7334 22.1952 15.7954C22.1952 16.4204 21.6782 17.1014 20.8942 17.2854" stroke="strokeColor"/>
<path d="M5.5838 10.3916C4.3458 10.0606 3.4338 8.9326 3.4338 7.5896C3.4338 6.1886 4.4278 5.0186 5.7488 4.7486" stroke="strokeColor"/>
<path d="M5.0018 13.5444C3.2478 13.5444 1.7498 14.7334 1.7498 15.7954C1.7498 16.4204 2.2668 17.1014 3.0518 17.2854" stroke="strokeColor"/>
</svg>
