<svg width="24" height="24" viewBox="0 0 24 24" fill="none" xmlns="http://www.w3.org/2000/svg">
<path d="M6.42 17.7298C4.19 16.2698 2.75 14.0698 2.75 12.1398C2.75 8.8598 6.89 4.8398 12 4.8398C14.09 4.8398 16.03 5.5098 17.59 6.5498" stroke="strokeColor"/>
<path d="M19.8497 8.6102C20.7407 9.7402 21.2597 10.9902 21.2597 12.1402C21.2597 15.4202 17.1097 19.4402 11.9997 19.4402C11.0897 19.4402 10.2007 19.3102 9.36971 19.0802" stroke="strokeColor"/>
<path d="M9.7657 14.367C9.1707 13.778 8.8377 12.975 8.8407 12.138C8.8367 10.393 10.2487 8.97499 11.9947 8.97199C12.8347 8.96999 13.6407 9.30299 14.2347 9.89699" stroke="strokeColor"/>
<path d="M15.1095 12.6991C14.8755 13.9911 13.8645 15.0041 12.5725 15.2411" stroke="strokeColor"/>
<path d="M19.8917 4.24989L4.11771 20.0239" stroke="strokeColor"/>
</svg>
