<svg width="24" height="24" viewBox="0 0 24 24" fill="none" xmlns="http://www.w3.org/2000/svg">
<path d="M19.4356 5.77446C21.9293 9.49446 21.9365 14.4036 19.4356 18.1317" stroke="strokeColor"/>
<path d="M16.9889 8.21718C18.2707 10.5399 18.2707 13.3745 16.9889 15.689" stroke="strokeColor"/>
<path fill-rule="evenodd" clip-rule="evenodd" d="M2.68228 11.9529C2.67955 13.1993 2.68228 14.6611 3.71137 15.5347C4.74137 16.4093 5.55773 16.0484 6.88955 16.4865C8.22228 16.9256 10.0886 19.6329 12.1505 18.4102C13.265 17.6184 13.7905 16.1238 13.7905 11.9529C13.7905 7.782 13.2886 6.30382 12.1505 5.49563C10.0886 4.27382 8.22228 6.98109 6.88955 7.41927C5.55773 7.85836 4.74137 7.49745 3.71137 8.37109C2.68228 9.24473 2.67955 10.7065 2.68228 11.9529Z" stroke="strokeColor"/>
</svg>
