<svg width="24" height="24" viewBox="0 0 24 24" fill="none" xmlns="http://www.w3.org/2000/svg">
<path fill-rule="evenodd" clip-rule="evenodd" d="M2.75 12.0001C2.75 18.9371 5.063 21.2501 12 21.2501C18.937 21.2501 21.25 18.9371 21.25 12.0001C21.25 5.06311 18.937 2.75011 12 2.75011C5.063 2.75011 2.75 5.06311 2.75 12.0001Z" stroke="strokeColor"/>
<path fill-rule="evenodd" clip-rule="evenodd" d="M10.5986 8.78421C10.5986 9.75721 9.8106 10.5452 8.8376 10.5452C7.8656 10.5452 7.0766 9.75721 7.0766 8.78421C7.0766 7.81121 7.8656 7.02321 8.8376 7.02321C9.8106 7.02321 10.5986 7.81121 10.5986 8.78421Z" stroke="strokeColor"/>
<path d="M21.1201 14.6666C20.2391 13.7606 18.9931 11.9296 16.7041 11.9296C14.4151 11.9296 14.3651 15.9676 12.0291 15.9676C9.6921 15.9676 8.7511 14.5966 7.2281 15.3126C5.7061 16.0276 4.4661 18.8736 4.4661 18.8736" stroke="strokeColor"/>
</svg>
