<svg width="24" height="24" viewBox="0 0 24 24" fill="none" xmlns="http://www.w3.org/2000/svg">
<path d="M12.0002 2.75011C5.06318 2.75011 2.75018 5.06311 2.75018 12.0001C2.75018 18.9371 5.06318 21.2501 12.0002 21.2501C18.9372 21.2501 21.2502 18.9371 21.2502 12.0001" stroke="strokeColor"/>
<path fill-rule="evenodd" clip-rule="evenodd" d="M19.5285 4.30381V4.30381C18.5355 3.42481 17.0185 3.51681 16.1395 4.50981C16.1395 4.50981 11.7705 9.44481 10.2555 11.1578C8.73846 12.8698 9.85046 15.2348 9.85046 15.2348C9.85046 15.2348 12.3545 16.0278 13.8485 14.3398C15.3435 12.6518 19.7345 7.69281 19.7345 7.69281C20.6135 6.69981 20.5205 5.18281 19.5285 4.30381Z" stroke="strokeColor"/>
<path d="M15.009 5.80081L18.604 8.98381" stroke="strokeColor"/>
</svg>
