<svg width="24" height="24" viewBox="0 0 24 24" fill="none" xmlns="http://www.w3.org/2000/svg">
<path d="M18.6559 8.63457C19.9092 10.9057 19.9092 13.6772 18.6559 15.9403" stroke="strokeColor"/>
<path fill-rule="evenodd" clip-rule="evenodd" d="M4.6672 12.2873C4.66364 13.5059 4.6672 14.9353 5.67342 15.7895C6.67964 16.6446 7.47875 16.2917 8.78097 16.7202C10.0841 17.1495 11.909 19.7966 13.925 18.6011C15.0148 17.8268 15.5285 16.3655 15.5285 12.2873C15.5285 8.20906 15.0379 6.76373 13.925 5.9735C11.909 4.77884 10.0841 7.42595 8.78097 7.85439C7.47875 8.28373 6.67964 7.93084 5.67342 8.78506C4.6672 9.63928 4.66364 11.0686 4.6672 12.2873Z" stroke="strokeColor"/>
</svg>
