<svg width="25" height="25" viewBox="0 0 25 25" fill="none" xmlns="http://www.w3.org/2000/svg">
<g clip-path="url(#clip0_1435_11768)">
<path d="M12.5 0.599976C5.8724 0.599976 0.5 5.97238 0.5 12.6C0.5 19.2276 5.8724 24.6 12.5 24.6C19.1276 24.6 24.5 19.2276 24.5 12.6C24.5 5.97238 19.1276 0.599976 12.5 0.599976Z" fill="url(#paint0_linear_1435_11768)"/>
<path d="M14.2281 17.4578H17.4846L17.9961 14.1496H14.2281V12.3414C14.2281 10.9673 14.6773 9.74859 15.9627 9.74859H18.0282V6.86197C17.6652 6.81289 16.8976 6.70593 15.4474 6.70593C12.4186 6.70593 10.6431 8.30528 10.6431 11.9494V14.1503H7.5293V17.4584H10.6424V26.5512C11.259 26.643 11.8838 26.7059 12.5249 26.7059C13.1044 26.7059 13.67 26.6531 14.2281 26.5776V17.4578Z" fill="white"/>
</g>
<defs>
<linearGradient id="paint0_linear_1435_11768" x1="4.0958" y1="4.19578" x2="22.469" y2="22.569" gradientUnits="userSpaceOnUse">
<stop stop-color="#2AA4F4"/>
<stop offset="1" stop-color="#007AD9"/>
</linearGradient>
<clipPath id="clip0_1435_11768">
<rect width="24" height="24" fill="white" transform="translate(0.5 0.599976)"/>
</clipPath>
</defs>
</svg>
