<svg width="24" height="25" viewBox="0 0 24 25" fill="none" xmlns="http://www.w3.org/2000/svg">
<g clip-path="url(#clip0_1435_8329)">
<path d="M23.5078 12.8245C23.5078 11.8413 23.4295 11.1237 23.2598 10.3796H12.2295V14.8176H18.7041C18.5736 15.9205 17.8687 17.5815 16.3022 18.6976L16.2802 18.8461L19.7678 21.5963L20.0095 21.6209C22.2285 19.5347 23.5078 16.4653 23.5078 12.8245Z" fill="#4285F4"/>
<path d="M12.2296 24.5176C15.4016 24.5176 18.0645 23.4545 20.0095 21.6209L16.3023 18.6975C15.3102 19.4018 13.9787 19.8934 12.2296 19.8934C9.1228 19.8934 6.48598 17.8073 5.54603 14.924L5.40825 14.9359L1.7818 17.7927L1.73438 17.9269C3.6663 21.8334 7.63462 24.5176 12.2296 24.5176Z" fill="#34A853"/>
<path d="M5.54621 14.9239C5.2982 14.1798 5.15466 13.3825 5.15466 12.5587C5.15466 11.7348 5.2982 10.9376 5.53316 10.1935L5.52659 10.035L1.8547 7.13232L1.73457 7.19049C0.938328 8.81159 0.481445 10.632 0.481445 12.5587C0.481445 14.4854 0.938328 16.3057 1.73457 17.9268L5.54621 14.9239Z" fill="#FBBC05"/>
<path d="M12.2295 5.22401C14.4356 5.22401 15.9237 6.19399 16.7722 7.00459L20.0878 3.70926C18.0515 1.78257 15.4015 0.599976 12.2295 0.599976C7.63462 0.599976 3.6663 3.28404 1.73438 7.19054L5.53297 10.1936C6.48597 7.31017 9.12279 5.22401 12.2295 5.22401Z" fill="#EB4335"/>
</g>
<defs>
<clipPath id="clip0_1435_8329">
<rect width="23.04" height="24" fill="white" transform="translate(0.480469 0.599976)"/>
</clipPath>
</defs>
</svg>
