<svg width="24" height="24" viewBox="0 0 24 24" fill="none" xmlns="http://www.w3.org/2000/svg">
<path fill-rule="evenodd" clip-rule="evenodd" d="M17.8868 12.1465C17.5188 12.1465 17.1978 11.8755 17.1448 11.5005C17.0878 11.0895 17.3728 10.7105 17.7838 10.6535C18.8238 10.5075 19.6088 9.60551 19.6108 8.55351C19.6108 7.51051 18.8628 6.62851 17.8318 6.45951C17.4238 6.39251 17.1468 6.00651 17.2138 5.59751C17.2818 5.18851 17.6648 4.91451 18.0758 4.97951C19.8338 5.26851 21.1108 6.77251 21.1108 8.55551C21.1068 10.3505 19.7658 11.8905 17.9908 12.1395C17.9558 12.1445 17.9208 12.1465 17.8868 12.1465Z" fill="fillColor"/>
<mask id="mask0_430_8539" style="mask-type:luminance" maskUnits="userSpaceOnUse" x="18" y="14" width="5" height="5">
<path fill-rule="evenodd" clip-rule="evenodd" d="M18.9781 14.0016H22.7721V18.5312H18.9781V14.0016Z" fill="white"/>
</mask>
<g mask="url(#mask0_430_8539)">
<path fill-rule="evenodd" clip-rule="evenodd" d="M20.8614 18.5312C20.5594 18.5312 20.2744 18.3472 20.1604 18.0482C20.0124 17.6612 20.2074 17.2272 20.5944 17.0802C21.2724 16.8222 21.2724 16.5372 21.2724 16.4002C21.2724 15.9622 20.7154 15.6562 19.6174 15.4922C19.2084 15.4302 18.9254 15.0492 18.9864 14.6382C19.0474 14.2282 19.4274 13.9552 19.8404 14.0082C22.2634 14.3712 22.7724 15.5092 22.7724 16.4002C22.7724 16.9442 22.5584 17.9372 21.1284 18.4822C21.0404 18.5152 20.9504 18.5312 20.8614 18.5312Z" fill="fillColor"/>
</g>
<path fill-rule="evenodd" clip-rule="evenodd" d="M11.8867 15.914C9.5107 15.914 6.6777 16.206 6.6777 17.596C6.6777 18.997 9.5107 19.291 11.8867 19.291C14.2627 19.291 17.0947 19 17.0947 17.613C17.0947 16.209 14.2627 15.914 11.8867 15.914ZM11.8867 20.791C10.2277 20.791 5.1777 20.791 5.1777 17.596C5.1777 14.414 10.2277 14.414 11.8867 14.414C13.5457 14.414 18.5947 14.414 18.5947 17.613C18.5947 20.791 13.7217 20.791 11.8867 20.791Z" fill="fillColor"/>
<path fill-rule="evenodd" clip-rule="evenodd" d="M11.8867 5.5C10.1947 5.5 8.8187 6.877 8.8187 8.569C8.8157 9.389 9.1297 10.156 9.7047 10.735C10.2797 11.314 11.0457 11.635 11.8617 11.638L11.8867 12.388V11.638C13.5787 11.638 14.9557 10.262 14.9557 8.569C14.9557 6.877 13.5787 5.5 11.8867 5.5ZM11.8867 13.138H11.8597C10.6397 13.134 9.4967 12.656 8.6407 11.792C7.7827 10.929 7.3137 9.783 7.3187 8.566C7.3187 6.05 9.3677 4 11.8867 4C14.4067 4 16.4557 6.05 16.4557 8.569C16.4557 11.088 14.4067 13.138 11.8867 13.138Z" fill="fillColor"/>
<path fill-rule="evenodd" clip-rule="evenodd" d="M5.8857 12.1465C5.8517 12.1465 5.8167 12.1445 5.7817 12.1395C4.0067 11.8905 2.6667 10.3505 2.6627 8.55751C2.6627 6.77251 3.9397 5.26851 5.6977 4.97951C6.1187 4.91351 6.4917 5.19051 6.5597 5.59751C6.6267 6.00651 6.3497 6.39251 5.9417 6.45951C4.9107 6.62851 4.1627 7.51051 4.1627 8.55551C4.1647 9.60551 4.9497 10.5085 5.9887 10.6535C6.3997 10.7105 6.6847 11.0895 6.6277 11.5005C6.5747 11.8755 6.2537 12.1465 5.8857 12.1465Z" fill="fillColor"/>
<path fill-rule="evenodd" clip-rule="evenodd" d="M2.9121 18.5312C2.8231 18.5312 2.7331 18.5152 2.6451 18.4822C1.2141 17.9362 1.0001 16.9432 1.0001 16.4002C1.0001 15.5102 1.5091 14.3712 3.9331 14.0082C4.3461 13.9562 4.7241 14.2282 4.7861 14.6382C4.8471 15.0492 4.5641 15.4302 4.1551 15.4922C3.0571 15.6562 2.5001 15.9622 2.5001 16.4002C2.5001 16.5372 2.5001 16.8212 3.1791 17.0802C3.5661 17.2272 3.7611 17.6612 3.6131 18.0482C3.4991 18.3472 3.2141 18.5312 2.9121 18.5312Z" fill="fillColor"/>
</svg>
