<svg width="24" height="24" viewBox="0 0 24 24" fill="none" xmlns="http://www.w3.org/2000/svg">
<mask id="mask0_430_8293" style="mask-type:luminance" maskUnits="userSpaceOnUse" x="2" y="3" width="20" height="19">
<path fill-rule="evenodd" clip-rule="evenodd" d="M2 3.00049H22V21.1665H2V3.00049Z" fill="white"/>
</mask>
<g mask="url(#mask0_430_8293)">
<path fill-rule="evenodd" clip-rule="evenodd" d="M3.5 14.9795V17.0245C3.5 17.7305 3.774 18.3935 4.273 18.8925C4.772 19.3915 5.436 19.6665 6.141 19.6665H17.857C19.313 19.6665 20.499 18.4825 20.5 17.0265V14.9785C19.214 14.6455 18.261 13.4745 18.26 12.0855C18.26 10.6965 19.213 9.52549 20.499 9.19149L20.5 7.14649C20.501 5.68849 19.318 4.50149 17.861 4.50049H6.144C4.687 4.50049 3.501 5.68549 3.5 7.14249V9.25949C3.986 9.37549 4.437 9.61449 4.812 9.96449C5.381 10.4955 5.709 11.2155 5.737 11.9935C5.74 13.4595 4.787 14.6435 3.5 14.9795ZM17.857 21.1665H6.142C5.035 21.1665 3.995 20.7365 3.212 19.9535C2.43 19.1705 2 18.1305 2 17.0245V14.3245C2 13.9105 2.336 13.5745 2.75 13.5745C3.574 13.5735 4.24 12.9055 4.239 12.0855C4.225 11.6675 4.065 11.3195 3.789 11.0615C3.514 10.8035 3.158 10.6625 2.776 10.6835C2.569 10.6855 2.375 10.6145 2.229 10.4735C2.083 10.3325 2 10.1365 2 9.93349V7.14349C2.001 4.85849 3.86 3.00049 6.144 3.00049H17.856C20.146 3.00149 22.002 4.86349 22 7.14749V9.84649C22 10.2605 21.664 10.5965 21.25 10.5965C20.429 10.5965 19.76 11.2645 19.76 12.0845C19.761 12.9065 20.429 13.5745 21.25 13.5745C21.664 13.5745 22 13.9105 22 14.3245V17.0245C21.999 19.3085 20.14 21.1665 17.857 21.1665Z" fill="fillColor"/>
</g>
<path fill-rule="evenodd" clip-rule="evenodd" d="M10.1039 11.3815L10.6129 11.8775C10.8889 12.1485 11.0139 12.5345 10.9479 12.9115L10.8279 13.6095L11.4569 13.2785C11.7959 13.0975 12.2029 13.0985 12.5449 13.2805L13.1699 13.6085L13.0499 12.9095C12.9869 12.5265 13.1129 12.1435 13.3859 11.8775L13.8949 11.3815L13.1899 11.2795C12.8119 11.2245 12.4839 10.9865 12.3149 10.6415L11.9999 10.0045L11.6849 10.6425C11.5159 10.9865 11.1879 11.2245 10.8079 11.2795L10.1039 11.3815ZM13.6179 15.3875C13.4319 15.3875 13.2459 15.3425 13.0739 15.2515L11.9999 14.6885L10.9249 15.2525C10.5289 15.4595 10.0579 15.4265 9.6979 15.1645C9.3369 14.9015 9.1599 14.4655 9.2349 14.0255L9.4399 12.8295L8.5709 11.9825C8.2519 11.6715 8.1379 11.2145 8.2749 10.7905C8.4129 10.3655 8.7729 10.0605 9.2139 9.99646L10.4179 9.82046L10.9549 8.73146C11.1519 8.33146 11.5519 8.08246 11.9999 8.08246C12.4459 8.08246 12.8469 8.33146 13.0439 8.73246L13.5819 9.82046L14.7839 9.99646C15.2259 10.0605 15.5869 10.3655 15.7239 10.7905C15.8609 11.2145 15.7479 11.6715 15.4279 11.9835L14.5579 12.8305L14.7639 14.0255C14.8389 14.4665 14.6609 14.9035 14.2989 15.1655C14.0949 15.3125 13.8569 15.3875 13.6179 15.3875Z" fill="fillColor"/>
</svg>
