<svg width="24" height="24" viewBox="0 0 24 24" fill="none" xmlns="http://www.w3.org/2000/svg">
<mask id="mask0_430_8470" style="mask-type:luminance" maskUnits="userSpaceOnUse" x="3" y="2" width="18" height="20">
<path fill-rule="evenodd" clip-rule="evenodd" d="M3 2.01172H20.0515V21.8667H3V2.01172Z" fill="white"/>
</mask>
<g mask="url(#mask0_430_8470)">
<path fill-rule="evenodd" clip-rule="evenodd" d="M7.4785 3.51172C5.8355 3.51172 4.4995 4.84872 4.4995 6.49072V17.3397C4.5045 18.1507 4.8265 18.9147 5.4055 19.4877C5.9835 20.0587 6.7805 20.3867 7.5665 20.3667C7.5735 20.3667 7.6835 20.3657 7.6895 20.3657H15.5725C17.2145 20.3477 18.5545 18.9907 18.5515 17.3407V8.34172L13.9165 3.51172H7.4785ZM7.5425 21.8667C6.3425 21.8667 5.2075 21.4017 4.3505 20.5537C3.4865 19.6997 3.0065 18.5597 2.9995 17.3437V6.49072C2.9995 4.02172 5.0085 2.01172 7.4785 2.01172H14.2365C14.4405 2.01172 14.6355 2.09472 14.7775 2.24172L19.8425 7.52072C19.9765 7.65972 20.0515 7.84672 20.0515 8.03972V17.3397C20.0565 19.8087 18.0505 21.8397 15.5805 21.8657L7.5715 21.8667H7.5425Z" fill="fillColor"/>
</g>
<path fill-rule="evenodd" clip-rule="evenodd" d="M19.2969 8.98443H16.5409C14.7109 8.97943 13.2239 7.48743 13.2239 5.65943V2.75043C13.2239 2.33643 13.5599 2.00043 13.9739 2.00043C14.3879 2.00043 14.7239 2.33643 14.7239 2.75043V5.65943C14.7239 6.66343 15.5399 7.48143 16.5429 7.48443H19.2969C19.7109 7.48443 20.0469 7.82043 20.0469 8.23443C20.0469 8.64843 19.7109 8.98443 19.2969 8.98443Z" fill="fillColor"/>
<path fill-rule="evenodd" clip-rule="evenodd" d="M13.0752 15.3986C12.8832 15.3986 12.6912 15.3256 12.5452 15.1786L9.0792 11.7126C8.7862 11.4196 8.7862 10.9456 9.0792 10.6526C9.3722 10.3596 9.8462 10.3596 10.1392 10.6526L13.6052 14.1186C13.8982 14.4116 13.8982 14.8856 13.6052 15.1786C13.4592 15.3256 13.2672 15.3986 13.0752 15.3986Z" fill="fillColor"/>
<path fill-rule="evenodd" clip-rule="evenodd" d="M9.6104 15.3986C9.4184 15.3986 9.2264 15.3256 9.0804 15.1786C8.7874 14.8856 8.7874 14.4116 9.0804 14.1186L12.5464 10.6526C12.8394 10.3596 13.3134 10.3596 13.6064 10.6526C13.8994 10.9456 13.8994 11.4196 13.6064 11.7126L10.1404 15.1786C9.9944 15.3256 9.8024 15.3986 9.6104 15.3986Z" fill="fillColor"/>
</svg>
