<svg width="24" height="24" viewBox="0 0 24 24" fill="none" xmlns="http://www.w3.org/2000/svg">
<path fill-rule="evenodd" clip-rule="evenodd" d="M17.8572 20.4171C19.7302 20.4171 21.2492 18.8991 21.2502 17.0261V17.0241V14.3241C20.0132 14.3241 19.0112 13.3221 19.0102 12.0851C19.0102 10.8491 20.0122 9.84612 21.2492 9.84612H21.2502V7.14612C21.2522 5.27212 19.7352 3.75212 17.8622 3.75012H17.8562H6.1442C4.2702 3.75012 2.7512 5.26812 2.7502 7.14212V7.14312V9.93312C3.9442 9.89112 4.9452 10.8251 4.9872 12.0191C4.9882 12.0411 4.9892 12.0631 4.9892 12.0851C4.9902 13.3201 3.9912 14.3221 2.7562 14.3241H2.7502V17.0241C2.7492 18.8971 4.2682 20.4171 6.1412 20.4171H6.1422H17.8572Z" stroke="strokeColor"/>
<path fill-rule="evenodd" clip-rule="evenodd" d="M12.3713 9.06315L12.9873 10.3102C13.0473 10.4322 13.1633 10.5172 13.2983 10.5372L14.6753 10.7382C15.0163 10.7882 15.1513 11.2062 14.9053 11.4452L13.9093 12.4152C13.8113 12.5102 13.7673 12.6472 13.7893 12.7822L14.0243 14.1522C14.0823 14.4912 13.7273 14.7492 13.4233 14.5892L12.1923 13.9422C12.0713 13.8782 11.9273 13.8782 11.8063 13.9422L10.5763 14.5892C10.2713 14.7492 9.91631 14.4912 9.97431 14.1522L10.2093 12.7822C10.2323 12.6472 10.1873 12.5102 10.0893 12.4152L9.09431 11.4452C8.84831 11.2062 8.98331 10.7882 9.32331 10.7382L10.7003 10.5372C10.8353 10.5172 10.9523 10.4322 11.0123 10.3102L11.6273 9.06315C11.7793 8.75515 12.2193 8.75515 12.3713 9.06315Z" stroke="strokeColor"/>
</svg>
