<svg width="24" height="24" viewBox="0 0 24 24" fill="none" xmlns="http://www.w3.org/2000/svg">
<path fill-rule="evenodd" clip-rule="evenodd" d="M16.3027 2.74976H7.6507C4.6387 2.74976 2.7497 4.88376 2.7497 7.90376V16.0498C2.7497 19.0698 4.6307 21.2038 7.6507 21.2038H16.2977C19.3227 21.2038 21.2027 19.0698 21.2027 16.0498V7.90376C21.2067 4.88376 19.3257 2.74976 16.3027 2.74976Z" stroke="strokeColor"/>
<path fill-rule="evenodd" clip-rule="evenodd" d="M10.7031 8.78496C10.7031 9.80496 9.8771 10.631 8.8571 10.631C7.8381 10.631 7.0111 9.80496 7.0111 8.78496C7.0111 7.76496 7.8381 6.93896 8.8571 6.93896C9.8761 6.93996 10.7021 7.76596 10.7031 8.78496Z" stroke="strokeColor"/>
<path d="M21.207 14.9509C20.284 14.0009 18.509 12.0819 16.579 12.0819C14.648 12.0819 13.535 16.3149 11.678 16.3149C9.821 16.3149 8.134 14.4009 6.646 15.6279C5.158 16.8539 3.75 19.3609 3.75 19.3609" stroke="strokeColor"/>
</svg>
