<svg width="24" height="24" viewBox="0 0 24 24" fill="none" xmlns="http://www.w3.org/2000/svg">
<mask id="mask0_430_8913" style="mask-type:luminance" maskUnits="userSpaceOnUse" x="3" y="4" width="13" height="14">
<path fill-rule="evenodd" clip-rule="evenodd" d="M3 4.60104H15.0337V17.7873H3V4.60104Z" fill="white"/>
</mask>
<g mask="url(#mask0_430_8913)">
<path fill-rule="evenodd" clip-rule="evenodd" d="M12.2305 6.1113C11.3645 6.1113 10.2515 7.0273 9.32551 7.7893C8.43551 8.5213 7.73351 9.0993 7.02851 9.1553C6.71351 9.1793 6.44351 9.1903 6.20551 9.1993C5.46651 9.2263 5.27951 9.2443 4.94751 9.5283C4.49451 9.9153 4.49851 11.4633 4.50051 12.3873L4.50151 12.6333L4.50051 12.8803C4.49851 13.8043 4.49451 15.3523 4.94751 15.7393C5.28651 16.0293 5.47851 16.0473 6.23551 16.0733C6.46451 16.0813 6.72351 16.0903 7.02251 16.1113C7.10851 16.1173 7.19651 16.1313 7.28651 16.1533L13.5245 9.9153C13.4515 7.6903 13.2265 6.6923 12.6965 6.2183C12.5525 6.1443 12.3965 6.1113 12.2305 6.1113ZM7.46351 17.7873C7.33451 17.7873 7.20551 17.7543 7.08851 17.6863C6.96851 17.6173 6.91351 17.6073 6.91351 17.6073C6.63751 17.5883 6.39751 17.5793 6.18351 17.5723C5.36751 17.5443 4.72251 17.5213 3.97251 16.8803C2.99251 16.0423 2.99651 14.2873 3.00051 12.8763L3.00151 12.6333L3.00051 12.3913C2.99651 10.9803 2.99251 9.2243 3.97351 8.3873C4.71351 7.7543 5.34751 7.7303 6.14851 7.7003C6.36951 7.6913 6.61851 7.6823 6.91051 7.6593C7.16151 7.6273 7.89051 7.0273 8.37251 6.6313C9.77851 5.4723 11.7055 3.8863 13.5075 4.9543C13.5405 4.9723 13.5715 4.9943 13.6005 5.0183C14.7245 5.9333 14.9645 7.4813 15.0335 10.1983C15.0385 10.4033 14.9595 10.6013 14.8135 10.7473L7.99451 17.5673C7.84951 17.7123 7.65751 17.7873 7.46351 17.7873Z" fill="fillColor"/>
</g>
<path fill-rule="evenodd" clip-rule="evenodd" d="M12.2329 20.666C11.2229 20.666 10.2639 20.081 9.55291 19.566C9.21691 19.324 9.14191 18.855 9.38391 18.52C9.62791 18.184 10.0969 18.107 10.4319 18.352C11.7449 19.301 12.3369 19.238 12.6959 19.05C13.2779 18.531 13.4989 17.363 13.5329 14.657C13.5389 14.243 13.8419 13.921 14.2929 13.917C14.7069 13.923 15.0389 14.263 15.0329 14.677C14.9949 17.632 14.7629 19.305 13.5999 20.25C13.5699 20.273 13.5399 20.295 13.5079 20.313C13.0839 20.564 12.6539 20.666 12.2329 20.666Z" fill="fillColor"/>
<mask id="mask1_430_8913" style="mask-type:luminance" maskUnits="userSpaceOnUse" x="3" y="4" width="18" height="18">
<path fill-rule="evenodd" clip-rule="evenodd" d="M3.00174 4.00024H20.5V21.5H3.00174V4.00024Z" fill="white"/>
</mask>
<g mask="url(#mask1_430_8913)">
<path fill-rule="evenodd" clip-rule="evenodd" d="M3.75149 21.5C3.55949 21.5 3.36749 21.427 3.22149 21.28C2.92849 20.987 2.92849 20.513 3.22149 20.22L19.2205 4.21999C19.5135 3.92699 19.9875 3.92699 20.2805 4.21999C20.5735 4.51299 20.5735 4.98699 20.2805 5.27999L4.28149 21.28C4.13549 21.427 3.94349 21.5 3.75149 21.5Z" fill="fillColor"/>
</g>
</svg>
