<svg width="24" height="24" viewBox="0 0 24 24" fill="none" xmlns="http://www.w3.org/2000/svg">
<mask id="mask0_430_8659" style="mask-type:luminance" maskUnits="userSpaceOnUse" x="2" y="3" width="21" height="19">
<path fill-rule="evenodd" clip-rule="evenodd" d="M2 3H22.0137V21.1855H2V3Z" fill="white"/>
</mask>
<g mask="url(#mask0_430_8659)">
<path fill-rule="evenodd" clip-rule="evenodd" d="M12.0127 4.5C11.5367 4.5 11.1127 4.746 10.8747 5.159L3.67669 17.724C3.44269 18.134 3.44469 18.623 3.68169 19.032C3.91869 19.441 4.34269 19.686 4.81569 19.686H19.1987C19.6707 19.686 20.0947 19.441 20.3317 19.032C20.5697 18.623 20.5717 18.134 20.3357 17.724L13.1507 5.159C12.9137 4.746 12.4897 4.5 12.0127 4.5ZM19.1987 21.186H4.81569C3.80169 21.186 2.89269 20.662 2.38369 19.784C1.87469 18.907 1.87169 17.858 2.37469 16.979L9.57469 4.413C10.0807 3.528 10.9917 3 12.0127 3H12.0137C13.0337 3 13.9467 3.529 14.4527 4.415L21.6387 16.979C22.1417 17.858 22.1387 18.907 21.6297 19.784C21.1207 20.662 20.2117 21.186 19.1987 21.186Z" fill="fillColor"/>
</g>
<path fill-rule="evenodd" clip-rule="evenodd" d="M12.0039 14.164C11.5899 14.164 11.2539 13.828 11.2539 13.414V10.314C11.2539 9.90003 11.5899 9.56403 12.0039 9.56403C12.4179 9.56403 12.7539 9.90003 12.7539 10.314V13.414C12.7539 13.828 12.4179 14.164 12.0039 14.164Z" fill="fillColor"/>
<path fill-rule="evenodd" clip-rule="evenodd" d="M12.0059 17.499C11.4529 17.499 11.0009 17.052 11.0009 16.499C11.0009 15.946 11.4439 15.499 11.9959 15.499H12.0059C12.5589 15.499 13.0059 15.946 13.0059 16.499C13.0059 17.052 12.5589 17.499 12.0059 17.499Z" fill="fillColor"/>
</svg>
