<svg width="24" height="24" viewBox="0 0 24 24" fill="none" xmlns="http://www.w3.org/2000/svg">
<path fill-rule="evenodd" clip-rule="evenodd" d="M7.5729 3.51172C5.9149 3.51172 4.5399 4.85372 4.5009 6.50872V17.3397C4.4719 18.9867 5.7789 20.3387 7.4139 20.3667L7.5609 20.3657H15.5729C17.2149 20.3477 18.5539 18.9907 18.5519 17.3407V8.34172L13.9179 3.51172H7.5849H7.5729ZM7.3999 21.8667C4.9269 21.8237 2.9589 19.7867 3.0009 17.3267V6.49072C3.0579 4.00972 5.1069 2.01172 7.5699 2.01172H7.5879H14.2369C14.4409 2.01172 14.6359 2.09472 14.7779 2.24172L19.8439 7.52072C19.9769 7.65972 20.0519 7.84672 20.0519 8.03972V17.3397C20.0559 19.8087 18.0499 21.8397 15.5809 21.8657L7.3999 21.8667Z" fill="fillColor"/>
<path fill-rule="evenodd" clip-rule="evenodd" d="M19.2975 8.98443H16.5435C14.7125 8.97943 13.2245 7.48743 13.2245 5.65943V2.75043C13.2245 2.33643 13.5605 2.00043 13.9745 2.00043C14.3885 2.00043 14.7245 2.33643 14.7245 2.75043V5.65943C14.7245 6.66343 15.5415 7.48143 16.5455 7.48443H19.2975C19.7115 7.48443 20.0475 7.82043 20.0475 8.23443C20.0475 8.64843 19.7115 8.98443 19.2975 8.98443Z" fill="fillColor"/>
<path fill-rule="evenodd" clip-rule="evenodd" d="M13.7936 13.6641H8.89461C8.48061 13.6641 8.14461 13.3281 8.14461 12.9141C8.14461 12.5001 8.48061 12.1641 8.89461 12.1641H13.7936C14.2076 12.1641 14.5436 12.5001 14.5436 12.9141C14.5436 13.3281 14.2076 13.6641 13.7936 13.6641Z" fill="fillColor"/>
<path fill-rule="evenodd" clip-rule="evenodd" d="M11.3444 16.1144C10.9304 16.1144 10.5944 15.7784 10.5944 15.3644V10.4644C10.5944 10.0504 10.9304 9.71436 11.3444 9.71436C11.7584 9.71436 12.0944 10.0504 12.0944 10.4644V15.3644C12.0944 15.7784 11.7584 16.1144 11.3444 16.1144Z" fill="fillColor"/>
</svg>
