<svg width="24" height="24" viewBox="0 0 24 24" fill="none" xmlns="http://www.w3.org/2000/svg">
<path d="M4 11.7257C4 11.346 4.28215 11.0322 4.64823 10.9826L4.75 10.9757H19.75C20.1642 10.9757 20.5 11.3115 20.5 11.7257C20.5 12.1054 20.2178 12.4192 19.8518 12.4689L19.75 12.4757L4.75 12.4757C4.33579 12.4757 4 12.1399 4 11.7257Z" fill="fillColor"/>
<path d="M13.171 6.23278C12.8775 5.94051 12.8765 5.46564 13.1687 5.17212C13.4344 4.90528 13.851 4.88018 14.1451 5.0974L14.2294 5.16983L20.2794 11.1938C20.547 11.4603 20.5714 11.8784 20.3524 12.1725L20.2794 12.2567L14.2294 18.2817C13.9359 18.574 13.4611 18.573 13.1688 18.2795C12.9031 18.0127 12.8797 17.596 13.0982 17.3028L13.171 17.2189L18.687 11.725L13.171 6.23278Z" fill="fillColor"/>
</svg>
