<svg width="24" height="24" viewBox="0 0 24 24" fill="none" xmlns="http://www.w3.org/2000/svg">
<path fill-rule="evenodd" clip-rule="evenodd" d="M12 3.5C7.313 3.5 3.5 7.313 3.5 12C3.5 16.687 7.313 20.5 12 20.5C16.687 20.5 20.5 16.687 20.5 12C20.5 7.313 16.687 3.5 12 3.5ZM12 22C6.486 22 2 17.514 2 12C2 6.486 6.486 2 12 2C17.514 2 22 6.486 22 12C22 17.514 17.514 22 12 22Z" fill="fillColor"/>
<path fill-rule="evenodd" clip-rule="evenodd" d="M15.4717 14.1924C15.2797 14.1924 15.0867 14.1194 14.9407 13.9714L11.9997 11.0184L9.06071 13.9714C8.76871 14.2654 8.29371 14.2654 7.99971 13.9734C7.70671 13.6814 7.70471 13.2074 7.99771 12.9134L11.4687 9.42639C11.7497 9.14339 12.2497 9.14339 12.5317 9.42639L16.0027 12.9134C16.2947 13.2074 16.2937 13.6814 16.0007 13.9734C15.8547 14.1194 15.6627 14.1924 15.4717 14.1924Z" fill="fillColor"/>
</svg>
