<svg width="24" height="24" viewBox="0 0 24 24" fill="none" xmlns="http://www.w3.org/2000/svg">
<path fill-rule="evenodd" clip-rule="evenodd" d="M8.98243 6.3035C8.95043 6.3035 8.91843 6.3075 8.88643 6.3155C5.91643 7.0465 3.50043 10.2645 3.50043 13.4885C3.50043 17.5445 6.80043 20.8445 10.8574 20.8445C14.5144 20.8445 17.5704 18.2395 18.1244 14.6495C18.1284 14.6195 18.1424 14.5325 18.0604 14.4355C17.9824 14.3445 17.8584 14.2905 17.7284 14.2905C16.3174 14.2905 15.2404 14.3225 14.3994 14.3465C12.3634 14.4075 11.5214 14.4305 10.6894 13.8135C9.43543 12.8845 9.32943 11.2885 9.32943 6.5945C9.32943 6.5105 9.29343 6.4405 9.22143 6.3845C9.15443 6.3315 9.06943 6.3035 8.98243 6.3035ZM10.8574 22.3445C5.97343 22.3445 2.00043 18.3715 2.00043 13.4885C2.00043 9.6165 4.92843 5.7445 8.52743 4.8585C9.08943 4.7215 9.69343 4.8495 10.1474 5.2035C10.5804 5.5435 10.8294 6.0505 10.8294 6.5945C10.8294 10.9795 10.9774 12.1595 11.5824 12.6085C11.9794 12.9015 12.5234 12.8985 14.3564 12.8475C15.2084 12.8225 16.2994 12.7905 17.7284 12.7905C18.2984 12.7905 18.8354 13.0345 19.1994 13.4595C19.5374 13.8545 19.6854 14.3705 19.6074 14.8785C18.9394 19.2035 15.2594 22.3445 10.8574 22.3445Z" fill="fillColor"/>
<mask id="mask0_430_8219" style="mask-type:luminance" maskUnits="userSpaceOnUse" x="12" y="1" width="11" height="11">
<path fill-rule="evenodd" clip-rule="evenodd" d="M12.4741 1.00049H22.893V11.2898H12.4741V1.00049Z" fill="white"/>
</mask>
<g mask="url(#mask0_430_8219)">
<path fill-rule="evenodd" clip-rule="evenodd" d="M14.0108 2.5018C13.9008 5.0208 14.0638 8.2748 14.1398 9.5638C14.1438 9.6408 14.1998 9.6968 14.2758 9.7008C15.3038 9.7598 18.8458 9.9238 21.3928 9.5488C21.3988 8.1448 20.4378 6.2408 18.9908 4.7948C17.5068 3.3128 15.7508 2.5018 14.0328 2.5018H14.0108ZM17.3148 11.2898C16.0048 11.2898 14.8518 11.2368 14.1888 11.1988C13.3548 11.1498 12.6908 10.4848 12.6428 9.6508C12.5648 8.3288 12.3958 4.9698 12.5158 2.3718C12.5488 1.6168 13.1588 1.0158 13.9048 1.0028C16.0418 0.940803 18.2468 1.9328 20.0508 3.7338C21.8088 5.4908 22.9248 7.7998 22.8928 9.6168C22.8808 10.3258 22.3658 10.9178 21.6698 11.0228C20.3118 11.2278 18.7218 11.2898 17.3148 11.2898Z" fill="fillColor"/>
</g>
</svg>
