<svg width="24" height="24" viewBox="0 0 24 24" fill="none" xmlns="http://www.w3.org/2000/svg">
<path d="M11.9951 16.6768V14.1398" stroke="strokeColor"/>
<path fill-rule="evenodd" clip-rule="evenodd" d="M18.1899 5.3302C19.8799 5.3302 21.2399 6.7002 21.2399 8.3902V11.8302C18.7799 13.2702 15.5299 14.1402 11.9899 14.1402C8.44991 14.1402 5.20991 13.2702 2.74991 11.8302V8.3802C2.74991 6.6902 4.11991 5.3302 5.80991 5.3302H18.1899Z" stroke="strokeColor"/>
<path d="M15.4951 5.32576V4.95976C15.4951 3.73976 14.5051 2.74976 13.2851 2.74976H10.7051C9.48512 2.74976 8.49512 3.73976 8.49512 4.95976V5.32576" stroke="strokeColor"/>
<path d="M2.77441 15.4829L2.96341 17.9919C3.09141 19.6829 4.50041 20.9899 6.19541 20.9899H17.7944C19.4894 20.9899 20.8984 19.6829 21.0264 17.9919L21.2154 15.4829" stroke="strokeColor"/>
</svg>
