<svg width="24" height="24" viewBox="0 0 24 24" fill="none" xmlns="http://www.w3.org/2000/svg">
<mask id="mask0_430_8502" style="mask-type:luminance" maskUnits="userSpaceOnUse" x="2" y="2" width="20" height="20">
<path fill-rule="evenodd" clip-rule="evenodd" d="M2.0004 2.00009H21.9534V21.954H2.0004V2.00009Z" fill="white"/>
</mask>
<g mask="url(#mask0_430_8502)">
<path fill-rule="evenodd" clip-rule="evenodd" d="M7.6514 3.5C5.1304 3.5 3.5004 5.229 3.5004 7.904V16.05C3.5004 18.726 5.1304 20.454 7.6514 20.454H16.2974C18.8224 20.454 20.4534 18.726 20.4534 16.05V7.904C20.4554 6.541 20.0394 5.403 19.2514 4.614C18.5234 3.885 17.5044 3.5 16.3024 3.5H7.6514ZM16.2974 21.954H7.6514C4.2714 21.954 2.0004 19.581 2.0004 16.05V7.904C2.0004 4.373 4.2714 2 7.6514 2H16.3024C17.9104 2 19.2974 2.537 20.3124 3.554C21.3734 4.616 21.9554 6.161 21.9534 7.905V16.05C21.9534 19.581 19.6804 21.954 16.2974 21.954Z" fill="fillColor"/>
</g>
<path fill-rule="evenodd" clip-rule="evenodd" d="M8.8564 7.68948C8.2524 7.68948 7.7614 8.18048 7.7614 8.78548C7.7614 9.38948 8.2524 9.88048 8.8574 9.88048C9.4614 9.88048 9.9534 9.38948 9.9534 8.78648C9.9524 8.18148 9.4604 7.69048 8.8564 7.68948ZM8.8574 11.3805C7.4254 11.3805 6.2614 10.2165 6.2614 8.78548C6.2614 7.35348 7.4254 6.18948 8.8574 6.18948C10.2884 6.19048 11.4524 7.35448 11.4534 8.78448V8.78548C11.4534 10.2165 10.2894 11.3805 8.8574 11.3805Z" fill="fillColor"/>
<path fill-rule="evenodd" clip-rule="evenodd" d="M3.749 20.1113C3.625 20.1113 3.499 20.0803 3.383 20.0153C3.021 19.8123 2.894 19.3553 3.096 18.9943C3.156 18.8863 4.591 16.3493 6.17 15.0493C7.422 14.0193 8.77 14.5853 9.856 15.0423C10.495 15.3113 11.099 15.5653 11.679 15.5653C12.211 15.5653 12.878 14.6253 13.468 13.7963C14.287 12.6403 15.217 11.3323 16.579 11.3323C18.749 11.3323 20.622 13.2683 21.629 14.3083L21.745 14.4283C22.033 14.7253 22.026 15.2003 21.729 15.4893C21.434 15.7783 20.959 15.7713 20.669 15.4733L20.551 15.3513C19.699 14.4703 18.113 12.8323 16.579 12.8323C15.991 12.8323 15.301 13.8053 14.69 14.6643C13.852 15.8443 12.985 17.0653 11.679 17.0653C10.796 17.0653 9.987 16.7253 9.274 16.4243C8.14 15.9463 7.626 15.7933 7.123 16.2073C5.759 17.3313 4.417 19.7053 4.404 19.7283C4.267 19.9733 4.012 20.1113 3.749 20.1113Z" fill="fillColor"/>
</svg>
