<svg width="24" height="24" viewBox="0 0 24 24" fill="none" xmlns="http://www.w3.org/2000/svg">
<path fill-rule="evenodd" clip-rule="evenodd" d="M9.7608 15.6172C9.5688 15.6172 9.3768 15.5442 9.2308 15.3972C8.4928 14.6602 8.0858 13.6802 8.0858 12.6382C8.0858 10.4782 9.8418 8.72119 11.9998 8.72119C13.0378 8.72119 14.0458 9.14019 14.7648 9.87119C15.0548 10.1672 15.0518 10.6412 14.7558 10.9312C14.4608 11.2232 13.9868 11.2182 13.6958 10.9242C13.2568 10.4772 12.6388 10.2212 11.9998 10.2212C10.6688 10.2212 9.5858 11.3052 9.5858 12.6382C9.5858 13.2792 9.8368 13.8832 10.2908 14.3372C10.5838 14.6302 10.5838 15.1042 10.2918 15.3972C10.1448 15.5442 9.9528 15.6172 9.7608 15.6172Z" fill="fillColor"/>
<path fill-rule="evenodd" clip-rule="evenodd" d="M12.5674 16.4912C12.2124 16.4912 11.8964 16.2372 11.8304 15.8752C11.7564 15.4682 12.0264 15.0772 12.4344 15.0032C13.4144 14.8252 14.1904 14.0472 14.3664 13.0662C14.4404 12.6592 14.8304 12.3912 15.2374 12.4612C15.6454 12.5342 15.9164 12.9242 15.8434 13.3322C15.5564 14.9252 14.2944 16.1892 12.7024 16.4792C12.6574 16.4872 12.6114 16.4912 12.5674 16.4912Z" fill="fillColor"/>
<mask id="mask0_430_8722" style="mask-type:luminance" maskUnits="userSpaceOnUse" x="2" y="4" width="17" height="15">
<path fill-rule="evenodd" clip-rule="evenodd" d="M2 4.62448H18.0862V18.7226H2V4.62448Z" fill="white"/>
</mask>
<g mask="url(#mask0_430_8722)">
<path fill-rule="evenodd" clip-rule="evenodd" d="M6.65439 18.7226C6.49239 18.7226 6.32939 18.6696 6.19139 18.5626C4.50039 17.2346 3.07139 15.2876 2.06139 12.9336C1.97939 12.7436 1.97939 12.5296 2.06139 12.3406C3.08239 9.97661 4.52039 8.01961 6.22039 6.68261C9.68639 3.93961 14.3004 3.93061 17.8014 6.70261C18.1264 6.95961 18.1814 7.43161 17.9244 7.75661C17.6664 8.07961 17.1964 8.13661 16.8704 7.87861C13.9044 5.53061 10.0834 5.53861 7.14939 7.86061C5.71339 8.99061 4.48039 10.6366 3.57039 12.6386C4.47139 14.6286 5.69339 16.2646 7.11839 17.3826C7.44439 17.6386 7.50039 18.1106 7.24439 18.4356C7.09639 18.6236 6.87639 18.7226 6.65439 18.7226Z" fill="fillColor"/>
</g>
<mask id="mask1_430_8722" style="mask-type:luminance" maskUnits="userSpaceOnUse" x="8" y="8" width="14" height="13">
<path fill-rule="evenodd" clip-rule="evenodd" d="M8.71747 8.74118H22V20.6894H8.71747V8.74118Z" fill="white"/>
</mask>
<g mask="url(#mask1_430_8722)">
<path fill-rule="evenodd" clip-rule="evenodd" d="M12.0001 20.6894C11.0631 20.6894 10.1311 20.5374 9.2311 20.2384C8.8381 20.1074 8.6251 19.6824 8.7561 19.2894C8.8871 18.8954 9.3101 18.6864 9.7051 18.8144C10.4521 19.0634 11.2241 19.1894 12.0001 19.1894C15.4281 19.1894 18.5611 16.7474 20.4301 12.6364C19.9741 11.6374 19.4431 10.7324 18.8491 9.94239C18.6001 9.61139 18.6661 9.14039 18.9971 8.89139C19.3271 8.64239 19.7981 8.71039 20.0471 9.04039C20.7711 10.0014 21.4071 11.1124 21.9381 12.3384C22.0211 12.5284 22.0211 12.7444 21.9381 12.9334C19.8421 17.7904 16.1271 20.6894 12.0001 20.6894Z" fill="fillColor"/>
</g>
<mask id="mask2_430_8722" style="mask-type:luminance" maskUnits="userSpaceOnUse" x="3" y="4" width="18" height="18">
<path fill-rule="evenodd" clip-rule="evenodd" d="M3.36356 4.0004H20.6371V21.2734H3.36356V4.0004Z" fill="white"/>
</mask>
<g mask="url(#mask2_430_8722)">
<path fill-rule="evenodd" clip-rule="evenodd" d="M4.11331 21.2734C3.92131 21.2734 3.72931 21.2004 3.58331 21.0534C3.29031 20.7604 3.29031 20.2864 3.58331 19.9934L19.3573 4.21938C19.6503 3.92638 20.1243 3.92638 20.4173 4.21938C20.7103 4.51238 20.7103 4.98738 20.4173 5.28038L4.64331 21.0534C4.49731 21.2004 4.30531 21.2734 4.11331 21.2734Z" fill="fillColor"/>
</g>
</svg>
