<svg width="24" height="24" viewBox="0 0 24 24" fill="none" xmlns="http://www.w3.org/2000/svg">
<mask id="mask0_430_8597" style="mask-type:luminance" maskUnits="userSpaceOnUse" x="4" y="2" width="17" height="21">
<path fill-rule="evenodd" clip-rule="evenodd" d="M4.00018 2.0004H20.967V22.356H4.00018V2.0004Z" fill="white"/>
</mask>
<g mask="url(#mask0_430_8597)">
<path fill-rule="evenodd" clip-rule="evenodd" d="M12.4836 3.5C11.6356 3.5 6.2856 5.384 5.6686 5.899C5.4866 6.082 5.4796 6.4 5.5186 8.529C5.5366 9.555 5.5616 10.949 5.5616 12.879C5.5616 18.08 11.2836 20.389 12.4826 20.814C13.6806 20.387 19.4056 18.065 19.4056 12.879C19.4056 10.947 19.4306 9.552 19.4496 8.526C19.4876 6.399 19.4806 6.081 19.2876 5.889C18.6826 5.384 13.3316 3.5 12.4836 3.5ZM12.4836 22.356C12.4106 22.356 12.3376 22.346 12.2666 22.324C11.9316 22.223 4.0616 19.761 4.0616 12.879C4.0616 10.962 4.0366 9.575 4.0186 8.557C3.9726 6.014 3.9626 5.484 4.6196 4.828C5.4046 4.041 11.3496 2 12.4836 2C13.6166 2 19.5616 4.041 20.3486 4.828C21.0046 5.484 20.9946 6.014 20.9486 8.554C20.9306 9.572 20.9056 10.959 20.9056 12.879C20.9056 19.761 13.0356 22.223 12.7006 22.324C12.6296 22.346 12.5566 22.356 12.4836 22.356Z" fill="fillColor"/>
</g>
<path fill-rule="evenodd" clip-rule="evenodd" d="M11.7771 14.5195C11.5781 14.5195 11.3871 14.4405 11.2461 14.2995L9.3541 12.4055C9.0621 12.1125 9.0621 11.6365 9.3551 11.3445C9.6471 11.0515 10.1231 11.0515 10.4161 11.3445L11.7771 12.7075L15.1451 9.3395C15.4381 9.0465 15.9121 9.0465 16.2051 9.3395C16.4981 9.6325 16.4981 10.1075 16.2051 10.4005L12.3071 14.2995C12.1671 14.4405 11.9761 14.5195 11.7771 14.5195Z" fill="fillColor"/>
</svg>
