<svg width="24" height="24" viewBox="0 0 24 24" fill="none" xmlns="http://www.w3.org/2000/svg">
<mask id="mask0_430_8373" style="mask-type:luminance" maskUnits="userSpaceOnUse" x="3" y="2" width="18" height="20">
<path fill-rule="evenodd" clip-rule="evenodd" d="M3.00023 2.01172H20.0524V21.8652H3.00023V2.01172Z" fill="white"/>
</mask>
<g mask="url(#mask0_430_8373)">
<path fill-rule="evenodd" clip-rule="evenodd" d="M7.5733 3.51172C5.9163 3.51172 4.5403 4.85372 4.5013 6.50872V17.2277C4.4653 18.9287 5.8053 20.3287 7.4903 20.3657H15.5733C17.2423 20.3057 18.5633 18.9287 18.5523 17.2327V8.33972L13.9183 3.51172H7.5853H7.5733ZM7.5853 21.8657H7.4593C4.9473 21.8117 2.9473 19.7237 3.0013 17.2117V6.49072C3.0603 4.00972 5.1083 2.01172 7.5703 2.01172H7.5883H14.2373C14.4413 2.01172 14.6363 2.09472 14.7783 2.24172L19.8443 7.51872C19.9773 7.65772 20.0523 7.84472 20.0523 8.03772V17.2277C20.0683 19.7367 18.1123 21.7757 15.5993 21.8657H7.5853Z" fill="fillColor"/>
</g>
<path fill-rule="evenodd" clip-rule="evenodd" d="M19.2979 8.98431H16.5439C14.7129 8.97931 13.2259 7.48731 13.2259 5.65931V2.75031C13.2259 2.33631 13.5619 2.00031 13.9759 2.00031C14.3899 2.00031 14.7259 2.33631 14.7259 2.75031V5.65931C14.7259 6.66331 15.5419 7.48131 16.5459 7.48431H19.2979C19.7119 7.48431 20.0479 7.82031 20.0479 8.23431C20.0479 8.64831 19.7119 8.98431 19.2979 8.98431Z" fill="fillColor"/>
<path fill-rule="evenodd" clip-rule="evenodd" d="M11.1427 16.7002C10.7287 16.7002 10.3927 16.3642 10.3927 15.9502V9.90918C10.3927 9.49518 10.7287 9.15918 11.1427 9.15918C11.5567 9.15918 11.8927 9.49518 11.8927 9.90918V15.9502C11.8927 16.3642 11.5567 16.7002 11.1427 16.7002Z" fill="fillColor"/>
<path fill-rule="evenodd" clip-rule="evenodd" d="M11.1417 16.6992C10.9427 16.6992 10.7507 16.6202 10.6107 16.4782L8.2657 14.1242C7.9737 13.8302 7.9747 13.3552 8.2677 13.0632C8.5617 12.7712 9.0367 12.7712 9.3287 13.0652L11.1417 14.8872L12.9547 13.0652C13.2467 12.7712 13.7217 12.7712 14.0157 13.0632C14.3087 13.3552 14.3097 13.8302 14.0177 14.1242L11.6727 16.4782C11.5327 16.6202 11.3407 16.6992 11.1417 16.6992Z" fill="fillColor"/>
</svg>
