<svg width="24" height="24" viewBox="0 0 24 24" fill="none" xmlns="http://www.w3.org/2000/svg">
<path fill-rule="evenodd" clip-rule="evenodd" d="M16.5771 22.3687H7.75312C4.31212 22.3687 2.00012 19.9537 2.00012 16.3597V8.04571C2.00012 4.45171 4.31212 2.03671 7.75312 2.03671H11.4921C11.9061 2.03671 12.2421 2.37271 12.2421 2.78671C12.2421 3.20071 11.9061 3.53671 11.4921 3.53671H7.75312C5.16912 3.53671 3.50012 5.30671 3.50012 8.04571V16.3597C3.50012 19.0987 5.16912 20.8687 7.75312 20.8687H16.5771C19.1611 20.8687 20.8311 19.0987 20.8311 16.3597V12.3317C20.8311 11.9177 21.1671 11.5817 21.5811 11.5817C21.9951 11.5817 22.3311 11.9177 22.3311 12.3317V16.3597C22.3311 19.9537 20.0181 22.3687 16.5771 22.3687Z" fill="fillColor"/>
<path fill-rule="evenodd" clip-rule="evenodd" d="M8.86774 15.4283H11.8447C12.2247 15.4283 12.5807 15.2813 12.8497 15.0123L20.3587 7.50331C20.6667 7.19531 20.8367 6.78531 20.8367 6.34931C20.8367 5.91231 20.6667 5.50131 20.3587 5.19331L19.1417 3.97631C18.5047 3.34131 17.4687 3.34131 16.8307 3.97631L9.35774 11.4493C9.09874 11.7083 8.95174 12.0523 8.94274 12.4173L8.86774 15.4283ZM11.8447 16.9283H8.09874C7.89674 16.9283 7.70274 16.8463 7.56174 16.7013C7.42074 16.5573 7.34374 16.3623 7.34874 16.1593L7.44274 12.3803C7.46174 11.6283 7.76474 10.9213 8.29674 10.3883H8.29774L15.7707 2.91531C16.9927 1.69531 18.9797 1.69531 20.2017 2.91531L21.4187 4.13231C22.0117 4.72431 22.3377 5.51131 22.3367 6.34931C22.3367 7.1873 22.0107 7.97331 21.4187 8.56431L13.9097 16.0733C13.3587 16.6243 12.6247 16.9283 11.8447 16.9283Z" fill="fillColor"/>
<path fill-rule="evenodd" clip-rule="evenodd" d="M19.731 9.9166C19.539 9.9166 19.347 9.8436 19.201 9.6966L14.635 5.1306C14.342 4.8376 14.342 4.3626 14.635 4.0696C14.928 3.7766 15.402 3.7766 15.695 4.0696L20.261 8.6366C20.554 8.9296 20.554 9.4036 20.261 9.6966C20.115 9.8436 19.923 9.9166 19.731 9.9166Z" fill="fillColor"/>
</svg>
