<svg width="24" height="24" viewBox="0 0 24 24" fill="none" xmlns="http://www.w3.org/2000/svg">
<path fill-rule="evenodd" clip-rule="evenodd" d="M12 3.5C7.313 3.5 3.5 7.313 3.5 12C3.5 16.687 7.313 20.5 12 20.5C16.687 20.5 20.5 16.687 20.5 12C20.5 7.313 16.687 3.5 12 3.5ZM12 22C6.486 22 2 17.514 2 12C2 6.486 6.486 2 12 2C17.514 2 22 6.486 22 12C22 17.514 17.514 22 12 22Z" fill="fillColor"/>
<path fill-rule="evenodd" clip-rule="evenodd" d="M15.9482 13.0137C15.3952 13.0137 14.9432 12.5667 14.9432 12.0137C14.9432 11.4607 15.3862 11.0137 15.9382 11.0137H15.9482C16.5012 11.0137 16.9482 11.4607 16.9482 12.0137C16.9482 12.5667 16.5012 13.0137 15.9482 13.0137Z" fill="fillColor"/>
<path fill-rule="evenodd" clip-rule="evenodd" d="M11.9385 13.0137C11.3855 13.0137 10.9345 12.5667 10.9345 12.0137C10.9345 11.4607 11.3765 11.0137 11.9295 11.0137H11.9385C12.4915 11.0137 12.9385 11.4607 12.9385 12.0137C12.9385 12.5667 12.4915 13.0137 11.9385 13.0137Z" fill="fillColor"/>
<path fill-rule="evenodd" clip-rule="evenodd" d="M7.9297 13.0137C7.3767 13.0137 6.9247 12.5667 6.9247 12.0137C6.9247 11.4607 7.3677 11.0137 7.9207 11.0137H7.9297C8.4827 11.0137 8.9297 11.4607 8.9297 12.0137C8.9297 12.5667 8.4827 13.0137 7.9297 13.0137Z" fill="fillColor"/>
</svg>
