<svg width="24" height="24" viewBox="0 0 24 24" fill="none" xmlns="http://www.w3.org/2000/svg">
<path d="M11.7257 20C11.346 20 11.0322 19.7178 10.9826 19.3518L10.9757 19.25L10.9757 4.25C10.9757 3.83579 11.3115 3.5 11.7257 3.5C12.1054 3.5 12.4192 3.78215 12.4689 4.14823L12.4757 4.25L12.4757 19.25C12.4757 19.6642 12.1399 20 11.7257 20Z" fill="fillColor"/>
<path d="M6.23278 10.829C5.94051 11.1225 5.46564 11.1235 5.17212 10.8313C4.90528 10.5656 4.88018 10.149 5.0974 9.85489L5.16983 9.77062L11.1938 3.72062C11.4603 3.45298 11.8784 3.42863 12.1725 3.64759L12.2567 3.72057L18.2817 9.77057C18.574 10.0641 18.573 10.5389 18.2795 10.8312C18.0127 11.0969 17.596 11.1203 17.3028 10.9018L17.2189 10.829L11.725 5.313L6.23278 10.829Z" fill="fillColor"/>
</svg>
