<svg width="24" height="24" viewBox="0 0 24 24" fill="none" xmlns="http://www.w3.org/2000/svg">
<mask id="mask0_430_8490" style="mask-type:luminance" maskUnits="userSpaceOnUse" x="2" y="14" width="16" height="8">
<path fill-rule="evenodd" clip-rule="evenodd" d="M2 14.456H17.754V21.7949H2V14.456Z" fill="white"/>
</mask>
<g mask="url(#mask0_430_8490)">
<path fill-rule="evenodd" clip-rule="evenodd" d="M9.877 15.956C5.646 15.956 3.5 16.683 3.5 18.115C3.5 19.561 5.646 20.295 9.877 20.295C14.108 20.295 16.254 19.568 16.254 18.137C16.254 16.689 14.108 15.956 9.877 15.956ZM9.877 21.795C7.929 21.795 2 21.795 2 18.115C2 14.835 6.495 14.456 9.877 14.456C11.825 14.456 17.754 14.456 17.754 18.137C17.754 21.416 13.259 21.795 9.877 21.795Z" fill="fillColor"/>
</g>
<path fill-rule="evenodd" clip-rule="evenodd" d="M9.877 3.5C7.773 3.5 6.06 5.213 6.06 7.318C6.056 8.337 6.448 9.292 7.163 10.013C7.879 10.733 8.833 11.132 9.849 11.136L9.877 11.886V11.136C11.982 11.136 13.695 9.423 13.695 7.318C13.695 5.213 11.982 3.5 9.877 3.5ZM9.877 12.636H9.846C8.427 12.631 7.097 12.074 6.1 11.07C5.102 10.065 4.555 8.731 4.56 7.315C4.56 4.386 6.945 2 9.877 2C12.81 2 15.195 4.386 15.195 7.318C15.195 10.25 12.81 12.636 9.877 12.636Z" fill="fillColor"/>
<path fill-rule="evenodd" clip-rule="evenodd" d="M19.2041 13.4297C18.7901 13.4297 18.4541 13.0937 18.4541 12.6797V8.6687C18.4541 8.2547 18.7901 7.9187 19.2041 7.9187C19.6181 7.9187 19.9541 8.2547 19.9541 8.6687V12.6797C19.9541 13.0937 19.6181 13.4297 19.2041 13.4297Z" fill="fillColor"/>
<path fill-rule="evenodd" clip-rule="evenodd" d="M21.25 11.4238H17.16C16.746 11.4238 16.41 11.0878 16.41 10.6738C16.41 10.2598 16.746 9.9238 17.16 9.9238H21.25C21.664 9.9238 22 10.2598 22 10.6738C22 11.0878 21.664 11.4238 21.25 11.4238Z" fill="fillColor"/>
</svg>
