<svg width="24" height="24" viewBox="0 0 24 24" fill="none" xmlns="http://www.w3.org/2000/svg">
<path fill-rule="evenodd" clip-rule="evenodd" d="M11.7512 11.5498C11.3372 11.5498 11.0012 11.8858 11.0012 12.2998V21.2498C11.0012 21.6638 11.3372 21.9998 11.7512 21.9998C12.1652 21.9998 12.5012 21.6638 12.5012 21.2498V12.2998C12.5012 11.8858 12.1652 11.5498 11.7512 11.5498Z" fill="fillColor"/>
<mask id="mask0_430_8972" style="mask-type:luminance" maskUnits="userSpaceOnUse" x="6" y="3" width="12" height="11">
<path fill-rule="evenodd" clip-rule="evenodd" d="M6.00006 13.0498H17.502V3.61327H6.00006V13.0498Z" fill="white"/>
</mask>
<g mask="url(#mask0_430_8972)">
<path fill-rule="evenodd" clip-rule="evenodd" d="M8.10961 11.5498L11.7516 5.77077L15.3926 11.5498H8.10961ZM11.7516 3.61277C11.4936 3.61277 11.2546 3.74477 11.1166 3.96377L6.11561 11.9008C5.96961 12.1308 5.96161 12.4228 6.09361 12.6618C6.22561 12.9018 6.47661 13.0498 6.75061 13.0498H16.7526C17.0256 13.0498 17.2766 12.9018 17.4086 12.6618C17.5416 12.4228 17.5326 12.1308 17.3866 11.9008L12.3856 3.96377C12.2486 3.74477 12.0086 3.61277 11.7516 3.61277Z" fill="fillColor"/>
</g>
</svg>
