<svg width="24" height="24" viewBox="0 0 24 24" fill="none" xmlns="http://www.w3.org/2000/svg">
<mask id="mask0_430_8349" style="mask-type:luminance" maskUnits="userSpaceOnUse" x="2" y="5" width="16" height="16">
<path fill-rule="evenodd" clip-rule="evenodd" d="M2.00018 5.00024H17.5005V20.5016H2.00018V5.00024Z" fill="white"/>
</mask>
<g mask="url(#mask0_430_8349)">
<path fill-rule="evenodd" clip-rule="evenodd" d="M6.84729 6.50159C6.40829 6.50159 6.12529 6.50159 6.07629 6.50359C5.33829 6.53459 4.65729 6.84759 4.16629 7.38359C3.70829 7.88459 3.47229 8.52459 3.50329 9.18859C3.50329 12.0816 3.50429 16.4236 3.51129 16.6616C3.62529 18.0466 4.92329 19.1056 6.40929 18.9916C9.15929 18.9956 13.2333 19.0046 13.4243 18.9976C14.1593 18.9676 14.8413 18.6556 15.3323 18.1206C15.7913 17.6216 16.0273 16.9816 15.9983 16.3206C15.9973 16.3096 15.9973 16.2986 15.9973 16.2876C15.9983 13.4276 15.9983 9.08859 15.9913 8.85559C15.8783 7.46359 14.5743 6.39159 13.0803 6.50859C11.0143 6.50559 8.19529 6.50159 6.84729 6.50159ZM6.14629 20.5016C4.03229 20.5026 2.18829 18.8826 2.01429 16.7576C2.01129 16.7166 2.00129 16.5916 2.00429 9.22259C1.95629 8.19159 2.33029 7.16759 3.06029 6.37059C3.82229 5.53859 4.87329 5.05359 6.02029 5.00459C6.15929 4.99459 10.9673 5.00659 13.0263 5.01059C15.2763 4.85259 17.3073 6.52259 17.4883 8.76359C17.4963 8.87259 17.4993 11.3976 17.4973 16.2726C17.5393 17.3286 17.1633 18.3456 16.4373 19.1356C15.6743 19.9666 14.6223 20.4496 13.4763 20.4966C13.3363 20.5066 8.52629 20.4936 6.46429 20.4896C6.35829 20.4976 6.25229 20.5016 6.14629 20.5016Z" fill="fillColor"/>
</g>
<path fill-rule="evenodd" clip-rule="evenodd" d="M20.8185 18.3493C20.3675 18.3493 19.9225 18.1943 19.5555 17.8933L16.2745 15.1973C15.9545 14.9343 15.9085 14.4613 16.1715 14.1413C16.4335 13.8223 16.9065 13.7743 17.2265 14.0383L20.5065 16.7343C20.7275 16.9143 20.9495 16.8403 21.0355 16.7983C21.1215 16.7583 21.3205 16.6333 21.3205 16.3493L21.3325 9.00031C21.3335 8.71631 21.1335 8.59131 21.0475 8.55031C20.9625 8.51031 20.7375 8.43531 20.5185 8.61531L17.2255 11.3103C16.9035 11.5733 16.4325 11.5263 16.1705 11.2043C15.9075 10.8843 15.9555 10.4123 16.2755 10.1503L19.5685 7.45431C20.1725 6.95931 20.9855 6.86231 21.6905 7.19531C22.3955 7.53031 22.8335 8.22231 22.8325 9.00231L22.8205 16.3513C22.8195 17.1313 22.3805 17.8233 21.6765 18.1553C21.4005 18.2863 21.1085 18.3493 20.8185 18.3493Z" fill="fillColor"/>
</svg>
