<svg width="24" height="24" viewBox="0 0 24 24" fill="none" xmlns="http://www.w3.org/2000/svg">
<path d="M4.7949 7.05601C4.7949 5.80701 5.8069 4.79501 7.0559 4.79401H8.0849C8.6819 4.79401 9.2539 4.55701 9.6779 4.13701L10.3969 3.41701C11.2779 2.53101 12.7099 2.52701 13.5959 3.40801L13.5969 3.40901L13.6059 3.41701L14.3259 4.13701C14.7499 4.55801 15.3219 4.79401 15.9189 4.79401H16.9469C18.1959 4.79401 19.2089 5.80601 19.2089 7.05601V8.08301C19.2089 8.68001 19.4449 9.25301 19.8659 9.67701L20.5859 10.397C21.4719 11.278 21.4769 12.71 20.5959 13.596L20.5949 13.597L20.5859 13.606L19.8659 14.326C19.4449 14.749 19.2089 15.321 19.2089 15.918V16.947C19.2089 18.196 18.1969 19.208 16.9479 19.208H16.9469H15.9169C15.3199 19.208 14.7469 19.445 14.3239 19.866L13.6039 20.585C12.7239 21.471 11.2929 21.476 10.4069 20.597C10.4059 20.596 10.4049 20.595 10.4039 20.594L10.3949 20.585L9.6759 19.866C9.2529 19.445 8.6799 19.209 8.0829 19.208H7.0559C5.8069 19.208 4.7949 18.196 4.7949 16.947V15.916C4.7949 15.319 4.5579 14.747 4.1369 14.324L3.4179 13.604C2.5319 12.724 2.5269 11.293 3.4069 10.407C3.4069 10.406 3.4079 10.405 3.4089 10.404L3.4179 10.395L4.1369 9.67501C4.5579 9.25101 4.7949 8.67901 4.7949 8.08101V7.05601" stroke="strokeColor"/>
<path d="M9.4316 14.5718L14.5716 9.43176" stroke="strokeColor"/>
<path d="M14.4955 14.5H14.5045" stroke="strokeColor"/>
<path d="M9.4955 9.5H9.5045" stroke="strokeColor"/>
</svg>
