<svg width="24" height="24" viewBox="0 0 24 24" fill="none" xmlns="http://www.w3.org/2000/svg">
<path fill-rule="evenodd" clip-rule="evenodd" d="M7.666 20.5C5.136 20.5 3.5 18.767 3.5 16.084V7.916C3.5 5.233 5.136 3.5 7.666 3.5H16.335C18.865 3.5 20.5 5.233 20.5 7.916V16.084C20.5 18.767 18.865 20.5 16.335 20.5H7.666ZM16.335 2H7.666C4.277 2 2 4.378 2 7.916V16.084C2 19.622 4.277 22 7.666 22H16.335C19.724 22 22 19.622 22 16.084V7.916C22 4.378 19.724 2 16.335 2Z" fill="fillColor"/>
<path fill-rule="evenodd" clip-rule="evenodd" d="M12 7.16409C11.586 7.16409 11.25 7.50009 11.25 7.91409V16.0861C11.25 16.5001 11.586 16.8361 12 16.8361C12.414 16.8361 12.75 16.5001 12.75 16.0861V7.91409C12.75 7.50009 12.414 7.16409 12 7.16409Z" fill="fillColor"/>
<path fill-rule="evenodd" clip-rule="evenodd" d="M12 7.16311C11.801 7.16311 11.609 7.24211 11.469 7.38411L7.72101 11.1481C7.42801 11.4421 7.43001 11.9171 7.72301 12.2091C8.01701 12.5001 8.49101 12.5021 8.78301 12.2071L12 8.97611L15.217 12.2071C15.51 12.5021 15.984 12.5001 16.277 12.2091C16.57 11.9171 16.572 11.4421 16.279 11.1481L12.531 7.38411C12.391 7.24211 12.199 7.16311 12 7.16311Z" fill="fillColor"/>
</svg>
