<svg width="24" height="24" viewBox="0 0 24 24" fill="none" xmlns="http://www.w3.org/2000/svg">
<mask id="mask0_430_8455" style="mask-type:luminance" maskUnits="userSpaceOnUse" x="2" y="2" width="20" height="20">
<path fill-rule="evenodd" clip-rule="evenodd" d="M2.0004 2H21.5V21.5007H2.0004V2Z" fill="white"/>
</mask>
<g mask="url(#mask0_430_8455)">
<path fill-rule="evenodd" clip-rule="evenodd" d="M8.7734 11.5987C8.7914 11.6147 8.8084 11.6297 8.8254 11.6477C9.9044 12.7537 10.4994 14.2187 10.4994 15.7737V19.7577L12.7354 18.5397C12.9114 18.4437 13.0204 18.2557 13.0204 18.0487V15.7617C13.0204 14.2127 13.6094 12.7527 14.6784 11.6527L19.5154 6.50769C19.8284 6.17469 20.0004 5.73769 20.0004 5.27669V4.34069C20.0004 3.87669 19.6344 3.49969 19.1864 3.49969H4.3154C3.8664 3.49969 3.5004 3.87669 3.5004 4.34069V5.27669C3.5004 5.73769 3.6724 6.1747 3.9854 6.50669L8.7734 11.5987ZM10.1464 21.5007C9.9444 21.5007 9.7444 21.4467 9.5624 21.3387C9.2104 21.1287 8.9994 20.7577 8.9994 20.3457V15.7737C8.9994 14.6387 8.5764 13.5697 7.8054 12.7507C7.7824 12.7317 7.7594 12.7107 7.7394 12.6887L2.8934 7.53569C2.3174 6.92369 2.0004 6.12069 2.0004 5.27669V4.34069C2.0004 3.04969 3.0394 1.99969 4.3154 1.99969H19.1864C20.4614 1.99969 21.5004 3.04969 21.5004 4.34069V5.27669C21.5004 6.11969 21.1834 6.92169 20.6094 7.53469L15.7624 12.6887C14.9594 13.5167 14.5204 14.6057 14.5204 15.7617V18.0487C14.5204 18.8047 14.1114 19.4967 13.4534 19.8567L10.6924 21.3607C10.5204 21.4537 10.3334 21.5007 10.1464 21.5007Z" fill="fillColor"/>
</g>
</svg>
