<svg width="24" height="24" viewBox="0 0 24 24" fill="none" xmlns="http://www.w3.org/2000/svg">
<path fill-rule="evenodd" clip-rule="evenodd" d="M15.791 12.75H3.75C3.336 12.75 3 12.414 3 12C3 11.586 3.336 11.25 3.75 11.25H15.791C16.205 11.25 16.541 11.586 16.541 12C16.541 12.414 16.205 12.75 15.791 12.75Z" fill="fillColor"/>
<path fill-rule="evenodd" clip-rule="evenodd" d="M12.8633 15.665C12.6713 15.665 12.4783 15.592 12.3323 15.444C12.0393 15.15 12.0413 14.676 12.3343 14.384L14.7283 12L12.3343 9.61501C12.0413 9.32301 12.0393 8.84901 12.3323 8.55501C12.6253 8.26101 13.0993 8.26101 13.3923 8.55301L16.3213 11.469C16.4633 11.609 16.5423 11.801 16.5423 12C16.5423 12.199 16.4633 12.391 16.3213 12.531L13.3923 15.446C13.2463 15.592 13.0543 15.665 12.8633 15.665Z" fill="fillColor"/>
<path fill-rule="evenodd" clip-rule="evenodd" d="M17.042 22H12.157C9.718 22 7.733 20.015 7.733 17.575V16.633C7.733 16.219 8.069 15.883 8.483 15.883C8.897 15.883 9.233 16.219 9.233 16.633V17.575C9.233 19.187 10.545 20.5 12.157 20.5H17.042C18.661 20.5 19.978 19.184 19.978 17.564V6.425C19.978 4.813 18.665 3.5 17.053 3.5H12.168C10.55 3.5 9.233 4.816 9.233 6.434V7.367C9.233 7.781 8.897 8.117 8.483 8.117C8.069 8.117 7.733 7.781 7.733 7.367V6.434C7.733 3.989 9.723 2 12.168 2H17.053C19.492 2 21.478 3.985 21.478 6.425V17.564C21.478 20.01 19.487 22 17.042 22Z" fill="fillColor"/>
</svg>
