<svg width="24" height="24" viewBox="0 0 24 24" fill="none" xmlns="http://www.w3.org/2000/svg">
<path fill-rule="evenodd" clip-rule="evenodd" d="M12.001 16.5411C11.587 16.5411 11.251 16.2051 11.251 15.7911V3.75009C11.251 3.33609 11.587 3.00009 12.001 3.00009C12.415 3.00009 12.751 3.33609 12.751 3.75009V15.7911C12.751 16.2051 12.415 16.5411 12.001 16.5411Z" fill="fillColor"/>
<path fill-rule="evenodd" clip-rule="evenodd" d="M12.001 16.5411C11.802 16.5411 11.61 16.4621 11.47 16.3201L8.55401 13.3931C8.26201 13.0991 8.26301 12.6241 8.55601 12.3321C8.85001 12.0401 9.32401 12.0401 9.61601 12.3341L12.001 14.7291L14.386 12.3341C14.678 12.0401 15.152 12.0401 15.446 12.3321C15.739 12.6241 15.74 13.0991 15.448 13.3931L12.532 16.3201C12.392 16.4621 12.2 16.5411 12.001 16.5411Z" fill="fillColor"/>
<mask id="mask0_430_8618" style="mask-type:luminance" maskUnits="userSpaceOnUse" x="2" y="7" width="20" height="15">
<path fill-rule="evenodd" clip-rule="evenodd" d="M2.00021 7.7326H22V21.4766H2.00021V7.7326Z" fill="white"/>
</mask>
<g mask="url(#mask0_430_8618)">
<path fill-rule="evenodd" clip-rule="evenodd" d="M17.5752 21.4766H6.43521C3.99021 21.4766 2.00021 19.4876 2.00021 17.0416V12.1566C2.00021 9.7166 3.98521 7.7326 6.42621 7.7326H7.36721C7.78121 7.7326 8.11721 8.0686 8.11721 8.4826C8.11721 8.89661 7.78121 9.2326 7.36721 9.2326H6.42621C4.81221 9.2326 3.50021 10.5436 3.50021 12.1566V17.0416C3.50021 18.6606 4.81621 19.9766 6.43521 19.9766H17.5752C19.1872 19.9766 20.5002 18.6636 20.5002 17.0516V12.1676C20.5002 10.5486 19.1832 9.2326 17.5662 9.2326H16.6342C16.2202 9.2326 15.8842 8.89661 15.8842 8.4826C15.8842 8.0686 16.2202 7.7326 16.6342 7.7326H17.5662C20.0112 7.7326 22.0002 9.7226 22.0002 12.1676V17.0516C22.0002 19.4916 20.0142 21.4766 17.5752 21.4766Z" fill="fillColor"/>
</g>
</svg>
