<svg width="24" height="24" viewBox="0 0 24 24" fill="none" xmlns="http://www.w3.org/2000/svg">
<path fill-rule="evenodd" clip-rule="evenodd" d="M16.084 3.5C18.767 3.5 20.5 5.135 20.5 7.665V16.334C20.5 18.864 18.767 20.5 16.084 20.5H7.916C5.233 20.5 3.5 18.864 3.5 16.334V7.665C3.5 5.135 5.233 3.5 7.916 3.5H16.084ZM7.916 22H16.084C19.622 22 22 19.723 22 16.334V7.665C22 4.276 19.622 2 16.084 2H7.916C4.378 2 2 4.276 2 7.665V16.334C2 19.723 4.378 22 7.916 22Z" fill="fillColor"/>
<path fill-rule="evenodd" clip-rule="evenodd" d="M7.91412 12.75H16.0861C16.5001 12.75 16.8361 12.414 16.8361 12C16.8361 11.586 16.5001 11.25 16.0861 11.25H7.91412C7.50012 11.25 7.16412 11.586 7.16412 12C7.16412 12.414 7.50012 12.75 7.91412 12.75Z" fill="fillColor"/>
<path fill-rule="evenodd" clip-rule="evenodd" d="M11.6777 16.498C11.8697 16.498 12.0627 16.425 12.2087 16.277C12.5007 15.983 12.4997 15.509 12.2067 15.217L8.97669 12L12.2067 8.78301C12.4997 8.49101 12.5007 8.01701 12.2087 7.72301C11.9167 7.42901 11.4427 7.42901 11.1487 7.72101L7.38469 11.469C7.24269 11.609 7.16369 11.801 7.16369 12C7.16369 12.199 7.24269 12.391 7.38469 12.531L11.1487 16.279C11.2947 16.425 11.4867 16.498 11.6777 16.498Z" fill="fillColor"/>
</svg>
