<svg width="24" height="24" viewBox="0 0 24 24" fill="none" xmlns="http://www.w3.org/2000/svg">
<path fill-rule="evenodd" clip-rule="evenodd" d="M11.2114 11.2119L10.1644 14.5589L13.5104 13.5109L14.5584 10.1639L11.2114 11.2119ZM9.02039 16.4519C8.82439 16.4519 8.63239 16.3749 8.48939 16.2329C8.29239 16.0349 8.22039 15.7439 8.30439 15.4789L9.89739 10.3899C9.97039 10.1539 10.1544 9.97089 10.3884 9.89789L15.4774 8.30489C15.7444 8.21989 16.0344 8.29289 16.2324 8.48989C16.4294 8.68789 16.5014 8.97889 16.4174 9.24389L14.8254 14.3329C14.7524 14.5679 14.5674 14.7519 14.3334 14.8249L9.24439 16.4179C9.17039 16.4409 9.09439 16.4519 9.02039 16.4519Z" fill="fillColor"/>
<mask id="mask0_430_8842" style="mask-type:luminance" maskUnits="userSpaceOnUse" x="2" y="2" width="21" height="21">
<path fill-rule="evenodd" clip-rule="evenodd" d="M2 2H22.7218V22.7217H2V2Z" fill="white"/>
</mask>
<g mask="url(#mask0_430_8842)">
<path fill-rule="evenodd" clip-rule="evenodd" d="M12.3608 3.5C7.47482 3.5 3.49982 7.476 3.49982 12.361C3.49982 17.247 7.47482 21.222 12.3608 21.222C17.2468 21.222 21.2218 17.247 21.2218 12.361C21.2218 7.476 17.2468 3.5 12.3608 3.5ZM12.3608 22.722C6.64782 22.722 1.99982 18.074 1.99982 12.361C1.99982 6.648 6.64782 2 12.3608 2C18.0738 2 22.7218 6.648 22.7218 12.361C22.7218 18.074 18.0738 22.722 12.3608 22.722Z" fill="fillColor"/>
</g>
</svg>
