<svg width="24" height="24" viewBox="0 0 24 24" fill="none" xmlns="http://www.w3.org/2000/svg">
<mask id="mask0_430_8480" style="mask-type:luminance" maskUnits="userSpaceOnUse" x="2" y="2" width="21" height="21">
<path fill-rule="evenodd" clip-rule="evenodd" d="M2.00018 2.00018H22.0029V22.0012H2.00018V2.00018Z" fill="white"/>
</mask>
<g mask="url(#mask0_430_8480)">
<path fill-rule="evenodd" clip-rule="evenodd" d="M10.9449 20.0755C11.5349 20.6515 12.4849 20.6445 13.0709 20.0555L13.7929 19.3355C14.3529 18.7765 15.1269 18.4575 15.9159 18.4575H16.9459C17.7799 18.4575 18.4579 17.7795 18.4579 16.9465V15.9175C18.4579 15.1165 18.7679 14.3635 19.3339 13.7965L20.0539 13.0755C20.3469 12.7815 20.5039 12.4005 20.5029 11.9965C20.5019 11.5935 20.3429 11.2145 20.0559 10.9285L19.3349 10.2065C18.7679 9.63551 18.4579 8.88351 18.4579 8.08251V7.05551C18.4579 6.22151 17.7799 5.54351 16.9459 5.54351H15.9179C15.1169 5.54351 14.3639 5.23251 13.7969 4.66951L13.0749 3.94651C12.4739 3.35151 11.5149 3.35451 10.9279 3.94551L10.2089 4.66651C9.6349 5.23351 8.8819 5.54351 8.0839 5.54351H7.0549C6.2219 5.54451 5.5439 6.22251 5.5439 7.05551V8.08051C5.5439 8.88151 5.2329 9.63451 4.6689 10.2025L3.9589 10.9135C3.9519 10.9215 3.9449 10.9275 3.9379 10.9345C3.3509 11.5255 3.3539 12.4845 3.9449 13.0715L4.6669 13.7935C5.2329 14.3615 5.5439 15.1145 5.5439 15.9155V16.9465C5.5439 17.7795 6.2209 18.4575 7.0549 18.4575H8.0819C8.8839 18.4585 9.6369 18.7695 10.2039 19.3345L10.9249 20.0535C10.9309 20.0605 10.9379 20.0675 10.9449 20.0755ZM11.9989 22.0015C11.2319 22.0015 10.4649 21.7115 9.8779 21.1295C9.8699 21.1215 9.8619 21.1135 9.8539 21.1045L9.1439 20.3955C8.8609 20.1145 8.4829 19.9585 8.0809 19.9575H7.0549C5.3939 19.9575 4.0439 18.6065 4.0439 16.9465V15.9155C4.0439 15.5135 3.8869 15.1365 3.6049 14.8525L2.8859 14.1345C1.7179 12.9725 1.7039 11.0805 2.8509 9.90051C2.8599 9.89151 2.8689 9.88251 2.8779 9.87351L3.6059 9.14351C3.8869 8.86051 4.0439 8.48151 4.0439 8.08051V7.05551C4.0439 5.39551 5.3939 4.04451 7.0539 4.04351H8.0839C8.4849 4.04351 8.8629 3.88651 9.1499 3.60351L9.8649 2.88651C11.0339 1.70951 12.9449 1.70351 14.1239 2.87551L14.8549 3.60651C15.1379 3.88751 15.5159 4.04351 15.9179 4.04351H16.9459C18.6069 4.04351 19.9579 5.39451 19.9579 7.05551V8.08251C19.9579 8.48351 20.1139 8.86251 20.3969 9.14751L21.1149 9.86651C21.6839 10.4315 21.9999 11.1865 22.0029 11.9915C22.0059 12.7965 21.6949 13.5535 21.1279 14.1245L20.3949 14.8555C20.1139 15.1385 19.9579 15.5155 19.9579 15.9175V16.9465C19.9579 18.6065 18.6069 19.9575 16.9469 19.9575H15.9159C15.5199 19.9575 15.1329 20.1175 14.8519 20.3965L14.1339 21.1145C13.5469 21.7055 12.7729 22.0015 11.9989 22.0015Z" fill="fillColor"/>
</g>
<path fill-rule="evenodd" clip-rule="evenodd" d="M9.4303 15.3215C9.2383 15.3215 9.0463 15.2485 8.9003 15.1015C8.6073 14.8085 8.6073 14.3345 8.9003 14.0415L14.0403 8.90048C14.3333 8.60748 14.8083 8.60748 15.1013 8.90048C15.3943 9.19348 15.3943 9.66848 15.1013 9.96148L9.9603 15.1015C9.8143 15.2485 9.6223 15.3215 9.4303 15.3215Z" fill="fillColor"/>
<path fill-rule="evenodd" clip-rule="evenodd" d="M14.5035 15.4992C13.9505 15.4992 13.4985 15.0522 13.4985 14.4992C13.4985 13.9462 13.9415 13.4992 14.4945 13.4992H14.5035C15.0565 13.4992 15.5035 13.9462 15.5035 14.4992C15.5035 15.0522 15.0565 15.4992 14.5035 15.4992Z" fill="fillColor"/>
<path fill-rule="evenodd" clip-rule="evenodd" d="M9.5035 10.4992C8.9505 10.4992 8.4985 10.0522 8.4985 9.49921C8.4985 8.94621 8.9415 8.49921 9.4945 8.49921H9.5035C10.0565 8.49921 10.5035 8.94621 10.5035 9.49921C10.5035 10.0522 10.0565 10.4992 9.5035 10.4992Z" fill="fillColor"/>
</svg>
