<svg width="24" height="24" viewBox="0 0 24 24" fill="none" xmlns="http://www.w3.org/2000/svg">
<mask id="mask0_430_8677" style="mask-type:luminance" maskUnits="userSpaceOnUse" x="2" y="2" width="10" height="14">
<path fill-rule="evenodd" clip-rule="evenodd" d="M2 2.00049H11.2953V15.1045H2V2.00049Z" fill="white"/>
</mask>
<g mask="url(#mask0_430_8677)">
<path fill-rule="evenodd" clip-rule="evenodd" d="M6.72529 15.1045C6.51829 15.1045 6.31129 15.0185 6.16329 14.8505C0.821294 8.79849 1.58729 5.66449 3.17129 4.10049C3.18729 4.08049 3.24229 4.02649 3.25929 4.00849C4.66329 2.58349 5.62329 2.00049 6.56029 2.00049H6.58929C7.70029 2.01449 8.48529 2.85349 9.47929 3.91649C9.72329 4.17749 9.98929 4.46049 10.2833 4.75949C11.7133 6.21849 11.3073 7.40649 10.9803 8.36049C10.7443 9.05149 10.5383 9.64949 10.9123 10.5005C11.0793 10.8805 10.9073 11.3235 10.5283 11.4895C10.1463 11.6555 9.70529 11.4835 9.53929 11.1045C8.93029 9.71549 9.29429 8.65149 9.56129 7.87449C9.85029 7.03149 9.99529 6.60849 9.21329 5.81149C8.91029 5.50349 8.63629 5.21049 8.38329 4.94149C7.60429 4.10749 7.04029 3.50549 6.57029 3.50049H6.56229C6.09529 3.50049 5.36429 4.01049 4.32829 5.06149C4.32929 5.05949 4.33129 5.05849 4.33129 5.05849C4.33329 5.05849 4.28629 5.10749 4.22529 5.16749C2.08329 7.28349 5.22429 11.5205 7.28729 13.8585C7.56129 14.1685 7.53229 14.6425 7.22129 14.9175C7.07929 15.0425 6.90229 15.1045 6.72529 15.1045Z" fill="fillColor"/>
</g>
<path fill-rule="evenodd" clip-rule="evenodd" d="M17.9628 22.8174C15.6718 22.8174 12.7338 21.0784 9.2258 17.6454C8.9298 17.3554 8.9238 16.8804 9.2138 16.5854C9.5048 16.2884 9.9798 16.2844 10.2748 16.5734C14.3338 20.5464 16.7058 21.3744 18.0278 21.3164C18.9928 21.2964 19.4488 20.8074 19.6678 20.5734C19.7288 20.5084 19.7768 20.4604 19.8128 20.4284C20.8058 19.4124 21.3068 18.6644 21.3008 18.1804C21.2938 17.6874 20.6988 17.1094 19.8748 16.3084C19.6138 16.0554 19.3318 15.7814 19.0328 15.4774C18.2658 14.6954 17.8858 14.8314 17.0508 15.1334C16.0228 15.5034 14.6128 16.0134 12.5658 14.3294C12.2448 14.0664 12.1978 13.5934 12.4618 13.2744C12.7238 12.9534 13.1998 12.9074 13.5168 13.1714C14.9078 14.3094 15.6268 14.0494 16.5428 13.7214C17.4368 13.3994 18.6618 12.9614 20.1038 14.4254C20.3938 14.7214 20.6678 14.9874 20.9198 15.2334C21.9628 16.2464 22.7858 17.0464 22.7998 18.1624C22.8128 19.1144 22.2438 20.0874 20.8418 21.5194L20.7459 21.6165L20.7939 21.568C20.4909 21.892 19.6568 22.7814 18.0618 22.8164C18.0278 22.8174 17.9948 22.8174 17.9628 22.8174Z" fill="fillColor"/>
<path fill-rule="evenodd" clip-rule="evenodd" d="M4.63939 22.3994C4.45539 22.3994 4.27139 22.3324 4.12639 22.1964C3.82439 21.9134 3.80939 21.4384 4.09239 21.1364L19.0924 5.13637C19.3744 4.83337 19.8504 4.81837 20.1524 5.10237C20.4544 5.38537 20.4694 5.86037 20.1864 6.16237L5.18639 22.1624C5.03839 22.3204 4.83939 22.3994 4.63939 22.3994Z" fill="fillColor"/>
</svg>
