<svg width="24" height="24" viewBox="0 0 24 24" fill="none" xmlns="http://www.w3.org/2000/svg">
<path fill-rule="evenodd" clip-rule="evenodd" d="M6.3277 8.34743L6.9307 15.5194C6.9747 16.0714 7.4257 16.4854 7.9767 16.4854H7.9807H18.8917H18.8937C19.4147 16.4854 19.8597 16.0974 19.9337 15.5824L20.8837 9.02343C20.9057 8.86743 20.8667 8.71143 20.7717 8.58543C20.6777 8.45843 20.5397 8.37643 20.3837 8.35443C20.1747 8.36243 11.5017 8.35043 6.3277 8.34743ZM7.9747 17.9854C6.6577 17.9854 5.5427 16.9574 5.4357 15.6424L4.5197 4.74843L3.0127 4.48843C2.6037 4.41643 2.3307 4.02943 2.4007 3.62043C2.4727 3.21143 2.8677 2.94543 3.2677 3.00943L5.3477 3.36943C5.6827 3.42843 5.9377 3.70643 5.9667 4.04643L6.2017 6.84743C20.4777 6.85343 20.5237 6.86043 20.5927 6.86843C21.1497 6.94943 21.6397 7.24043 21.9737 7.68843C22.3077 8.13543 22.4477 8.68643 22.3677 9.23843L21.4187 15.7964C21.2397 17.0444 20.1557 17.9854 18.8957 17.9854H18.8907H7.9827H7.9747Z" fill="fillColor"/>
<path fill-rule="evenodd" clip-rule="evenodd" d="M17.2876 12.0437H14.5156C14.1006 12.0437 13.7656 11.7077 13.7656 11.2937C13.7656 10.8797 14.1006 10.5437 14.5156 10.5437H17.2876C17.7016 10.5437 18.0376 10.8797 18.0376 11.2937C18.0376 11.7077 17.7016 12.0437 17.2876 12.0437Z" fill="fillColor"/>
<path fill-rule="evenodd" clip-rule="evenodd" d="M7.5445 20.7019C7.8455 20.7019 8.0885 20.9449 8.0885 21.2459C8.0885 21.5469 7.8455 21.7909 7.5445 21.7909C7.2425 21.7909 6.9995 21.5469 6.9995 21.2459C6.9995 20.9449 7.2425 20.7019 7.5445 20.7019Z" fill="fillColor"/>
<mask id="mask0_430_8383" style="mask-type:luminance" maskUnits="userSpaceOnUse" x="6" y="20" width="3" height="2">
<path fill-rule="evenodd" clip-rule="evenodd" d="M6.999 21.2455C6.999 21.5475 7.242 21.7915 7.545 21.7915C7.846 21.7915 8.089 21.5475 8.089 21.2455C8.089 20.9445 7.846 20.7015 7.545 20.7015C7.242 20.7015 6.999 20.9445 6.999 21.2455Z" fill="white"/>
</mask>
<g mask="url(#mask0_430_8383)">
<path fill-rule="evenodd" clip-rule="evenodd" d="M2 26.7905H13.089V15.7015H2V26.7905Z" fill="fillColor"/>
</g>
<path fill-rule="evenodd" clip-rule="evenodd" d="M7.5435 21.0408C7.4305 21.0408 7.3385 21.1328 7.3385 21.2458C7.3385 21.4728 7.7495 21.4728 7.7495 21.2458C7.7495 21.1328 7.6565 21.0408 7.5435 21.0408ZM7.5435 22.5408C6.8295 22.5408 6.2495 21.9598 6.2495 21.2458C6.2495 20.5318 6.8295 19.9518 7.5435 19.9518C8.2575 19.9518 8.8385 20.5318 8.8385 21.2458C8.8385 21.9598 8.2575 22.5408 7.5435 22.5408Z" fill="fillColor"/>
<path fill-rule="evenodd" clip-rule="evenodd" d="M18.8248 20.7019C19.1258 20.7019 19.3698 20.9449 19.3698 21.2459C19.3698 21.5469 19.1258 21.7909 18.8248 21.7909C18.5228 21.7909 18.2798 21.5469 18.2798 21.2459C18.2798 20.9449 18.5228 20.7019 18.8248 20.7019Z" fill="fillColor"/>
<mask id="mask1_430_8383" style="mask-type:luminance" maskUnits="userSpaceOnUse" x="18" y="20" width="2" height="2">
<path fill-rule="evenodd" clip-rule="evenodd" d="M18.28 21.2455C18.28 21.5475 18.523 21.7915 18.825 21.7915C19.125 21.7915 19.37 21.5475 19.37 21.2455C19.37 20.9445 19.125 20.7015 18.825 20.7015C18.523 20.7015 18.28 20.9445 18.28 21.2455Z" fill="white"/>
</mask>
<g mask="url(#mask1_430_8383)">
<path fill-rule="evenodd" clip-rule="evenodd" d="M13.28 26.7905H24.37V15.7015H13.28V26.7905Z" fill="fillColor"/>
</g>
<path fill-rule="evenodd" clip-rule="evenodd" d="M18.8238 21.0408C18.7118 21.0408 18.6198 21.1328 18.6198 21.2458C18.6208 21.4748 19.0308 21.4728 19.0298 21.2458C19.0298 21.1328 18.9368 21.0408 18.8238 21.0408ZM18.8238 22.5408C18.1098 22.5408 17.5298 21.9598 17.5298 21.2458C17.5298 20.5318 18.1098 19.9518 18.8238 19.9518C19.5388 19.9518 20.1198 20.5318 20.1198 21.2458C20.1198 21.9598 19.5388 22.5408 18.8238 22.5408Z" fill="fillColor"/>
</svg>
