<svg width="24" height="24" viewBox="0 0 24 24" fill="none" xmlns="http://www.w3.org/2000/svg">
<path d="M12.2743 4C12.654 4 12.9678 4.28215 13.0174 4.64823L13.0243 4.75V19.75C13.0243 20.1642 12.6885 20.5 12.2743 20.5C11.8946 20.5 11.5808 20.2178 11.5311 19.8518L11.5243 19.75V4.75C11.5243 4.33579 11.8601 4 12.2743 4Z" fill="fillColor"/>
<path d="M17.7672 13.171C18.0595 12.8775 18.5344 12.8765 18.8279 13.1687C19.0947 13.4344 19.1198 13.851 18.9026 14.1451L18.8302 14.2294L12.8062 20.2794C12.5397 20.547 12.1216 20.5714 11.8275 20.3524L11.7433 20.2794L5.71827 14.2294C5.42598 13.9359 5.42696 13.4611 5.72046 13.1688C5.98728 12.9031 6.40399 12.8797 6.69715 13.0982L6.78112 13.171L12.275 18.687L17.7672 13.171Z" fill="fillColor"/>
</svg>
