<svg width="24" height="24" viewBox="0 0 24 24" fill="none" xmlns="http://www.w3.org/2000/svg">
<path d="M2.7501 3.24988L4.8301 3.60988L5.7931 15.0829C5.8701 16.0199 6.6531 16.7389 7.5931 16.7359H18.5021C19.3991 16.7379 20.1601 16.0779 20.2871 15.1899L21.2361 8.63188C21.3421 7.89888 20.8331 7.21888 20.1011 7.11288C20.0371 7.10388 5.1641 7.09888 5.1641 7.09888" stroke="strokeColor"/>
<path d="M14.1251 10.7948H16.8981" stroke="strokeColor"/>
<path fill-rule="evenodd" clip-rule="evenodd" d="M7.1544 20.2025C7.4554 20.2025 7.6984 20.4465 7.6984 20.7465C7.6984 21.0475 7.4554 21.2915 7.1544 21.2915C6.8534 21.2915 6.6104 21.0475 6.6104 20.7465C6.6104 20.4465 6.8534 20.2025 7.1544 20.2025Z" fill="fillColor"/>
<path fill-rule="evenodd" clip-rule="evenodd" d="M18.4347 20.2025C18.7357 20.2025 18.9797 20.4465 18.9797 20.7465C18.9797 21.0475 18.7357 21.2915 18.4347 21.2915C18.1337 21.2915 17.8907 21.0475 17.8907 20.7465C17.8907 20.4465 18.1337 20.2025 18.4347 20.2025Z" fill="fillColor"/>
</svg>
