<svg width="24" height="24" viewBox="0 0 24 24" fill="none" xmlns="http://www.w3.org/2000/svg">
<mask id="mask0_430_8522" style="mask-type:luminance" maskUnits="userSpaceOnUse" x="3" y="2" width="18" height="20">
<path fill-rule="evenodd" clip-rule="evenodd" d="M3.00023 2.01172H20.0524V21.8652H3.00023V2.01172Z" fill="white"/>
</mask>
<g mask="url(#mask0_430_8522)">
<path fill-rule="evenodd" clip-rule="evenodd" d="M7.5733 3.51172C5.9163 3.51172 4.5403 4.85372 4.5013 6.50872V17.2277C4.4653 18.9287 5.8053 20.3287 7.4903 20.3657H15.5733C17.2423 20.3057 18.5633 18.9287 18.5523 17.2327V8.33972L13.9183 3.51172H7.5853H7.5733ZM7.5853 21.8657H7.4593C4.9473 21.8117 2.9473 19.7237 3.0013 17.2117V6.49072C3.0603 4.00972 5.1083 2.01172 7.5703 2.01172H7.5883H14.2373C14.4413 2.01172 14.6363 2.09472 14.7783 2.24172L19.8443 7.51872C19.9773 7.65772 20.0523 7.84472 20.0523 8.03772V17.2277C20.0683 19.7367 18.1123 21.7757 15.5993 21.8657H7.5853Z" fill="fillColor"/>
</g>
<path fill-rule="evenodd" clip-rule="evenodd" d="M19.2979 8.98431H16.5439C14.7129 8.97931 13.2259 7.48731 13.2259 5.65931V2.75031C13.2259 2.33631 13.5619 2.00031 13.9759 2.00031C14.3899 2.00031 14.7259 2.33631 14.7259 2.75031V5.65931C14.7259 6.66331 15.5419 7.48131 16.5459 7.48431H19.2979C19.7119 7.48431 20.0479 7.82031 20.0479 8.23431C20.0479 8.64831 19.7119 8.98431 19.2979 8.98431Z" fill="fillColor"/>
<path fill-rule="evenodd" clip-rule="evenodd" d="M11.1417 16.7002C10.7277 16.7002 10.3917 16.3642 10.3917 15.9502V9.90918C10.3917 9.49518 10.7277 9.15918 11.1417 9.15918C11.5557 9.15918 11.8917 9.49518 11.8917 9.90918V15.9502C11.8917 16.3642 11.5557 16.7002 11.1417 16.7002Z" fill="fillColor"/>
<path fill-rule="evenodd" clip-rule="evenodd" d="M8.79699 13.0146C8.60599 13.0146 8.41399 12.9416 8.26799 12.7956C7.97499 12.5036 7.97299 12.0296 8.26599 11.7356L10.61 9.37961C10.892 9.09661 11.392 9.09661 11.673 9.37961L14.019 11.7356C14.311 12.0296 14.31 12.5036 14.017 12.7956C13.723 13.0876 13.248 13.0876 12.956 12.7936L11.142 10.9716L9.32799 12.7936C9.18199 12.9416 8.98899 13.0146 8.79699 13.0146Z" fill="fillColor"/>
</svg>
