<svg width="24" height="24" viewBox="0 0 24 24" fill="none" xmlns="http://www.w3.org/2000/svg">
<path d="M16.8395 5.79645C17.2192 5.79645 17.533 6.0786 17.5827 6.44468L17.5895 6.54645V20.1642C17.5895 20.5784 17.2538 20.9142 16.8395 20.9142C16.4598 20.9142 16.146 20.6321 16.0964 20.266L16.0895 20.1642V6.54645C16.0895 6.13223 16.4253 5.79645 16.8395 5.79645Z" fill="fillColor"/>
<path d="M20.3857 15.539C20.6779 15.2454 21.1527 15.2443 21.4463 15.5366C21.7132 15.8022 21.7384 16.2188 21.5212 16.5129L21.4488 16.5972L17.371 20.6939C17.1045 20.9616 16.6862 20.986 16.3921 20.7669L16.3079 20.6939L12.2301 16.5972C11.9379 16.3036 11.939 15.8288 12.2326 15.5366C12.4994 15.2709 12.9162 15.2477 13.2093 15.4662L13.2932 15.539L16.839 19.101L20.3857 15.539Z" fill="fillColor"/>
<path d="M6.9111 3.08289C7.2908 3.08289 7.60459 3.36504 7.65426 3.73112L7.6611 3.83289V17.4507C7.6611 17.8649 7.32532 18.2007 6.9111 18.2007C6.53141 18.2007 6.21761 17.9185 6.16795 17.5524L6.1611 17.4507V3.83289C6.1611 3.41867 6.49689 3.08289 6.9111 3.08289Z" fill="fillColor"/>
<path d="M6.37966 3.30323C6.64618 3.03548 7.06443 3.01114 7.35854 3.23021L7.44277 3.30323L11.5205 7.3999C11.8128 7.69347 11.8117 8.16834 11.5181 8.46056C11.2512 8.72621 10.8345 8.74945 10.5414 8.53092L10.4574 8.45811L6.91099 4.895L3.36499 8.45811C3.09934 8.72499 2.68273 8.75016 2.38862 8.53298L2.30433 8.46056C2.03745 8.19491 2.01228 7.7783 2.22946 7.48419L2.30188 7.3999L6.37966 3.30323Z" fill="fillColor"/>
</svg>
