<svg width="24" height="24" viewBox="0 0 24 24" fill="none" xmlns="http://www.w3.org/2000/svg">
<mask id="mask0_430_8905" style="mask-type:luminance" maskUnits="userSpaceOnUse" x="3" y="5" width="13" height="16">
<path fill-rule="evenodd" clip-rule="evenodd" d="M3.00012 5.00021H15.0201V20.5021H3.00012V5.00021Z" fill="white"/>
</mask>
<g mask="url(#mask0_430_8905)">
<path fill-rule="evenodd" clip-rule="evenodd" d="M12.2081 6.5061C11.3401 6.5061 10.2301 7.3871 9.30611 8.1211C8.41711 8.8261 7.71511 9.3841 7.01511 9.4361C6.70511 9.4581 6.43911 9.4681 6.20511 9.4761C5.45811 9.5011 5.26911 9.5181 4.93211 9.7961C4.49011 10.1591 4.49711 11.6421 4.50111 12.5271L4.50211 12.7481V12.7521L4.50111 12.9731C4.49711 13.8591 4.49011 15.3421 4.93211 15.7051C5.26811 15.9831 5.45711 15.9991 6.20211 16.0261C6.43711 16.0331 6.70411 16.0431 7.01511 16.0661C7.71511 16.1171 8.41711 16.6751 9.30611 17.3801C10.4091 18.2551 11.7761 19.3401 12.6811 18.8891C13.4391 18.2321 13.5201 16.4901 13.5201 12.7501C13.5201 9.0101 13.4391 7.2691 12.6811 6.6111C12.5341 6.5381 12.3751 6.5061 12.2081 6.5061ZM12.2181 20.5021C10.8271 20.5021 9.44811 19.4071 8.37411 18.5551C7.88911 18.1701 7.15611 17.5881 6.90311 17.5621C6.61611 17.5401 6.36811 17.5311 6.14911 17.5251C5.35111 17.4961 4.72011 17.4751 3.97811 16.8631C2.98611 16.0461 2.99511 14.3381 3.00111 12.9661L3.00211 12.7501L3.00111 12.5341C2.99511 11.1621 2.98611 9.4551 3.97811 8.6381C4.72111 8.0261 5.35311 8.0041 6.15311 7.9771C6.37111 7.9691 6.61811 7.9611 6.90511 7.9401C7.15611 7.9131 7.88911 7.3311 8.37411 6.9461C9.77211 5.8351 11.6891 4.3181 13.4741 5.3351C13.5051 5.3541 13.5361 5.3741 13.5641 5.3971C14.9581 6.4921 15.0201 8.5571 15.0201 12.7501C15.0201 16.9441 14.9581 19.0091 13.5641 20.1051C13.5361 20.1271 13.5051 20.1481 13.4731 20.1661C13.0591 20.4021 12.6381 20.5021 12.2181 20.5021Z" fill="fillColor"/>
</g>
<path fill-rule="evenodd" clip-rule="evenodd" d="M18.3306 17.1868C18.2036 17.1868 18.0756 17.1548 17.9576 17.0868C17.5986 16.8808 17.4746 16.4218 17.6806 16.0638C18.8516 14.0228 18.8516 11.4848 17.6806 9.4378C17.4746 9.0778 17.5996 8.6198 17.9586 8.4138C18.3186 8.2118 18.7756 8.3328 18.9816 8.6918C20.4166 11.1998 20.4166 14.3098 18.9816 16.8098C18.8426 17.0518 18.5906 17.1868 18.3306 17.1868Z" fill="fillColor"/>
</svg>
