<svg width="24" height="24" viewBox="0 0 24 24" fill="none" xmlns="http://www.w3.org/2000/svg">
<path fill-rule="evenodd" clip-rule="evenodd" d="M12.0002 2.75024C17.1082 2.75024 21.2502 6.89224 21.2502 12.0002C21.2502 17.1082 17.1082 21.2502 12.0002 21.2502C6.8912 21.2502 2.7502 17.1082 2.7502 12.0002C2.7502 6.89224 6.8912 2.75024 12.0002 2.75024Z" stroke="strokeColor"/>
<path opacity="0.4" d="M7.5207 13.1975C6.8597 13.1975 6.3227 12.6605 6.3227 12.0005C6.3227 11.3405 6.8597 10.8025 7.5207 10.8025C8.1817 10.8025 8.7187 11.3405 8.7187 12.0005C8.7187 12.6605 8.1817 13.1975 7.5207 13.1975Z" fill="fillColor"/>
<path opacity="0.4" d="M12.0002 13.1975C11.3392 13.1975 10.8022 12.6605 10.8022 12.0005C10.8022 11.3405 11.3392 10.8025 12.0002 10.8025C12.6612 10.8025 13.1982 11.3405 13.1982 12.0005C13.1982 12.6605 12.6612 13.1975 12.0002 13.1975Z" fill="fillColor"/>
<path opacity="0.4" d="M16.4792 13.1975C15.8182 13.1975 15.2812 12.6605 15.2812 12.0005C15.2812 11.3405 15.8182 10.8025 16.4792 10.8025C17.1402 10.8025 17.6772 11.3405 17.6772 12.0005C17.6772 12.6605 17.1402 13.1975 16.4792 13.1975Z" fill="fillColor"/>
</svg>
