<svg width="24" height="24" viewBox="0 0 24 24" fill="none" xmlns="http://www.w3.org/2000/svg">
<path opacity="0.4" fill-rule="evenodd" clip-rule="evenodd" d="M16.3344 2.75024H7.6654C4.6444 2.75024 2.7504 4.88924 2.7504 7.91624V16.0842C2.7504 19.1112 4.6354 21.2502 7.6654 21.2502H16.3334C19.3644 21.2502 21.2504 19.1112 21.2504 16.0842V7.91624C21.2504 4.88924 19.3644 2.75024 16.3344 2.75024Z" stroke="strokeColor"/>
<path fill-rule="evenodd" clip-rule="evenodd" d="M10.6923 12.0002C10.6923 13.0222 9.8633 13.8522 8.8403 13.8522C7.8183 13.8522 6.9893 13.0222 6.9893 12.0002C6.9893 10.9782 7.8183 10.1482 8.8403 10.1482C9.8633 10.1482 10.6923 10.9782 10.6923 12.0002Z" stroke="strokeColor"/>
<path d="M10.6923 12.0002H17.0103V13.8522" stroke="strokeColor"/>
<path d="M14.1816 13.8518V11.9998" stroke="strokeColor"/>
</svg>
