<svg width="24" height="24" viewBox="0 0 24 24" fill="none" xmlns="http://www.w3.org/2000/svg">
<path opacity="0.4" fill-rule="evenodd" clip-rule="evenodd" d="M5.46436 10.9321C5.46436 10.5179 5.12857 10.1821 4.71436 10.1821C4.30014 10.1821 3.96436 10.5179 3.96436 10.9321C3.96436 15.1831 7.21627 18.6736 11.3685 19.052V21.1469C11.3685 21.5611 11.7043 21.8969 12.1185 21.8969C12.5328 21.8969 12.8685 21.5611 12.8685 21.1469V19.0519C17.0204 18.6732 20.2729 15.183 20.2729 10.9321C20.2729 10.5179 19.9371 10.1821 19.5229 10.1821C19.1087 10.1821 18.7729 10.5179 18.7729 10.9321C18.7729 14.6073 15.7936 17.5859 12.1182 17.5859C8.44285 17.5859 5.46436 14.6074 5.46436 10.9321Z" fill="fillColor"/>
<path fill-rule="evenodd" clip-rule="evenodd" d="M11.9922 3.46387C10.3854 3.46387 9.08215 4.76713 9.08215 6.37387V10.9243C9.08215 12.5319 10.3853 13.8343 11.9922 13.8343H12.2445C13.8522 13.8343 15.1545 12.532 15.1545 10.9243V10.7985H13.0491C12.6349 10.7985 12.2991 10.4627 12.2991 10.0485C12.2991 9.63424 12.6349 9.29846 13.0491 9.29846H15.1545V7.62695H14.0015C13.5873 7.62695 13.2515 7.29116 13.2515 6.87695C13.2515 6.46273 13.5873 6.12695 14.0015 6.12695H15.1442C15.0189 4.6356 13.7689 3.46387 12.2445 3.46387H11.9922ZM7.58215 6.37387C7.58215 3.9387 9.55699 1.96387 11.9922 1.96387H12.2445C14.6808 1.96387 16.6545 3.93883 16.6545 6.37387V10.9243C16.6545 13.3605 14.6807 15.3343 12.2445 15.3343H11.9922C9.55711 15.3343 7.58215 13.3606 7.58215 10.9243V6.37387Z" fill="fillColor"/>
</svg>
