<svg width="24" height="24" viewBox="0 0 24 24" fill="none" xmlns="http://www.w3.org/2000/svg">
<path opacity="0.4" d="M2.80411 15.4769C2.80411 15.4769 2.94611 17.2149 2.97911 17.7629C3.02311 18.4979 3.30711 19.3189 3.78111 19.8889C4.45011 20.6969 5.23811 20.9819 6.29011 20.9839C7.52711 20.9859 16.5221 20.9859 17.7591 20.9839C18.8111 20.9819 19.5991 20.6969 20.2681 19.8889C20.7421 19.3189 21.0261 18.4979 21.0711 17.7629C21.1031 17.2149 21.2451 15.4769 21.2451 15.4769" stroke="strokeColor"/>
<path d="M8.496 5.32949V4.95849C8.496 3.73849 9.484 2.75049 10.704 2.75049H13.286C14.505 2.75049 15.494 3.73849 15.494 4.95849L15.495 5.32949" stroke="strokeColor"/>
<path d="M11.995 16.6782V15.3842" stroke="strokeColor"/>
<path fill-rule="evenodd" clip-rule="evenodd" d="M2.74991 8.38905V11.8561C4.66791 13.1211 6.96591 14.0071 9.48791 14.3581C9.78991 13.2571 10.7829 12.4501 11.9899 12.4501C13.1779 12.4501 14.1909 13.2571 14.4729 14.3681C17.0049 14.0171 19.3119 13.1311 21.2399 11.8561V8.38905C21.2399 6.69505 19.8769 5.33105 18.1829 5.33105H5.81691C4.12291 5.33105 2.74991 6.69505 2.74991 8.38905Z" stroke="strokeColor"/>
</svg>
