<svg width="24" height="24" viewBox="0 0 24 24" fill="none" xmlns="http://www.w3.org/2000/svg">
<path opacity="0.4" d="M11.2503 16.2695C11.2503 15.8555 11.5863 15.5135 12.0003 15.5135C12.4143 15.5135 12.7503 15.8445 12.7503 16.2585V16.2695C12.7503 16.6835 12.4143 17.0195 12.0003 17.0195C11.5863 17.0195 11.2503 16.6835 11.2503 16.2695Z" fill="fillColor"/>
<path d="M4.7957 20.4179H19.2777C20.4247 20.3579 21.3067 19.3809 21.2477 18.2339C21.2347 18.0019 21.1847 17.7729 21.0967 17.5589L13.8197 4.82285C13.2637 3.81785 11.9987 3.45385 10.9937 4.01085C10.6517 4.19885 10.3697 4.48085 10.1807 4.82285L2.9037 17.5589C2.4717 18.6229 2.9837 19.8349 4.0467 20.2679C4.2627 20.3549 4.4907 20.4049 4.7227 20.4179" stroke="strokeColor"/>
<path opacity="0.4" d="M11.9899 13.396V10.296" stroke="strokeColor"/>
</svg>
