<svg width="24" height="24" viewBox="0 0 24 24" fill="none" xmlns="http://www.w3.org/2000/svg">
<path opacity="0.4" d="M3.09265 9.40421H20.9166" stroke="strokeColor"/>
<path opacity="0.4" fill-rule="evenodd" clip-rule="evenodd" d="M6.80786 13.3097C6.80786 12.8955 7.14365 12.5597 7.55786 12.5597H7.56713C7.98134 12.5597 8.31713 12.8955 8.31713 13.3097C8.31713 13.7239 7.98134 14.0597 7.56713 14.0597H7.55786C7.14365 14.0597 6.80786 13.7239 6.80786 13.3097ZM12.0046 12.5597C11.5904 12.5597 11.2546 12.8955 11.2546 13.3097C11.2546 13.7239 11.5904 14.0597 12.0046 14.0597H12.0138C12.4281 14.0597 12.7638 13.7239 12.7638 13.3097C12.7638 12.8955 12.4281 12.5597 12.0138 12.5597H12.0046ZM16.442 12.5597C16.0278 12.5597 15.692 12.8955 15.692 13.3097C15.692 13.7239 16.0278 14.0597 16.442 14.0597H16.4513C16.8655 14.0597 17.2013 13.7239 17.2013 13.3097C17.2013 12.8955 16.8655 12.5597 16.4513 12.5597H16.442ZM16.442 16.4462C16.0278 16.4462 15.692 16.782 15.692 17.1962C15.692 17.6104 16.0278 17.9462 16.442 17.9462H16.4513C16.8655 17.9462 17.2013 17.6104 17.2013 17.1962C17.2013 16.782 16.8655 16.4462 16.4513 16.4462H16.442ZM11.2546 17.1962C11.2546 16.782 11.5904 16.4462 12.0046 16.4462H12.0138C12.4281 16.4462 12.7638 16.782 12.7638 17.1962C12.7638 17.6104 12.4281 17.9462 12.0138 17.9462H12.0046C11.5904 17.9462 11.2546 17.6104 11.2546 17.1962ZM7.55786 16.4462C7.14365 16.4462 6.80786 16.782 6.80786 17.1962C6.80786 17.6104 7.14365 17.9462 7.55786 17.9462H7.56713C7.98134 17.9462 8.31713 17.6104 8.31713 17.1962C8.31713 16.782 7.98134 16.4462 7.56713 16.4462H7.55786Z" fill="fillColor"/>
<path d="M16.0437 2V5.29078" stroke="strokeColor"/>
<path d="M7.96552 2V5.29078" stroke="strokeColor"/>
<path fill-rule="evenodd" clip-rule="evenodd" d="M16.2383 3.57922H7.77096C4.83427 3.57922 3 5.21516 3 8.22225V17.2719C3 20.3263 4.83427 22 7.77096 22H16.229C19.175 22 21 20.3546 21 17.3475V8.22225C21.0092 5.21516 19.1842 3.57922 16.2383 3.57922Z" stroke="strokeColor"/>
</svg>
