<svg width="24" height="24" viewBox="0 0 24 24" fill="none" xmlns="http://www.w3.org/2000/svg">
<path fill-rule="evenodd" clip-rule="evenodd" d="M12 2C17.5228 2 22 6.47716 22 12C22 17.5228 17.5228 22 12 22C6.47716 22 2 17.5228 2 12C2 6.47716 6.47716 2 12 2Z" stroke="strokeColor"/>
<path opacity="0.4" fill-rule="evenodd" clip-rule="evenodd" d="M15.0501 12.4668C14.3211 13.2528 12.3371 14.5828 11.3221 15.0098C11.1601 15.0778 10.7471 15.2218 10.6581 15.2238C10.4691 15.2298 10.2871 15.1238 10.1991 14.9538C10.1651 14.8878 10.0651 14.4568 10.0331 14.2648C9.93809 13.6808 9.88909 12.7738 9.89009 11.8618C9.88909 10.9048 9.94209 9.95483 10.0481 9.37683C10.0761 9.22083 10.1581 8.86183 10.1821 8.80383C10.2271 8.69583 10.3091 8.61083 10.4081 8.55783C10.4841 8.51683 10.5711 8.49483 10.6581 8.49783C10.7471 8.49983 11.1091 8.62683 11.2331 8.67583C12.2111 9.05583 14.2801 10.4338 15.0401 11.2438C15.1081 11.3168 15.2951 11.5128 15.3261 11.5528C15.3971 11.6428 15.4321 11.7518 15.4321 11.8618C15.4321 11.9638 15.4011 12.0678 15.3371 12.1548C15.3041 12.1998 15.1131 12.3998 15.0501 12.4668Z" stroke="strokeColor"/>
</svg>
