<svg width="24" height="24" viewBox="0 0 24 24" fill="none" xmlns="http://www.w3.org/2000/svg">
<path opacity="0.4" fill-rule="evenodd" clip-rule="evenodd" d="M5.46448 10.9319C5.46448 10.5177 5.12869 10.1819 4.71448 10.1819C4.30026 10.1819 3.96448 10.5177 3.96448 10.9319C3.96448 15.1829 7.2164 18.6734 11.3687 19.0517V21.1468C11.3687 21.561 11.7045 21.8968 12.1187 21.8968C12.5329 21.8968 12.8687 21.561 12.8687 21.1468V19.0516C17.0206 18.6729 20.2721 15.1826 20.2721 10.9319C20.2721 10.5177 19.9363 10.1819 19.5221 10.1819C19.1079 10.1819 18.7721 10.5177 18.7721 10.9319C18.7721 14.6072 15.7936 17.5857 12.1183 17.5857C8.44298 17.5857 5.46448 14.6072 5.46448 10.9319Z" fill="fillColor"/>
<path fill-rule="evenodd" clip-rule="evenodd" d="M12.2447 14.5843H11.9923C9.97132 14.5843 8.33228 12.9462 8.33228 10.9243V6.37387C8.33228 4.35291 9.97132 2.71387 11.9923 2.71387H12.2447C14.2656 2.71387 15.9047 4.35291 15.9047 6.37387V10.9243C15.9047 12.9462 14.2656 14.5843 12.2447 14.5843Z" stroke="strokeColor"/>
</svg>
