<svg width="24" height="24" viewBox="0 0 24 24" fill="none" xmlns="http://www.w3.org/2000/svg">
<path fill-rule="evenodd" clip-rule="evenodd" d="M16.3347 2.75024H7.6657C4.6447 2.75024 2.7507 4.88924 2.7507 7.91624V16.0842C2.7507 19.1112 4.6347 21.2502 7.6657 21.2502H16.3337C19.3647 21.2502 21.2507 19.1112 21.2507 16.0842V7.91624C21.2507 4.88924 19.3647 2.75024 16.3347 2.75024Z" stroke="strokeColor"/>
<path opacity="0.4" d="M7.5208 13.1975C6.8598 13.1975 6.3228 12.6605 6.3228 12.0005C6.3228 11.3405 6.8598 10.8025 7.5208 10.8025C8.1818 10.8025 8.7188 11.3405 8.7188 12.0005C8.7188 12.6605 8.1818 13.1975 7.5208 13.1975Z" fill="fillColor"/>
<path opacity="0.4" d="M12.0002 13.1975C11.3392 13.1975 10.8022 12.6605 10.8022 12.0005C10.8022 11.3405 11.3392 10.8025 12.0002 10.8025C12.6612 10.8025 13.1982 11.3405 13.1982 12.0005C13.1982 12.6605 12.6612 13.1975 12.0002 13.1975Z" fill="fillColor"/>
<path opacity="0.4" d="M16.4792 13.1975C15.8182 13.1975 15.2812 12.6605 15.2812 12.0005C15.2812 11.3405 15.8182 10.8025 16.4792 10.8025C17.1402 10.8025 17.6772 11.3405 17.6772 12.0005C17.6772 12.6605 17.1402 13.1975 16.4792 13.1975Z" fill="fillColor"/>
</svg>
