<svg width="24" height="24" viewBox="0 0 24 24" fill="none" xmlns="http://www.w3.org/2000/svg">
<path fill-rule="evenodd" clip-rule="evenodd" d="M14.7363 2.76196H8.0843C6.0253 2.76196 4.2503 4.43096 4.2503 6.49096V17.228C4.2503 19.404 5.9083 21.115 8.0843 21.115H16.0723C18.1323 21.115 19.8023 19.288 19.8023 17.228V8.03796L14.7363 2.76196Z" stroke="strokeColor"/>
<path d="M14.4736 2.75024V5.65924C14.4736 7.07924 15.6226 8.23124 17.0426 8.23424C18.3586 8.23724 19.7056 8.23824 19.7966 8.23224" stroke="strokeColor"/>
<path opacity="0.4" fill-rule="evenodd" clip-rule="evenodd" d="M12.1716 8.91098C12.0309 8.76962 11.8396 8.69017 11.6401 8.69019C11.4406 8.6902 11.2494 8.76969 11.1086 8.91107L8.27064 11.7621C7.97841 12.0556 7.9795 12.5305 8.27306 12.8227C8.56662 13.1149 9.04149 13.1139 9.33372 12.8203L10.8906 11.2563V16.0137C10.8906 16.4279 11.2264 16.7637 11.6406 16.7637C12.0548 16.7637 12.3906 16.4279 12.3906 16.0137V11.2567L13.9477 12.8204C14.24 13.1139 14.7149 13.1149 15.0084 12.8226C15.3019 12.5304 15.3029 12.0555 15.0106 11.762L12.1716 8.91098Z" fill="fillColor"/>
</svg>
