<svg width="24" height="24" viewBox="0 0 24 24" fill="none" xmlns="http://www.w3.org/2000/svg">
<path fill-rule="evenodd" clip-rule="evenodd" d="M14.7366 2.76196H7.9786C5.9196 2.76196 4.2496 4.43096 4.2496 6.49096V17.34C4.2496 19.516 6.0136 21.115 8.1896 21.115H16.0726C18.1326 21.115 19.8016 19.4 19.8016 17.34V8.03796L14.7366 2.76196Z" stroke="strokeColor"/>
<path d="M14.4739 2.75024V5.65924C14.4739 7.07924 15.6229 8.23124 17.0419 8.23424C18.3589 8.23724 19.7059 8.23824 19.7969 8.23224" stroke="strokeColor"/>
<path opacity="0.4" fill-rule="evenodd" clip-rule="evenodd" d="M10.6407 10.6513C10.3478 10.3584 9.87294 10.3584 9.58005 10.6513C9.28715 10.9442 9.28715 11.4191 9.58005 11.712L10.7828 12.9148L9.58029 14.1173C9.2874 14.4102 9.2874 14.8851 9.58029 15.178C9.87319 15.4709 10.3481 15.4709 10.641 15.178L11.8435 13.9754L13.046 15.178C13.3389 15.4709 13.8138 15.4709 14.1067 15.178C14.3996 14.8851 14.3996 14.4102 14.1067 14.1173L12.9042 12.9148L14.107 11.712C14.3998 11.4191 14.3998 10.9442 14.107 10.6513C13.8141 10.3584 13.3392 10.3584 13.0463 10.6513L11.8435 11.8541L10.6407 10.6513Z" fill="fillColor"/>
</svg>
