<svg width="24" height="24" viewBox="0 0 24 24" fill="none" xmlns="http://www.w3.org/2000/svg">
<path fill-rule="evenodd" clip-rule="evenodd" d="M16.3027 2.74976H7.6507C4.6387 2.74976 2.7497 4.88376 2.7497 7.90376V16.0498C2.7497 19.0698 4.6307 21.2038 7.6507 21.2038H16.2977C19.3227 21.2038 21.2027 19.0698 21.2027 16.0498V7.90376C21.2067 4.88376 19.3257 2.74976 16.3027 2.74976Z" stroke="strokeColor"/>
<path opacity="0.4" fill-rule="evenodd" clip-rule="evenodd" d="M10.7031 8.78496C10.7031 9.80496 9.8771 10.631 8.8571 10.631C7.8381 10.631 7.0111 9.80496 7.0111 8.78496C7.0111 7.76496 7.8381 6.93896 8.8571 6.93896C9.8761 6.93996 10.7021 7.76596 10.7031 8.78496Z" stroke="strokeColor"/>
<path opacity="0.4" d="M21.207 14.951C20.284 14.001 18.509 12.082 16.579 12.082C14.648 12.082 13.535 16.315 11.678 16.315C9.821 16.315 8.134 14.401 6.646 15.628C5.158 16.854 3.75 19.361 3.75 19.361" stroke="strokeColor"/>
</svg>
