<svg width="24" height="24" viewBox="0 0 24 24" fill="none" xmlns="http://www.w3.org/2000/svg">
<path fill-rule="evenodd" clip-rule="evenodd" d="M15.0402 4.05126C16.0502 4.45326 16.3592 5.85326 16.7722 6.30326C17.1852 6.75326 17.7762 6.90626 18.1032 6.90626C19.8412 6.90626 21.2502 8.31526 21.2502 10.0523V15.8473C21.2502 18.1773 19.3602 20.0673 17.0302 20.0673H6.9702C4.6392 20.0673 2.7502 18.1773 2.7502 15.8473V10.0523C2.7502 8.31526 4.1592 6.90626 5.8972 6.90626C6.2232 6.90626 6.8142 6.75326 7.2282 6.30326C7.6412 5.85326 7.9492 4.45326 8.9592 4.05126C9.9702 3.64926 14.0302 3.64926 15.0402 4.05126Z" stroke="strokeColor"/>
<path opacity="0.4" d="M17.4955 9.69995H17.5045" stroke="strokeColor"/>
<path opacity="0.4" fill-rule="evenodd" clip-rule="evenodd" d="M15.1789 13.3279C15.1789 11.5719 13.7559 10.1489 11.9999 10.1489C10.2439 10.1489 8.8209 11.5719 8.8209 13.3279C8.8209 15.0839 10.2439 16.5069 11.9999 16.5069C13.7559 16.5069 15.1789 15.0839 15.1789 13.3279Z" stroke="strokeColor"/>
</svg>
