<svg width="24" height="24" viewBox="0 0 24 24" fill="none" xmlns="http://www.w3.org/2000/svg">
<path fill-rule="evenodd" clip-rule="evenodd" d="M14.7364 2.76196H8.0844C6.0254 2.76196 4.2504 4.43096 4.2504 6.49096V17.228C4.2504 19.404 5.9084 21.115 8.0844 21.115H16.0724C18.1324 21.115 19.8024 19.288 19.8024 17.228V8.03796L14.7364 2.76196Z" stroke="strokeColor"/>
<path d="M14.4737 2.75024V5.65924C14.4737 7.07924 15.6227 8.23124 17.0427 8.23424C18.3587 8.23724 19.7057 8.23824 19.7967 8.23224" stroke="strokeColor"/>
<path opacity="0.4" fill-rule="evenodd" clip-rule="evenodd" d="M12.3907 9.4408C12.3907 9.02658 12.0549 8.6908 11.6407 8.6908C11.2265 8.6908 10.8907 9.02658 10.8907 9.4408V14.1981L9.33382 12.6341C9.0416 12.3405 8.56673 12.3394 8.27316 12.6317C7.9796 12.9239 7.97852 13.3988 8.27074 13.6923L11.1087 16.5433C11.2495 16.6847 11.4407 16.7642 11.6402 16.7642C11.8296 16.7642 12.0116 16.6926 12.15 16.5644C12.1589 16.5562 12.1676 16.5477 12.1761 16.539L15.0107 13.6924C15.303 13.3989 15.302 12.924 15.0085 12.6318C14.715 12.3395 14.2401 12.3405 13.9478 12.634L12.3907 14.1977V9.4408Z" fill="fillColor"/>
</svg>
