<svg width="24" height="24" viewBox="0 0 24 24" fill="none" xmlns="http://www.w3.org/2000/svg">
<path d="M4.7943 7.05575C4.7943 5.80675 5.8073 4.79375 7.0553 4.79375H8.0843C8.6803 4.79375 9.2533 4.55775 9.6773 4.13675L10.3963 3.41675C11.2773 2.53175 12.7093 2.52775 13.5943 3.40875L13.6033 3.41675L14.3233 4.13675C14.7463 4.55775 15.3193 4.79375 15.9163 4.79375H16.9443C18.1933 4.79375 19.2063 5.80675 19.2063 7.05575V8.08275C19.2063 8.68075 19.4423 9.25275 19.8633 9.67675L20.5833 10.3967C21.4683 11.2777 21.4733 12.7087 20.5923 13.5947L20.5833 13.6037L19.8633 14.3237C19.4423 14.7457 19.2063 15.3197 19.2063 15.9157V16.9447C19.2063 18.1937 18.1933 19.2057 16.9443 19.2057H15.9163C15.3193 19.2057 14.7463 19.4427 14.3233 19.8637L13.6033 20.5827C12.7233 21.4687 11.2913 21.4727 10.4053 20.5917C10.4023 20.5887 10.3993 20.5857 10.3963 20.5827L9.6773 19.8637C9.2533 19.4427 8.6803 19.2057 8.0843 19.2057H7.0553C5.8073 19.2057 4.7943 18.1937 4.7943 16.9447V15.9157C4.7943 15.3197 4.5573 14.7457 4.1363 14.3237L3.4173 13.6037C2.5313 12.7227 2.5273 11.2907 3.4083 10.4057L3.4173 10.3967L4.1363 9.67675C4.5573 9.25275 4.7943 8.68075 4.7943 8.08275V7.05575" stroke="strokeColor"/>
<path opacity="0.4" d="M9.43 14.5694L14.57 9.42944" stroke="strokeColor"/>
<path opacity="0.4" d="M14.5667 15.3224C14.3667 15.3224 14.1767 15.2424 14.0367 15.1024C13.9667 15.0324 13.9167 14.9424 13.8767 14.8524C13.8367 14.7624 13.8167 14.6734 13.8167 14.5724C13.8167 14.4724 13.8367 14.3724 13.8767 14.2824C13.9167 14.1924 13.9667 14.1124 14.0367 14.0424C14.3167 13.7624 14.8167 13.7624 15.0967 14.0424C15.1667 14.1124 15.2267 14.1924 15.2667 14.2824C15.2967 14.3724 15.3167 14.4724 15.3167 14.5724C15.3167 14.6734 15.2967 14.7624 15.2667 14.8524C15.2267 14.9424 15.1667 15.0324 15.0967 15.1024C14.9567 15.2424 14.7667 15.3224 14.5667 15.3224Z" fill="fillColor"/>
<path opacity="0.4" d="M9.4266 10.1828C9.3266 10.1828 9.2366 10.1618 9.1466 10.1218C9.0566 10.0818 8.9666 10.0328 8.8966 9.96277C8.8266 9.88277 8.7766 9.80277 8.7366 9.71277C8.6966 9.62177 8.6766 9.53277 8.6766 9.43277C8.6766 9.33177 8.6966 9.23277 8.7366 9.14277C8.7766 9.05277 8.8266 8.96277 8.8966 8.90277C9.1866 8.62177 9.6766 8.62177 9.9566 8.90277C10.0966 9.04177 10.1766 9.23277 10.1766 9.43277C10.1766 9.53277 10.1666 9.62177 10.1266 9.71277C10.0866 9.80277 10.0266 9.88277 9.9566 9.96277C9.8866 10.0328 9.8066 10.0818 9.7166 10.1218C9.6266 10.1618 9.5266 10.1828 9.4266 10.1828Z" fill="fillColor"/>
</svg>
